NimbusSanL-ReguItal.ufo
<glyph name="exclam" format="1">
  <advance width="278"/>
  <unicode hex="0021"/>
  <outline>
    <contour>
      <point x="363" y="729" type="line"/>
      <point x="289" y="379" type="line"/>
      <point x="222" y="168" type="line"/>
      <point x="182" y="168" type="line"/>
      <point x="205" y="379" type="line"/>
      <point x="279" y="729" type="line"/>
    </contour>
    <contour>
      <point x="230" y="103" type="line"/>
      <point x="208" y="0" type="line"/>
      <point x="124" y="0" type="line"/>
      <point x="146" y="103" type="line"/>
    </contour>
  </outline>
</glyph>
<glyph name="ampersand" format="1">
  <advance width="667"/>
  <unicode hex="0026"/>
  <outline>
    <contour>
      <point x="565" y="334" type="curve"/>
      <point x="644" y="334" type="line"/>
      <point x="632" y="273"/>
      <point x="593" y="202"/>
      <point x="544" y="151" type="curve"/>
      <point x="634" y="0" type="line"/>
      <point x="528" y="0" type="line"/>
      <point x="482" y="78" type="line"/>
      <point x="391" y="3"/>
      <point x="333" y="-23"/>
      <point x="253" y="-23" type="curve" smooth="yes"/>
      <point x="148" y="-23"/>
      <point x="83" y="35"/>
      <point x="83" y="128" type="curve" smooth="yes"/>
      <point x="83" y="209"/>
      <point x="120" y="277"/>
      <point x="195" y="332" type="curve" smooth="yes"/>
      <point x="221" y="350"/>
      <point x="249" y="368"/>
      <point x="288" y="390" type="curve"/>
      <point x="284" y="401"/>
      <point x="281" y="409"/>
      <point x="279" y="413" type="curve" smooth="yes"/>
      <point x="261" y="455" type="line" smooth="yes"/>
      <point x="252" y="477"/>
      <point x="247" y="500"/>
      <point x="247" y="523" type="curve" smooth="yes"/>
      <point x="247" y="620"/>
      <point x="346" y="709"/>
      <point x="455" y="709" type="curve" smooth="yes"/>
      <point x="536" y="709"/>
      <point x="588" y="662"/>
      <point x="588" y="587" type="curve" smooth="yes"/>
      <point x="588" y="500"/>
      <point x="531" y="434"/>
      <point x="407" y="378" type="curve"/>
      <point x="505" y="215" type="line"/>
      <point x="537" y="252"/>
      <point x="553" y="285"/>
    </contour>
    <contour>
      <point x="377" y="434" type="curve"/>
      <point x="469" y="480"/>
      <point x="505" y="519"/>
      <point x="505" y="574" type="curve" smooth="yes"/>
      <point x="505" y="614"/>
      <point x="479" y="639"/>
      <point x="436" y="639" type="curve" smooth="yes"/>
      <point x="377" y="639"/>
      <point x="330" y="592"/>
      <point x="330" y="533" type="curve" smooth="yes"/>
      <point x="330" y="505"/>
      <point x="336" y="492"/>
    </contour>
    <contour>
      <point x="448" y="137" type="curve"/>
      <point x="329" y="336" type="line"/>
      <point x="217" y="276"/>
      <point x="171" y="224"/>
      <point x="171" y="159" type="curve" smooth="yes"/>
      <point x="171" y="94"/>
      <point x="213" y="54"/>
      <point x="280" y="54" type="curve" smooth="yes"/>
      <point x="329" y="54"/>
      <point x="375" y="76"/>
    </contour>
  </outline>
</glyph>
<glyph name="parenleft" format="1">
  <advance width="333"/>
  <unicode hex="0028"/>
  <outline>
    <contour>
      <point x="391" y="729" type="curve"/>
      <point x="446" y="729" type="line"/>
      <point x="278" y="523"/>
      <point x="191" y="301"/>
      <point x="191" y="79" type="curve" smooth="yes"/>
      <point x="191" y="-23"/>
      <point x="209" y="-117"/>
      <point x="246" y="-213" type="curve"/>
      <point x="191" y="-213" type="line"/>
      <point x="142" y="-127"/>
      <point x="113" y="-3"/>
      <point x="113" y="116" type="curve" smooth="yes"/>
      <point x="113" y="319"/>
      <point x="217" y="547"/>
    </contour>
  </outline>
</glyph>
<glyph name="comma" format="1">
  <advance width="278"/>
  <unicode hex="002C"/>
  <outline>
    <contour>
      <point x="109" y="103" type="line"/>
      <point x="214" y="103" type="line"/>
      <point x="188" y="-16" type="line"/>
      <point x="171" y="-101"/>
      <point x="121" y="-150"/>
      <point x="55" y="-147" type="curve"/>
      <point x="63" y="-109" type="line"/>
      <point x="111" y="-109"/>
      <point x="132" y="-82"/>
      <point x="146" y="0" type="curve"/>
      <point x="87" y="0" type="line"/>
    </contour>
  </outline>
</glyph>
<glyph name="hyphen" format="1">
  <advance width="333"/>
  <unicode hex="002D"/>
  <outline>
    <contour>
      <point x="351" y="312" type="line"/>
      <point x="336" y="240" type="line"/>
      <point x="97" y="240" type="line"/>
      <point x="112" y="312" type="line"/>
    </contour>
  </outline>
</glyph>
<glyph name="slash" format="1">
  <advance width="278"/>
  <unicode hex="002F"/>
  <outline>
    <contour>
      <point x="379" y="729" type="line"/>
      <point x="434" y="729" type="line"/>
      <point x="43" y="-20" type="line"/>
      <point x="-12" y="-20" type="line"/>
    </contour>
  </outline>
</glyph>
<glyph name="zero" format="1">
  <advance width="556"/>
  <unicode hex="0030"/>
  <outline>
    <contour>
      <point x="418" y="709" type="curve" smooth="yes"/>
      <point x="531" y="709"/>
      <point x="598" y="636"/>
      <point x="598" y="514" type="curve" smooth="yes"/>
      <point x="598" y="371"/>
      <point x="550" y="191"/>
      <point x="486" y="99" type="curve" smooth="yes"/>
      <point x="428" y="15"/>
      <point x="362" y="-23"/>
      <point x="276" y="-23" type="curve" smooth="yes"/>
      <point x="228" y="-23"/>
      <point x="179" y="-5"/>
      <point x="148" y="25" type="curve" smooth="yes"/>
      <point x="116" y="56"/>
      <point x="98" y="109"/>
      <point x="98" y="170" type="curve" smooth="yes"/>
      <point x="98" y="315"/>
      <point x="147" y="495"/>
      <point x="210" y="587" type="curve" smooth="yes"/>
      <point x="266" y="669"/>
      <point x="335" y="709"/>
    </contour>
    <contour>
      <point x="406" y="632" type="curve" smooth="yes"/>
      <point x="343" y="632"/>
      <point x="295" y="592"/>
      <point x="256" y="509" type="curve" smooth="yes"/>
      <point x="218" y="426"/>
      <point x="186" y="276"/>
      <point x="186" y="181" type="curve" smooth="yes"/>
      <point x="186" y="102"/>
      <point x="224" y="54"/>
      <point x="287" y="54" type="curve" smooth="yes"/>
      <point x="352" y="54"/>
      <point x="399" y="92"/>
      <point x="439" y="178" type="curve" smooth="yes"/>
      <point x="477" y="258"/>
      <point x="510" y="410"/>
      <point x="510" y="504" type="curve" smooth="yes"/>
      <point x="510" y="585"/>
      <point x="471" y="632"/>
    </contour>
  </outline>
</glyph>
<glyph name="one" format="1">
  <advance width="556"/>
  <unicode hex="0031"/>
  <outline>
    <contour>
      <point x="367" y="505" type="line"/>
      <point x="208" y="505" type="line"/>
      <point x="221" y="568" type="line"/>
      <point x="365" y="588"/>
      <point x="386" y="601"/>
      <point x="440" y="709" type="curve"/>
      <point x="498" y="709" type="line"/>
      <point x="347" y="0" type="line"/>
      <point x="259" y="0" type="line"/>
    </contour>
  </outline>
</glyph>
<glyph name="four" format="1">
  <advance width="556"/>
  <unicode hex="0034"/>
  <outline>
    <contour>
      <point x="362" y="170" type="line"/>
      <point x="63" y="170" type="line"/>
      <point x="83" y="262" type="line"/>
      <point x="499" y="709" type="line"/>
      <point x="565" y="709" type="line"/>
      <point x="467" y="248" type="line"/>
      <point x="573" y="248" type="line"/>
      <point x="556" y="170" type="line"/>
      <point x="450" y="170" type="line"/>
      <point x="414" y="0" type="line"/>
      <point x="326" y="0" type="line"/>
    </contour>
    <contour>
      <point x="379" y="248" type="line"/>
      <point x="444" y="556" type="line"/>
      <point x="158" y="248" type="line"/>
    </contour>
  </outline>
</glyph>
<glyph name="five" format="1">
  <advance width="556"/>
  <unicode hex="0035"/>
  <outline>
    <contour>
      <point x="629" y="709" type="line"/>
      <point x="611" y="622" type="line"/>
      <point x="311" y="622" type="line"/>
      <point x="241" y="424" type="line"/>
      <point x="290" y="454"/>
      <point x="333" y="467"/>
      <point x="381" y="467" type="curve" smooth="yes"/>
      <point x="494" y="467"/>
      <point x="567" y="399"/>
      <point x="567" y="295" type="curve" smooth="yes"/>
      <point x="567" y="224"/>
      <point x="542" y="149"/>
      <point x="498" y="93" type="curve"/>
      <point x="439" y="15"/>
      <point x="364" y="-23"/>
      <point x="271" y="-23" type="curve" smooth="yes"/>
      <point x="209" y="-23"/>
      <point x="157" y="-6"/>
      <point x="119" y="26" type="curve" smooth="yes"/>
      <point x="84" y="55"/>
      <point x="70" y="93"/>
      <point x="70" y="152" type="curve" smooth="yes"/>
      <point x="70" y="162" type="line"/>
      <point x="70" y="174" type="line"/>
      <point x="158" y="174" type="line"/>
      <point x="161" y="94"/>
      <point x="204" y="54"/>
      <point x="283" y="54" type="curve" smooth="yes"/>
      <point x="396" y="54"/>
      <point x="479" y="145"/>
      <point x="479" y="269" type="curve" smooth="yes"/>
      <point x="479" y="346"/>
      <point x="433" y="390"/>
      <point x="353" y="390" type="curve" smooth="yes"/>
      <point x="295" y="390"/>
      <point x="265" y="377"/>
      <point x="204" y="323" type="curve"/>
      <point x="124" y="323" type="line"/>
      <point x="259" y="709" type="line"/>
    </contour>
  </outline>
</glyph>
<glyph name="seven" format="1">
  <advance width="556"/>
  <unicode hex="0037"/>
  <outline>
    <contour>
      <point x="671" y="709" type="line"/>
      <point x="654" y="628" type="line"/>
      <point x="483" y="460"/>
      <point x="302" y="189"/>
      <point x="235" y="0" type="curve"/>
      <point x="137" y="0" type="line"/>
      <point x="227" y="211"/>
      <point x="335" y="369"/>
      <point x="560" y="622" type="curve"/>
      <point x="177" y="622" type="line"/>
      <point x="196" y="709" type="line"/>
    </contour>
  </outline>
</glyph>
<glyph name="colon" format="1">
  <advance width="278"/>
  <unicode hex="003A"/>
  <outline>
    <contour>
      <point x="236" y="103" type="line"/>
      <point x="214" y="0" type="line"/>
      <point x="110" y="0" type="line"/>
      <point x="132" y="103" type="line"/>
    </contour>
    <contour>
      <point x="326" y="524" type="line"/>
      <point x="304" y="421" type="line"/>
      <point x="200" y="421" type="line"/>
      <point x="222" y="524" type="line"/>
    </contour>
  </outline>
</glyph>
<glyph name="semicolon" format="1">
  <advance width="278"/>
  <unicode hex="003B"/>
  <outline>
    <contour>
      <point x="325" y="524" type="line"/>
      <point x="303" y="421" type="line"/>
      <point x="199" y="421" type="line"/>
      <point x="221" y="524" type="line"/>
    </contour>
    <contour>
      <point x="132" y="103" type="line"/>
      <point x="237" y="103" type="line"/>
      <point x="211" y="-16" type="line"/>
      <point x="194" y="-101"/>
      <point x="144" y="-150"/>
      <point x="78" y="-147" type="curve"/>
      <point x="86" y="-109" type="line"/>
      <point x="134" y="-109"/>
      <point x="155" y="-82"/>
      <point x="169" y="0" type="curve"/>
      <point x="110" y="0" type="line"/>
    </contour>
  </outline>
</glyph>
<glyph name="less" format="1">
  <advance width="584"/>
  <unicode hex="003C"/>
  <outline>
    <contour>
      <point x="87" y="198" type="line"/>
      <point x="102" y="267" type="line"/>
      <point x="635" y="474" type="line"/>
      <point x="618" y="395" type="line"/>
      <point x="196" y="231" type="line"/>
      <point x="549" y="68" type="line"/>
      <point x="532" y="-9" type="line"/>
    </contour>
  </outline>
</glyph>
<glyph name="equal" format="1">
  <advance width="584"/>
  <unicode hex="003D"/>
  <outline>
    <contour>
      <point x="609" y="355" type="line"/>
      <point x="594" y="283" type="line"/>
      <point x="111" y="283" type="line"/>
      <point x="125" y="355" type="line"/>
    </contour>
    <contour>
      <point x="572" y="183" type="line"/>
      <point x="558" y="111" type="line"/>
      <point x="74" y="111" type="line"/>
      <point x="89" y="183" type="line"/>
    </contour>
  </outline>
</glyph>
<glyph name="D" format="1">
  <advance width="722"/>
  <unicode hex="0044"/>
  <outline>
    <contour>
      <point x="89" y="0" type="line"/>
      <point x="244" y="729" type="line"/>
      <point x="526" y="729" type="line" smooth="yes"/>
      <point x="591" y="729"/>
      <point x="644" y="711"/>
      <point x="682" y="677" type="curve" smooth="yes"/>
      <point x="729" y="635"/>
      <point x="759" y="561"/>
      <point x="759" y="488" type="curve" smooth="yes"/>
      <point x="759" y="363"/>
      <point x="711" y="217"/>
      <point x="643" y="134" type="curve" smooth="yes"/>
      <point x="570" y="45"/>
      <point x="479" y="0"/>
      <point x="371" y="0" type="curve" smooth="yes"/>
    </contour>
    <contour>
      <point x="200" y="82" type="line"/>
      <point x="372" y="82" type="line" smooth="yes"/>
      <point x="463" y="82"/>
      <point x="539" y="125"/>
      <point x="591" y="205" type="curve" smooth="yes"/>
      <point x="631" y="268"/>
      <point x="663" y="388"/>
      <point x="663" y="480" type="curve" smooth="yes"/>
      <point x="663" y="584"/>
      <point x="599" y="647"/>
      <point x="492" y="647" type="curve" smooth="yes"/>
      <point x="321" y="647" type="line"/>
    </contour>
  </outline>
</glyph>
<glyph name="H" format="1">
  <advance width="722"/>
  <unicode hex="0048"/>
  <outline>
    <contour>
      <point x="621" y="332" type="line"/>
      <point x="248" y="332" type="line"/>
      <point x="177" y="0" type="line"/>
      <point x="83" y="0" type="line"/>
      <point x="238" y="729" type="line"/>
      <point x="332" y="729" type="line"/>
      <point x="265" y="414" type="line"/>
      <point x="638" y="414" type="line"/>
      <point x="705" y="729" type="line"/>
      <point x="799" y="729" type="line"/>
      <point x="644" y="0" type="line"/>
      <point x="550" y="0" type="line"/>
    </contour>
  </outline>
</glyph>
<glyph name="K" format="1">
  <advance width="667"/>
  <unicode hex="004B"/>
  <outline>
    <contour>
      <point x="226" y="249" type="line"/>
      <point x="173" y="0" type="line"/>
      <point x="79" y="0" type="line"/>
      <point x="234" y="729" type="line"/>
      <point x="328" y="729" type="line"/>
      <point x="249" y="356" type="line"/>
      <point x="693" y="729" type="line"/>
      <point x="813" y="729" type="line"/>
      <point x="452" y="431" type="line"/>
      <point x="658" y="0" type="line"/>
      <point x="548" y="0" type="line"/>
      <point x="380" y="376" type="line"/>
    </contour>
  </outline>
</glyph>
<glyph name="N" format="1">
  <advance width="722"/>
  <unicode hex="004E"/>
  <outline>
    <contour>
      <point x="801" y="729" type="line"/>
      <point x="646" y="0" type="line"/>
      <point x="540" y="0" type="line"/>
      <point x="291" y="591" type="line"/>
      <point x="165" y="0" type="line"/>
      <point x="76" y="0" type="line"/>
      <point x="231" y="729" type="line"/>
      <point x="335" y="729" type="line"/>
      <point x="585" y="131" type="line"/>
      <point x="712" y="729" type="line"/>
    </contour>
  </outline>
</glyph>
<glyph name="P" format="1">
  <advance width="667"/>
  <unicode hex="0050"/>
  <outline>
    <contour>
      <point x="251" y="309" type="line"/>
      <point x="185" y="0" type="line"/>
      <point x="91" y="0" type="line"/>
      <point x="246" y="729" type="line"/>
      <point x="548" y="729" type="line" smooth="yes"/>
      <point x="670" y="729"/>
      <point x="733" y="674"/>
      <point x="733" y="568" type="curve" smooth="yes"/>
      <point x="733" y="487"/>
      <point x="697" y="411"/>
      <point x="634" y="361" type="curve" smooth="yes"/>
      <point x="589" y="325"/>
      <point x="542" y="309"/>
      <point x="479" y="309" type="curve" smooth="yes"/>
    </contour>
    <contour>
      <point x="268" y="391" type="line"/>
      <point x="462" y="391" type="line" smooth="yes"/>
      <point x="526" y="391"/>
      <point x="569" y="410"/>
      <point x="602" y="452" type="curve" smooth="yes"/>
      <point x="625" y="482"/>
      <point x="637" y="515"/>
      <point x="637" y="550" type="curve" smooth="yes"/>
      <point x="637" y="613"/>
      <point x="595" y="647"/>
      <point x="517" y="647" type="curve" smooth="yes"/>
      <point x="323" y="647" type="line"/>
    </contour>
  </outline>
</glyph>
<glyph name="R" format="1">
  <advance width="722"/>
  <unicode hex="0052"/>
  <outline>
    <contour>
      <point x="254" y="314" type="line"/>
      <point x="187" y="0" type="line"/>
      <point x="93" y="0" type="line"/>
      <point x="248" y="729" type="line"/>
      <point x="584" y="729" type="line" smooth="yes"/>
      <point x="712" y="729"/>
      <point x="770" y="681"/>
      <point x="770" y="575" type="curve" smooth="yes"/>
      <point x="770" y="513"/>
      <point x="743" y="446"/>
      <point x="703" y="409" type="curve" smooth="yes"/>
      <point x="685" y="393"/>
      <point x="669" y="382"/>
      <point x="630" y="360" type="curve"/>
      <point x="677" y="329"/>
      <point x="690" y="308"/>
      <point x="690" y="264" type="curve" smooth="yes"/>
      <point x="690" y="246"/>
      <point x="682" y="194"/>
      <point x="669" y="126" type="curve" smooth="yes"/>
      <point x="665" y="105"/>
      <point x="663" y="88"/>
      <point x="663" y="76" type="curve" smooth="yes"/>
      <point x="663" y="54"/>
      <point x="671" y="35"/>
      <point x="684" y="23" type="curve"/>
      <point x="679" y="0" type="line"/>
      <point x="566" y="0" type="line"/>
      <point x="563" y="21"/>
      <point x="562" y="32"/>
      <point x="562" y="47" type="curve" smooth="yes"/>
      <point x="562" y="79"/>
      <point x="562" y="79"/>
      <point x="586" y="179" type="curve" smooth="yes"/>
      <point x="591" y="201"/>
      <point x="594" y="222"/>
      <point x="594" y="239" type="curve" smooth="yes"/>
      <point x="594" y="288"/>
      <point x="558" y="314"/>
      <point x="493" y="314" type="curve" smooth="yes"/>
    </contour>
    <contour>
      <point x="271" y="396" type="line"/>
      <point x="502" y="396" type="line" smooth="yes"/>
      <point x="566" y="396"/>
      <point x="608" y="413"/>
      <point x="637" y="449" type="curve" smooth="yes"/>
      <point x="659" y="477"/>
      <point x="674" y="521"/>
      <point x="674" y="558" type="curve" smooth="yes"/>
      <point x="674" y="582"/>
      <point x="666" y="605"/>
      <point x="653" y="619" type="curve" smooth="yes"/>
      <point x="634" y="640"/>
      <point x="608" y="647"/>
      <point x="555" y="647" type="curve" smooth="yes"/>
      <point x="325" y="647" type="line"/>
    </contour>
  </outline>
</glyph>
<glyph name="T" format="1">
  <advance width="611"/>
  <unicode hex="0054"/>
  <outline>
    <contour>
      <point x="493" y="647" type="line"/>
      <point x="355" y="0" type="line"/>
      <point x="261" y="0" type="line"/>
      <point x="399" y="647" type="line"/>
      <point x="158" y="647" type="line"/>
      <point x="175" y="729" type="line"/>
      <point x="748" y="729" type="line"/>
      <point x="731" y="647" type="line"/>
    </contour>
  </outline>
</glyph>
<glyph name="V" format="1">
  <advance width="667"/>
  <unicode hex="0056"/>
  <outline>
    <contour>
      <point x="392" y="0" type="line"/>
      <point x="292" y="0" type="line"/>
      <point x="185" y="729" type="line"/>
      <point x="282" y="729" type="line"/>
      <point x="365" y="112" type="line"/>
      <point x="701" y="729" type="line"/>
      <point x="800" y="729" type="line"/>
    </contour>
  </outline>
</glyph>
<glyph name="X" format="1">
  <advance width="667"/>
  <unicode hex="0058"/>
  <outline>
    <contour>
      <point x="471" y="374" type="line"/>
      <point x="650" y="0" type="line"/>
      <point x="535" y="0" type="line"/>
      <point x="401" y="304" type="line"/>
      <point x="137" y="0" type="line"/>
      <point x="22" y="0" type="line"/>
      <point x="361" y="374" type="line"/>
      <point x="194" y="729" type="line"/>
      <point x="307" y="729" type="line"/>
      <point x="432" y="444" type="line"/>
      <point x="680" y="729" type="line"/>
      <point x="794" y="729" type="line"/>
    </contour>
  </outline>
</glyph>
<glyph name="Z" format="1">
  <advance width="611"/>
  <unicode hex="005A"/>
  <outline>
    <contour>
      <point x="737" y="729" type="line"/>
      <point x="719" y="645" type="line"/>
      <point x="163" y="82" type="line"/>
      <point x="601" y="82" type="line"/>
      <point x="584" y="0" type="line"/>
      <point x="28" y="0" type="line"/>
      <point x="46" y="84" type="line"/>
      <point x="601" y="647" type="line"/>
      <point x="195" y="647" type="line"/>
      <point x="212" y="729" type="line"/>
    </contour>
  </outline>
</glyph>
<glyph name="bracketleft" format="1">
  <advance width="278"/>
  <unicode hex="005B"/>
  <outline>
    <contour>
      <point x="405" y="729" type="line"/>
      <point x="390" y="657" type="line"/>
      <point x="288" y="657" type="line"/>
      <point x="118" y="-141" type="line"/>
      <point x="220" y="-141" type="line"/>
      <point x="205" y="-213" type="line"/>
      <point x="19" y="-213" type="line"/>
      <point x="219" y="729" type="line"/>
    </contour>
  </outline>
</glyph>
<glyph name="backslash" format="1">
  <advance width="278"/>
  <unicode hex="005C"/>
  <outline>
    <contour>
      <point x="147" y="729" type="line"/>
      <point x="202" y="729" type="line"/>
      <point x="280" y="-20" type="line"/>
      <point x="225" y="-20" type="line"/>
    </contour>
  </outline>
</glyph>
<glyph name="bracketright" format="1">
  <advance width="278"/>
  <unicode hex="005D"/>
  <outline>
    <contour>
      <point x="-23" y="-213" type="line"/>
      <point x="-8" y="-141" type="line"/>
      <point x="95" y="-141" type="line"/>
      <point x="265" y="657" type="line"/>
      <point x="162" y="657" type="line"/>
      <point x="177" y="729" type="line"/>
      <point x="364" y="729" type="line"/>
      <point x="164" y="-213" type="line"/>
    </contour>
  </outline>
</glyph>
<glyph name="underscore" format="1">
  <advance width="556"/>
  <unicode hex="005F"/>
  <outline>
    <contour>
      <point x="551" y="-126" type="line"/>
      <point x="540" y="-176" type="line"/>
      <point x="-59" y="-176" type="line"/>
      <point x="-48" y="-126" type="line"/>
    </contour>
  </outline>
</glyph>
<glyph name="f" format="1">
  <advance width="278"/>
  <unicode hex="0066"/>
  <outline>
    <contour>
      <point x="370" y="524" type="line"/>
      <point x="356" y="457" type="line"/>
      <point x="270" y="457" type="line"/>
      <point x="173" y="0" type="line"/>
      <point x="89" y="0" type="line"/>
      <point x="186" y="457" type="line"/>
      <point x="116" y="457" type="line"/>
      <point x="130" y="524" type="line"/>
      <point x="200" y="524" type="line"/>
      <point x="219" y="613" type="line" smooth="yes"/>
      <point x="235" y="687"/>
      <point x="291" y="732"/>
      <point x="368" y="732" type="curve" smooth="yes"/>
      <point x="384" y="732"/>
      <point x="395" y="731"/>
      <point x="413" y="727" type="curve"/>
      <point x="398" y="658" type="line"/>
      <point x="384" y="660"/>
      <point x="378" y="660"/>
      <point x="371" y="660" type="curve" smooth="yes"/>
      <point x="328" y="660"/>
      <point x="310" y="643"/>
      <point x="299" y="593" type="curve" smooth="yes"/>
      <point x="284" y="524" type="line"/>
    </contour>
  </outline>
</glyph>
<glyph name="i" format="1">
  <advance width="222"/>
  <unicode hex="0069"/>
  <outline>
    <contour>
      <point x="261" y="524" type="line"/>
      <point x="150" y="0" type="line"/>
      <point x="66" y="0" type="line"/>
      <point x="177" y="524" type="line"/>
    </contour>
    <contour>
      <point x="305" y="729" type="line"/>
      <point x="283" y="626" type="line"/>
      <point x="199" y="626" type="line"/>
      <point x="221" y="729" type="line"/>
    </contour>
  </outline>
</glyph>
<glyph name="k" format="1">
  <advance width="500"/>
  <unicode hex="006B"/>
  <outline>
    <contour>
      <point x="297" y="729" type="line"/>
      <point x="207" y="306" type="line"/>
      <point x="476" y="524" type="line"/>
      <point x="584" y="524" type="line"/>
      <point x="362" y="343" type="line"/>
      <point x="502" y="0" type="line"/>
      <point x="406" y="0" type="line"/>
      <point x="292" y="291" type="line"/>
      <point x="185" y="203" type="line"/>
      <point x="142" y="0" type="line"/>
      <point x="58" y="0" type="line"/>
      <point x="213" y="729" type="line"/>
    </contour>
  </outline>
</glyph>
<glyph name="m" format="1">
  <advance width="833"/>
  <unicode hex="006D"/>
  <outline>
    <contour>
      <point x="182" y="524" type="line"/>
      <point x="258" y="524" type="line"/>
      <point x="245" y="459" type="line"/>
      <point x="309" y="519"/>
      <point x="355" y="539"/>
      <point x="423" y="539" type="curve" smooth="yes"/>
      <point x="489" y="539"/>
      <point x="528" y="512"/>
      <point x="544" y="456" type="curve"/>
      <point x="603" y="513"/>
      <point x="660" y="539"/>
      <point x="725" y="539" type="curve" smooth="yes"/>
      <point x="771" y="539"/>
      <point x="798" y="529"/>
      <point x="820" y="505" type="curve" smooth="yes"/>
      <point x="840" y="482"/>
      <point x="852" y="454"/>
      <point x="852" y="428" type="curve" smooth="yes"/>
      <point x="852" y="417"/>
      <point x="849" y="384"/>
      <point x="846" y="373" type="curve" smooth="yes"/>
      <point x="767" y="0" type="line"/>
      <point x="683" y="0" type="line"/>
      <point x="755" y="341" type="line"/>
      <point x="764" y="375"/>
      <point x="764" y="375"/>
      <point x="764" y="390" type="curve" smooth="yes"/>
      <point x="764" y="438"/>
      <point x="735" y="467"/>
      <point x="688" y="467" type="curve" smooth="yes"/>
      <point x="616" y="467"/>
      <point x="547" y="407"/>
      <point x="531" y="329" type="curve" smooth="yes"/>
      <point x="461" y="0" type="line"/>
      <point x="377" y="0" type="line"/>
      <point x="454" y="361" type="line" smooth="yes"/>
      <point x="457" y="374"/>
      <point x="458" y="387"/>
      <point x="458" y="398" type="curve" smooth="yes"/>
      <point x="458" y="439"/>
      <point x="425" y="467"/>
      <point x="376" y="467" type="curve" smooth="yes"/>
      <point x="309" y="467"/>
      <point x="241" y="405"/>
      <point x="225" y="329" type="curve" smooth="yes"/>
      <point x="155" y="0" type="line"/>
      <point x="71" y="0" type="line"/>
    </contour>
  </outline>
</glyph>
<glyph name="q" format="1">
  <advance width="556"/>
  <unicode hex="0071"/>
  <outline>
    <contour>
      <point x="450" y="-213" type="line"/>
      <point x="366" y="-213" type="line"/>
      <point x="425" y="62" type="line"/>
      <point x="391" y="28"/>
      <point x="379" y="17"/>
      <point x="363" y="7" type="curve" smooth="yes"/>
      <point x="334" y="-11"/>
      <point x="288" y="-23"/>
      <point x="248" y="-23" type="curve" smooth="yes"/>
      <point x="147" y="-23"/>
      <point x="71" y="61"/>
      <point x="71" y="173" type="curve" smooth="yes"/>
      <point x="71" y="276"/>
      <point x="115" y="390"/>
      <point x="182" y="461" type="curve" smooth="yes"/>
      <point x="227" y="509"/>
      <point x="298" y="539"/>
      <point x="366" y="539" type="curve" smooth="yes"/>
      <point x="439" y="539"/>
      <point x="490" y="503"/>
      <point x="513" y="438" type="curve"/>
      <point x="532" y="524" type="line"/>
      <point x="607" y="524" type="line"/>
    </contour>
    <contour>
      <point x="364" y="462" type="curve" smooth="yes"/>
      <point x="300" y="462"/>
      <point x="244" y="427"/>
      <point x="205" y="361" type="curve" smooth="yes"/>
      <point x="178" y="316"/>
      <point x="159" y="244"/>
      <point x="159" y="186" type="curve" smooth="yes"/>
      <point x="159" y="106"/>
      <point x="205" y="54"/>
      <point x="276" y="54" type="curve" smooth="yes"/>
      <point x="336" y="54"/>
      <point x="388" y="89"/>
      <point x="428" y="155" type="curve" smooth="yes"/>
      <point x="456" y="203"/>
      <point x="474" y="271"/>
      <point x="474" y="333" type="curve" smooth="yes"/>
      <point x="474" y="412"/>
      <point x="431" y="462"/>
    </contour>
  </outline>
</glyph>
<glyph name="t" format="1">
  <advance width="278"/>
  <unicode hex="0074"/>
  <outline>
    <contour>
      <point x="366" y="524" type="line"/>
      <point x="352" y="457" type="line"/>
      <point x="263" y="457" type="line"/>
      <point x="185" y="90" type="line" smooth="yes"/>
      <point x="184" y="84"/>
      <point x="183" y="79"/>
      <point x="183" y="76" type="curve" smooth="yes"/>
      <point x="183" y="60"/>
      <point x="197" y="49"/>
      <point x="219" y="49" type="curve" smooth="yes"/>
      <point x="231" y="49"/>
      <point x="236" y="50"/>
      <point x="267" y="57" type="curve"/>
      <point x="251" y="-16" type="line"/>
      <point x="237" y="-20"/>
      <point x="206" y="-23"/>
      <point x="186" y="-23" type="curve" smooth="yes"/>
      <point x="131" y="-23"/>
      <point x="97" y="7"/>
      <point x="97" y="56" type="curve" smooth="yes"/>
      <point x="97" y="66"/>
      <point x="98" y="77"/>
      <point x="100" y="87" type="curve" smooth="yes"/>
      <point x="179" y="457" type="line"/>
      <point x="108" y="457" type="line"/>
      <point x="122" y="524" type="line"/>
      <point x="193" y="524" type="line"/>
      <point x="224" y="668" type="line"/>
      <point x="308" y="668" type="line"/>
      <point x="277" y="524" type="line"/>
    </contour>
  </outline>
</glyph>
<glyph name="v" format="1">
  <advance width="500"/>
  <unicode hex="0076"/>
  <outline>
    <contour>
      <point x="287" y="0" type="line"/>
      <point x="196" y="0" type="line"/>
      <point x="122" y="524" type="line"/>
      <point x="214" y="524" type="line"/>
      <point x="263" y="102" type="line"/>
      <point x="507" y="524" type="line"/>
      <point x="598" y="524" type="line"/>
    </contour>
  </outline>
</glyph>
<glyph name="w" format="1">
  <advance width="722"/>
  <unicode hex="0077"/>
  <outline>
    <contour>
      <point x="556" y="0" type="line"/>
      <point x="461" y="0" type="line"/>
      <point x="449" y="418" type="line"/>
      <point x="254" y="0" type="line"/>
      <point x="158" y="0" type="line"/>
      <point x="118" y="524" type="line"/>
      <point x="209" y="524" type="line"/>
      <point x="228" y="116" type="line"/>
      <point x="417" y="524" type="line"/>
      <point x="522" y="524" type="line"/>
      <point x="533" y="116" type="line"/>
      <point x="729" y="524" type="line"/>
      <point x="820" y="524" type="line"/>
    </contour>
  </outline>
</glyph>
<glyph name="x" format="1">
  <advance width="500"/>
  <unicode hex="0078"/>
  <outline>
    <contour>
      <point x="350" y="267" type="line"/>
      <point x="473" y="0" type="line"/>
      <point x="379" y="0" type="line"/>
      <point x="289" y="200" type="line"/>
      <point x="115" y="0" type="line"/>
      <point x="17" y="0" type="line"/>
      <point x="256" y="267" type="line"/>
      <point x="138" y="524" type="line"/>
      <point x="231" y="524" type="line"/>
      <point x="319" y="332" type="line"/>
      <point x="486" y="524" type="line"/>
      <point x="583" y="524" type="line"/>
    </contour>
  </outline>
</glyph>
<glyph name="z" format="1">
  <advance width="500"/>
  <unicode hex="007A"/>
  <outline>
    <contour>
      <point x="557" y="524" type="line"/>
      <point x="539" y="449" type="line"/>
      <point x="147" y="72" type="line"/>
      <point x="473" y="72" type="line"/>
      <point x="458" y="0" type="line"/>
      <point x="31" y="0" type="line"/>
      <point x="49" y="74" type="line"/>
      <point x="444" y="452" type="line"/>
      <point x="150" y="452" type="line"/>
      <point x="165" y="524" type="line"/>
    </contour>
  </outline>
</glyph>
<glyph name="braceleft" format="1">
  <advance width="334"/>
  <unicode hex="007B"/>
  <outline>
    <contour>
      <point x="431" y="729" type="line"/>
      <point x="417" y="664" type="line"/>
      <point x="401" y="664" type="line" smooth="yes"/>
      <point x="351" y="664"/>
      <point x="334" y="649"/>
      <point x="323" y="597" type="curve" smooth="yes"/>
      <point x="284" y="416" type="line"/>
      <point x="270" y="345"/>
      <point x="232" y="290"/>
      <point x="176" y="259" type="curve"/>
      <point x="213" y="235"/>
      <point x="224" y="213"/>
      <point x="224" y="162" type="curve" smooth="yes"/>
      <point x="224" y="140"/>
      <point x="222" y="120"/>
      <point x="218" y="101" type="curve" smooth="yes"/>
      <point x="179" y="-80" type="line" smooth="yes"/>
      <point x="176" y="-92"/>
      <point x="175" y="-103"/>
      <point x="175" y="-113" type="curve" smooth="yes"/>
      <point x="175" y="-137"/>
      <point x="191" y="-147"/>
      <point x="229" y="-147" type="curve" smooth="yes"/>
      <point x="245" y="-147" type="line"/>
      <point x="231" y="-213" type="line"/>
      <point x="184" y="-213" type="line" smooth="yes"/>
      <point x="130" y="-213"/>
      <point x="98" y="-184"/>
      <point x="98" y="-134" type="curve" smooth="yes"/>
      <point x="98" y="-118"/>
      <point x="100" y="-98"/>
      <point x="104" y="-80" type="curve" smooth="yes"/>
      <point x="139" y="86" type="line" smooth="yes"/>
      <point x="145" y="113"/>
      <point x="148" y="137"/>
      <point x="148" y="153" type="curve" smooth="yes"/>
      <point x="148" y="193"/>
      <point x="128" y="218"/>
      <point x="91" y="224" type="curve"/>
      <point x="106" y="293" type="line"/>
      <point x="164" y="303"/>
      <point x="194" y="342"/>
      <point x="212" y="431" type="curve"/>
      <point x="248" y="597" type="line" smooth="yes"/>
      <point x="258" y="641"/>
      <point x="268" y="663"/>
      <point x="290" y="687" type="curve" smooth="yes"/>
      <point x="316" y="715"/>
      <point x="348" y="729"/>
      <point x="384" y="729" type="curve" smooth="yes"/>
    </contour>
  </outline>
</glyph>
<glyph name="bar" format="1">
  <advance width="260"/>
  <unicode hex="007C"/>
  <outline>
    <contour>
      <point x="255" y="729" type="line"/>
      <point x="315" y="729" type="line"/>
      <point x="114" y="-212" type="line"/>
      <point x="54" y="-212" type="line"/>
    </contour>
  </outline>
</glyph>
<glyph name="braceright" format="1">
  <advance width="334"/>
  <unicode hex="007D"/>
  <outline>
    <contour>
      <point x="-16" y="-213" type="line"/>
      <point x="-2" y="-148" type="line"/>
      <point x="14" y="-148" type="line" smooth="yes"/>
      <point x="64" y="-148"/>
      <point x="81" y="-133"/>
      <point x="92" y="-81" type="curve" smooth="yes"/>
      <point x="131" y="100" type="line"/>
      <point x="148" y="190"/>
      <point x="173" y="226"/>
      <point x="239" y="257" type="curve"/>
      <point x="206" y="286"/>
      <point x="191" y="319"/>
      <point x="191" y="362" type="curve" smooth="yes"/>
      <point x="191" y="379"/>
      <point x="193" y="397"/>
      <point x="197" y="416" type="curve" smooth="yes"/>
      <point x="236" y="597" type="line" smooth="yes"/>
      <point x="239" y="609"/>
      <point x="240" y="620"/>
      <point x="240" y="630" type="curve" smooth="yes"/>
      <point x="240" y="654"/>
      <point x="224" y="664"/>
      <point x="186" y="664" type="curve" smooth="yes"/>
      <point x="170" y="664" type="line"/>
      <point x="184" y="729" type="line"/>
      <point x="231" y="729" type="line" smooth="yes"/>
      <point x="282" y="729"/>
      <point x="317" y="696"/>
      <point x="317" y="647" type="curve" smooth="yes"/>
      <point x="317" y="633"/>
      <point x="315" y="616"/>
      <point x="311" y="597" type="curve" smooth="yes"/>
      <point x="276" y="431" type="line" smooth="yes"/>
      <point x="270" y="401"/>
      <point x="267" y="379"/>
      <point x="267" y="359" type="curve" smooth="yes"/>
      <point x="267" y="322"/>
      <point x="287" y="299"/>
      <point x="324" y="293" type="curve"/>
      <point x="309" y="223" type="line"/>
      <point x="251" y="214"/>
      <point x="217" y="169"/>
      <point x="203" y="85" type="curve"/>
      <point x="167" y="-81" type="line" smooth="yes"/>
      <point x="158" y="-123"/>
      <point x="147" y="-148"/>
      <point x="127" y="-171" type="curve" smooth="yes"/>
      <point x="100" y="-203"/>
      <point x="76" y="-213"/>
      <point x="31" y="-213" type="curve" smooth="yes"/>
    </contour>
  </outline>
</glyph>
<glyph name="asciitilde" format="1">
  <advance width="584"/>
  <unicode hex="007E"/>
  <outline>
    <contour>
      <point x="542" y="411" type="curve"/>
      <point x="594" y="411" type="line"/>
      <point x="587" y="370"/>
      <point x="578" y="347"/>
      <point x="560" y="323" type="curve" smooth="yes"/>
      <point x="535" y="289"/>
      <point x="496" y="268"/>
      <point x="458" y="268" type="curve" smooth="yes"/>
      <point x="434" y="268"/>
      <point x="406" y="278"/>
      <point x="384" y="294" type="curve" smooth="yes"/>
      <point x="299" y="357" type="line" smooth="yes"/>
      <point x="288" y="365"/>
      <point x="270" y="372"/>
      <point x="260" y="372" type="curve" smooth="yes"/>
      <point x="229" y="372"/>
      <point x="205" y="345"/>
      <point x="189" y="293" type="curve"/>
      <point x="137" y="293" type="line"/>
      <point x="162" y="387"/>
      <point x="211" y="438"/>
      <point x="275" y="438" type="curve" smooth="yes"/>
      <point x="293" y="438"/>
      <point x="311" y="432"/>
      <point x="326" y="422" type="curve" smooth="yes"/>
      <point x="428" y="353" type="line" smooth="yes"/>
      <point x="446" y="341"/>
      <point x="460" y="336"/>
      <point x="475" y="336" type="curve" smooth="yes"/>
      <point x="510" y="336"/>
      <point x="531" y="360"/>
    </contour>
  </outline>
</glyph>
<glyph name="exclamdown" format="1">
  <advance width="333"/>
  <unicode hex="00A1"/>
  <outline>
    <contour>
      <point x="76" y="-205" type="line"/>
      <point x="150" y="145" type="line"/>
      <point x="217" y="356" type="line"/>
      <point x="257" y="356" type="line"/>
      <point x="234" y="145" type="line"/>
      <point x="160" y="-205" type="line"/>
    </contour>
    <contour>
      <point x="211" y="421" type="line"/>
      <point x="233" y="524" type="line"/>
      <point x="317" y="524" type="line"/>
      <point x="295" y="421" type="line"/>
    </contour>
  </outline>
</glyph>
<glyph name="cent" format="1">
  <advance width="556"/>
  <unicode hex="00A2"/>
  <outline>
    <contour>
      <point x="407" y="463" type="line"/>
      <point x="320" y="53" type="line"/>
      <point x="391" y="61"/>
      <point x="434" y="98"/>
      <point x="465" y="180" type="curve"/>
      <point x="549" y="180" type="line"/>
      <point x="514" y="49"/>
      <point x="438" y="-15"/>
      <point x="304" y="-23" type="curve"/>
      <point x="283" y="-120" type="line"/>
      <point x="243" y="-120" type="line"/>
      <point x="264" y="-22" type="line"/>
      <point x="161" y="-11"/>
      <point x="96" y="64"/>
      <point x="96" y="171" type="curve" smooth="yes"/>
      <point x="96" y="286"/>
      <point x="142" y="402"/>
      <point x="214" y="467" type="curve" smooth="yes"/>
      <point x="262" y="510"/>
      <point x="312" y="531"/>
      <point x="383" y="538" type="curve"/>
      <point x="402" y="628" type="line"/>
      <point x="442" y="628" type="line"/>
      <point x="423" y="538" type="line"/>
      <point x="448" y="538"/>
      <point x="465" y="535"/>
      <point x="485" y="528" type="curve" smooth="yes"/>
      <point x="542" y="507"/>
      <point x="585" y="448"/>
      <point x="585" y="392" type="curve" smooth="yes"/>
      <point x="585" y="389"/>
      <point x="584" y="378"/>
      <point x="583" y="363" type="curve" smooth="yes"/>
      <point x="582" y="348" type="line"/>
      <point x="498" y="348" type="line"/>
      <point x="499" y="357"/>
      <point x="499" y="365"/>
      <point x="499" y="371" type="curve" smooth="yes"/>
      <point x="499" y="422"/>
      <point x="472" y="452"/>
      <point x="419" y="461" type="curve" smooth="yes"/>
    </contour>
    <contour>
      <point x="281" y="56" type="curve"/>
      <point x="366" y="460" type="line"/>
      <point x="328" y="453"/>
      <point x="302" y="440"/>
      <point x="276" y="415" type="curve" smooth="yes"/>
      <point x="221" y="362"/>
      <point x="184" y="269"/>
      <point x="184" y="183" type="curve" smooth="yes"/>
      <point x="184" y="113"/>
      <point x="221" y="64"/>
    </contour>
  </outline>
</glyph>
<glyph name="sterling" format="1">
  <advance width="556"/>
  <unicode hex="00A3"/>
  <outline>
    <contour>
      <point x="447" y="376" type="line"/>
      <point x="435" y="321" type="line"/>
      <point x="298" y="321" type="line"/>
      <point x="299" y="310" type="line" smooth="yes"/>
      <point x="300" y="297"/>
      <point x="301" y="287"/>
      <point x="301" y="283" type="curve" smooth="yes"/>
      <point x="301" y="264"/>
      <point x="294" y="234"/>
      <point x="283" y="210" type="curve" smooth="yes"/>
      <point x="261" y="161"/>
      <point x="242" y="140"/>
      <point x="169" y="86" type="curve" smooth="yes"/>
      <point x="163" y="81"/>
      <point x="153" y="74"/>
      <point x="136" y="61" type="curve"/>
      <point x="192" y="89"/>
      <point x="230" y="100"/>
      <point x="269" y="100" type="curve" smooth="yes"/>
      <point x="291" y="100"/>
      <point x="299" y="99"/>
      <point x="322" y="91" type="curve" smooth="yes"/>
      <point x="367" y="76"/>
      <point x="397" y="70"/>
      <point x="424" y="70" type="curve" smooth="yes"/>
      <point x="455" y="70"/>
      <point x="476" y="77"/>
      <point x="518" y="101" type="curve"/>
      <point x="543" y="31" type="line"/>
      <point x="500" y="-4"/>
      <point x="449" y="-23"/>
      <point x="401" y="-23" type="curve" smooth="yes"/>
      <point x="365" y="-23"/>
      <point x="329" y="-14"/>
      <point x="262" y="12" type="curve" smooth="yes"/>
      <point x="242" y="19"/>
      <point x="222" y="23"/>
      <point x="199" y="23" type="curve" smooth="yes"/>
      <point x="162" y="23"/>
      <point x="127" y="12"/>
      <point x="81" y="-14" type="curve"/>
      <point x="44" y="52" type="line"/>
      <point x="161" y="129"/>
      <point x="218" y="200"/>
      <point x="218" y="271" type="curve" smooth="yes"/>
      <point x="218" y="286"/>
      <point x="217" y="292"/>
      <point x="208" y="321" type="curve"/>
      <point x="95" y="321" type="line"/>
      <point x="107" y="376" type="line"/>
      <point x="190" y="376" type="line"/>
      <point x="188" y="382"/>
      <point x="185" y="390"/>
      <point x="181" y="398" type="curve" smooth="yes"/>
      <point x="164" y="438"/>
      <point x="160" y="455"/>
      <point x="160" y="480" type="curve" smooth="yes"/>
      <point x="160" y="610"/>
      <point x="295" y="729"/>
      <point x="442" y="729" type="curve" smooth="yes"/>
      <point x="553" y="729"/>
      <point x="628" y="669"/>
      <point x="628" y="579" type="curve" smooth="yes"/>
      <point x="628" y="557"/>
      <point x="626" y="539"/>
      <point x="619" y="497" type="curve"/>
      <point x="531" y="497" type="line"/>
      <point x="538" y="523"/>
      <point x="540" y="536"/>
      <point x="540" y="554" type="curve" smooth="yes"/>
      <point x="540" y="614"/>
      <point x="495" y="652"/>
      <point x="424" y="652" type="curve" smooth="yes"/>
      <point x="329" y="652"/>
      <point x="256" y="582"/>
      <point x="256" y="492" type="curve" smooth="yes"/>
      <point x="256" y="466"/>
      <point x="256" y="466"/>
      <point x="278" y="404" type="curve" smooth="yes"/>
      <point x="279" y="403"/>
      <point x="283" y="389"/>
      <point x="287" y="376" type="curve"/>
    </contour>
  </outline>
</glyph>
<glyph name="currency" format="1">
  <advance width="556"/>
  <unicode hex="00A4"/>
  <outline>
    <contour>
      <point x="526" y="191" type="line"/>
      <point x="456" y="137" type="line"/>
      <point x="414" y="190" type="line"/>
      <point x="386" y="171"/>
      <point x="348" y="160"/>
      <point x="309" y="160" type="curve" smooth="yes"/>
      <point x="270" y="160"/>
      <point x="238" y="169"/>
      <point x="219" y="185" type="curve"/>
      <point x="154" y="133" type="line"/>
      <point x="110" y="191" type="line"/>
      <point x="170" y="240" type="line"/>
      <point x="161" y="257"/>
      <point x="156" y="281"/>
      <point x="156" y="305" type="curve" smooth="yes"/>
      <point x="156" y="328"/>
      <point x="161" y="354"/>
      <point x="171" y="378" type="curve" smooth="yes"/>
      <point x="180" y="400"/>
      <point x="180" y="400"/>
      <point x="211" y="441" type="curve" smooth="yes"/>
      <point x="214" y="445" type="line"/>
      <point x="172" y="500" type="line"/>
      <point x="238" y="556" type="line"/>
      <point x="283" y="498" type="line"/>
      <point x="310" y="514"/>
      <point x="351" y="525"/>
      <point x="385" y="525" type="curve" smooth="yes"/>
      <point x="422" y="525"/>
      <point x="458" y="514"/>
      <point x="478" y="496" type="curve"/>
      <point x="546" y="552" type="line"/>
      <point x="593" y="494" type="line"/>
      <point x="524" y="438" type="line"/>
      <point x="533" y="422"/>
      <point x="537" y="406"/>
      <point x="537" y="381" type="curve" smooth="yes"/>
      <point x="537" y="334"/>
      <point x="513" y="274"/>
      <point x="483" y="245" type="curve"/>
    </contour>
    <contour>
      <point x="369" y="448" type="curve" smooth="yes"/>
      <point x="300" y="448"/>
      <point x="235" y="388"/>
      <point x="235" y="323" type="curve" smooth="yes"/>
      <point x="235" y="274"/>
      <point x="274" y="237"/>
      <point x="325" y="237" type="curve" smooth="yes"/>
      <point x="394" y="237"/>
      <point x="458" y="299"/>
      <point x="458" y="364" type="curve" smooth="yes"/>
      <point x="458" y="411"/>
      <point x="419" y="448"/>
    </contour>
  </outline>
</glyph>
<glyph name="yen" format="1">
  <advance width="556"/>
  <unicode hex="00A5"/>
  <outline>
    <contour>
      <point x="573" y="354" type="line"/>
      <point x="562" y="303" type="line"/>
      <point x="390" y="303" type="line"/>
      <point x="373" y="226" type="line"/>
      <point x="545" y="226" type="line"/>
      <point x="535" y="175" type="line"/>
      <point x="362" y="175" type="line"/>
      <point x="325" y="0" type="line"/>
      <point x="237" y="0" type="line"/>
      <point x="274" y="175" type="line"/>
      <point x="100" y="175" type="line"/>
      <point x="111" y="226" type="line"/>
      <point x="285" y="226" type="line"/>
      <point x="302" y="303" type="line"/>
      <point x="127" y="303" type="line"/>
      <point x="138" y="354" type="line"/>
      <point x="292" y="354" type="line"/>
      <point x="162" y="709" type="line"/>
      <point x="247" y="709" type="line"/>
      <point x="363" y="387" type="line"/>
      <point x="611" y="709" type="line"/>
      <point x="696" y="709" type="line"/>
      <point x="419" y="354" type="line"/>
    </contour>
  </outline>
</glyph>
<glyph name="dieresis" format="1">
  <advance width="333"/>
  <unicode hex="00A8"/>
  <outline>
    <contour>
      <point x="285" y="715" type="line"/>
      <point x="263" y="612" type="line"/>
      <point x="159" y="612" type="line"/>
      <point x="181" y="715" type="line"/>
    </contour>
    <contour>
      <point x="446" y="715" type="line"/>
      <point x="424" y="612" type="line"/>
      <point x="320" y="612" type="line"/>
      <point x="342" y="715" type="line"/>
    </contour>
  </outline>
</glyph>
<glyph name="copyright" format="1">
  <advance width="737"/>
  <unicode hex="00A9"/>
  <outline>
    <contour>
      <point x="637" y="437" type="curve"/>
      <point x="566" y="437" type="line"/>
      <point x="563" y="503"/>
      <point x="540" y="530"/>
      <point x="488" y="530" type="curve" smooth="yes"/>
      <point x="440" y="530"/>
      <point x="398" y="504"/>
      <point x="366" y="456" type="curve" smooth="yes"/>
      <point x="338" y="413"/>
      <point x="321" y="354"/>
      <point x="321" y="301" type="curve" smooth="yes"/>
      <point x="321" y="234"/>
      <point x="359" y="188"/>
      <point x="416" y="188" type="curve" smooth="yes"/>
      <point x="471" y="188"/>
      <point x="517" y="231"/>
      <point x="547" y="312" type="curve"/>
      <point x="618" y="312" type="line"/>
      <point x="594" y="251"/>
      <point x="578" y="224"/>
      <point x="552" y="196" type="curve" smooth="yes"/>
      <point x="509" y="149"/>
      <point x="459" y="126"/>
      <point x="400" y="126" type="curve" smooth="yes"/>
      <point x="306" y="126"/>
      <point x="249" y="189"/>
      <point x="249" y="292" type="curve" smooth="yes"/>
      <point x="249" y="367"/>
      <point x="278" y="448"/>
      <point x="326" y="506" type="curve"/>
      <point x="374" y="562"/>
      <point x="435" y="592"/>
      <point x="503" y="592" type="curve" smooth="yes"/>
      <point x="593" y="592"/>
      <point x="635" y="543"/>
    </contour>
    <contour>
      <point x="530" y="742" type="curve" smooth="yes"/>
      <point x="707" y="742"/>
      <point x="836" y="614"/>
      <point x="836" y="440" type="curve" smooth="yes"/>
      <point x="836" y="200"/>
      <point x="607" y="-22"/>
      <point x="361" y="-22" type="curve" smooth="yes"/>
      <point x="184" y="-22"/>
      <point x="55" y="106"/>
      <point x="55" y="281" type="curve" smooth="yes"/>
      <point x="55" y="520"/>
      <point x="284" y="742"/>
    </contour>
    <contour>
      <point x="516" y="680" type="curve" smooth="yes"/>
      <point x="314" y="680"/>
      <point x="125" y="493"/>
      <point x="125" y="293" type="curve" smooth="yes"/>
      <point x="125" y="147"/>
      <point x="231" y="40"/>
      <point x="375" y="40" type="curve" smooth="yes"/>
      <point x="577" y="40"/>
      <point x="766" y="227"/>
      <point x="766" y="428" type="curve" smooth="yes"/>
      <point x="766" y="573"/>
      <point x="660" y="680"/>
    </contour>
  </outline>
</glyph>
<glyph name="macron" format="1">
  <advance width="333"/>
  <unicode hex="00AF"/>
  <outline>
    <contour>
      <point x="450" y="696" type="line"/>
      <point x="435" y="627" type="line"/>
      <point x="160" y="627" type="line"/>
      <point x="175" y="696" type="line"/>
    </contour>
  </outline>
</glyph>
<glyph name="plusminus" format="1">
  <advance width="584"/>
  <unicode hex="00B1"/>
  <outline>
    <contour>
      <point x="625" y="429" type="line"/>
      <point x="610" y="357" type="line"/>
      <point x="403" y="357" type="line"/>
      <point x="359" y="149" type="line"/>
      <point x="288" y="149" type="line"/>
      <point x="333" y="357" type="line"/>
      <point x="126" y="357" type="line"/>
      <point x="141" y="429" type="line"/>
      <point x="348" y="429" type="line"/>
      <point x="391" y="633" type="line"/>
      <point x="462" y="633" type="line"/>
      <point x="418" y="429" type="line"/>
    </contour>
    <contour>
      <point x="549" y="72" type="line"/>
      <point x="534" y="0" type="line"/>
      <point x="50" y="0" type="line"/>
      <point x="65" y="72" type="line"/>
    </contour>
  </outline>
</glyph>
<glyph name="twosuperior" format="1">
  <advance width="390"/>
  <unicode hex="00B2"/>
  <outline>
    <contour>
      <point x="412" y="344" type="line"/>
      <point x="400" y="284" type="line"/>
      <point x="100" y="284" type="line"/>
      <point x="128" y="385"/>
      <point x="155" y="416"/>
      <point x="265" y="472" type="curve"/>
      <point x="328" y="503" type="line"/>
      <point x="375" y="525"/>
      <point x="403" y="559"/>
      <point x="403" y="594" type="curve" smooth="yes"/>
      <point x="403" y="630"/>
      <point x="376" y="654"/>
      <point x="335" y="654" type="curve" smooth="yes"/>
      <point x="279" y="654"/>
      <point x="247" y="624"/>
      <point x="230" y="555" type="curve"/>
      <point x="167" y="555" type="line"/>
      <point x="191" y="662"/>
      <point x="246" y="709"/>
      <point x="345" y="709" type="curve" smooth="yes"/>
      <point x="420" y="709"/>
      <point x="468" y="668"/>
      <point x="468" y="603" type="curve" smooth="yes"/>
      <point x="468" y="543"/>
      <point x="427" y="493"/>
      <point x="344" y="452" type="curve" smooth="yes"/>
      <point x="276" y="419" type="line" smooth="yes"/>
      <point x="222" y="392"/>
      <point x="200" y="375"/>
      <point x="181" y="344" type="curve"/>
    </contour>
  </outline>
</glyph>
<glyph name="acute" format="1">
  <advance width="333"/>
  <unicode hex="00B4"/>
  <outline>
    <contour>
      <point x="346" y="740" type="line"/>
      <point x="458" y="740" type="line"/>
      <point x="278" y="592" type="line"/>
      <point x="218" y="592" type="line"/>
    </contour>
  </outline>
</glyph>
<glyph name="paragraph" format="1">
  <advance width="537"/>
  <unicode hex="00B6"/>
  <outline>
    <contour>
      <point x="677" y="729" type="line"/>
      <point x="663" y="665" type="line"/>
      <point x="607" y="665" type="line"/>
      <point x="428" y="-178" type="line"/>
      <point x="364" y="-178" type="line"/>
      <point x="543" y="665" type="line"/>
      <point x="460" y="665" type="line"/>
      <point x="281" y="-178" type="line"/>
      <point x="217" y="-178" type="line"/>
      <point x="310" y="259" type="line"/>
      <point x="207" y="262"/>
      <point x="145" y="329"/>
      <point x="145" y="436" type="curve" smooth="yes"/>
      <point x="145" y="588"/>
      <point x="281" y="729"/>
      <point x="427" y="729" type="curve" smooth="yes"/>
    </contour>
  </outline>
</glyph>
<glyph name="periodcentered" format="1">
  <advance width="278"/>
  <unicode hex="00B7"/>
  <outline>
    <contour>
      <point x="293" y="295" type="line"/>
      <point x="271" y="192" type="line"/>
      <point x="166" y="192" type="line"/>
      <point x="188" y="295" type="line"/>
    </contour>
  </outline>
</glyph>
<glyph name="cedilla" format="1">
  <advance width="333"/>
  <unicode hex="00B8"/>
  <outline>
    <contour>
      <point x="165" y="0" type="line"/>
      <point x="206" y="0" type="line"/>
      <point x="176" y="-56" type="line"/>
      <point x="189" y="-54"/>
      <point x="193" y="-54"/>
      <point x="197" y="-54" type="curve" smooth="yes"/>
      <point x="234" y="-54"/>
      <point x="264" y="-77"/>
      <point x="264" y="-105" type="curve" smooth="yes"/>
      <point x="264" y="-168"/>
      <point x="203" y="-214"/>
      <point x="119" y="-214" type="curve" smooth="yes"/>
      <point x="81" y="-214"/>
      <point x="52" y="-206"/>
      <point x="1" y="-180" type="curve"/>
      <point x="29" y="-142" type="line"/>
      <point x="70" y="-163"/>
      <point x="95" y="-171"/>
      <point x="123" y="-171" type="curve" smooth="yes"/>
      <point x="160" y="-171"/>
      <point x="186" y="-148"/>
      <point x="186" y="-116" type="curve" smooth="yes"/>
      <point x="186" y="-104"/>
      <point x="172" y="-94"/>
      <point x="155" y="-94" type="curve" smooth="yes"/>
      <point x="151" y="-94"/>
      <point x="151" y="-94"/>
      <point x="135" y="-97" type="curve" smooth="yes"/>
      <point x="128" y="-98" type="line"/>
      <point x="115" y="-92" type="line"/>
    </contour>
  </outline>
</glyph>
<glyph name="ordmasculine" format="1">
  <advance width="365"/>
  <unicode hex="00BA"/>
  <outline>
    <contour>
      <point x="388" y="354" type="line"/>
      <point x="377" y="303" type="line"/>
      <point x="114" y="303" type="line"/>
      <point x="125" y="354" type="line"/>
    </contour>
    <contour>
      <point x="336" y="742" type="curve" smooth="yes"/>
      <point x="369" y="742"/>
      <point x="399" y="732"/>
      <point x="417" y="716" type="curve" smooth="yes"/>
      <point x="437" y="697"/>
      <point x="452" y="660"/>
      <point x="452" y="627" type="curve" smooth="yes"/>
      <point x="452" y="576"/>
      <point x="431" y="508"/>
      <point x="404" y="470" type="curve" smooth="yes"/>
      <point x="370" y="424"/>
      <point x="321" y="399"/>
      <point x="262" y="399" type="curve" smooth="yes"/>
      <point x="195" y="399"/>
      <point x="149" y="444"/>
      <point x="149" y="509" type="curve" smooth="yes"/>
      <point x="149" y="565"/>
      <point x="169" y="635"/>
      <point x="197" y="672" type="curve" smooth="yes"/>
      <point x="229" y="716"/>
      <point x="281" y="742"/>
    </contour>
    <contour>
      <point x="327" y="690" type="curve" smooth="yes"/>
      <point x="261" y="690"/>
      <point x="209" y="618"/>
      <point x="209" y="525" type="curve" smooth="yes"/>
      <point x="209" y="478"/>
      <point x="234" y="451"/>
      <point x="276" y="451" type="curve" smooth="yes"/>
      <point x="341" y="451"/>
      <point x="392" y="524"/>
      <point x="392" y="617" type="curve" smooth="yes"/>
      <point x="392" y="662"/>
      <point x="367" y="690"/>
    </contour>
  </outline>
</glyph>
<glyph name="onequarter" format="1">
  <advance width="947"/>
  <unicode hex="00BC"/>
  <outline>
    <contour>
      <point x="302" y="580" type="line"/>
      <point x="205" y="580" type="line"/>
      <point x="215" y="626" type="line"/>
      <point x="306" y="638"/>
      <point x="316" y="644"/>
      <point x="349" y="709" type="curve"/>
      <point x="393" y="709" type="line"/>
      <point x="303" y="284" type="line"/>
      <point x="239" y="284" type="line"/>
    </contour>
    <contour>
      <point x="818" y="709" type="line"/>
      <point x="876" y="709" type="line"/>
      <point x="270" y="-20" type="line"/>
      <point x="212" y="-20" type="line"/>
    </contour>
    <contour>
      <point x="798" y="100" type="line"/>
      <point x="614" y="100" type="line"/>
      <point x="627" y="160" type="line"/>
      <point x="883" y="425" type="line"/>
      <point x="930" y="425" type="line"/>
      <point x="873" y="155" type="line"/>
      <point x="938" y="155" type="line"/>
      <point x="926" y="100" type="line"/>
      <point x="861" y="100" type="line"/>
      <point x="840" y="0" type="line"/>
      <point x="777" y="0" type="line"/>
    </contour>
    <contour>
      <point x="810" y="155" type="line"/>
      <point x="844" y="316" type="line"/>
      <point x="688" y="155" type="line"/>
    </contour>
  </outline>
</glyph>
<glyph name="threequarters" format="1">
  <advance width="947"/>
  <unicode hex="00BE"/>
  <outline>
    <contour>
      <point x="256" y="474" type="curve"/>
      <point x="267" y="527" type="line"/>
      <point x="279" y="527" type="line"/>
      <point x="283" y="527" type="line" smooth="yes"/>
      <point x="356" y="527"/>
      <point x="390" y="552"/>
      <point x="390" y="606" type="curve" smooth="yes"/>
      <point x="390" y="636"/>
      <point x="366" y="654"/>
      <point x="328" y="654" type="curve" smooth="yes"/>
      <point x="296" y="654"/>
      <point x="269" y="642"/>
      <point x="252" y="619" type="curve" smooth="yes"/>
      <point x="243" y="608"/>
      <point x="238" y="596"/>
      <point x="231" y="565" type="curve"/>
      <point x="168" y="565" type="line"/>
      <point x="181" y="613"/>
      <point x="191" y="636"/>
      <point x="211" y="657" type="curve" smooth="yes"/>
      <point x="242" y="691"/>
      <point x="286" y="709"/>
      <point x="338" y="709" type="curve" smooth="yes"/>
      <point x="409" y="709"/>
      <point x="455" y="673"/>
      <point x="455" y="618" type="curve" smooth="yes"/>
      <point x="455" y="567"/>
      <point x="436" y="535"/>
      <point x="386" y="504" type="curve"/>
      <point x="417" y="489"/>
      <point x="430" y="467"/>
      <point x="430" y="434" type="curve" smooth="yes"/>
      <point x="430" y="340"/>
      <point x="351" y="270"/>
      <point x="247" y="270" type="curve" smooth="yes"/>
      <point x="167" y="270"/>
      <point x="123" y="307"/>
      <point x="123" y="373" type="curve" smooth="yes"/>
      <point x="123" y="383"/>
      <point x="124" y="392"/>
      <point x="126" y="414" type="curve"/>
      <point x="190" y="414" type="line"/>
      <point x="189" y="402" type="line" smooth="yes"/>
      <point x="188" y="393"/>
      <point x="188" y="387"/>
      <point x="188" y="381" type="curve" smooth="yes"/>
      <point x="188" y="347"/>
      <point x="215" y="325"/>
      <point x="256" y="325" type="curve" smooth="yes"/>
      <point x="321" y="325"/>
      <point x="365" y="365"/>
      <point x="365" y="425" type="curve" smooth="yes"/>
      <point x="365" y="457"/>
      <point x="336" y="475"/>
      <point x="287" y="475" type="curve" smooth="yes"/>
      <point x="280" y="475"/>
      <point x="272" y="475"/>
    </contour>
    <contour>
      <point x="838" y="709" type="line"/>
      <point x="896" y="709" type="line"/>
      <point x="290" y="-20" type="line"/>
      <point x="232" y="-20" type="line"/>
    </contour>
    <contour>
      <point x="798" y="100" type="line"/>
      <point x="614" y="100" type="line"/>
      <point x="627" y="160" type="line"/>
      <point x="883" y="425" type="line"/>
      <point x="930" y="425" type="line"/>
      <point x="873" y="155" type="line"/>
      <point x="938" y="155" type="line"/>
      <point x="926" y="100" type="line"/>
      <point x="861" y="100" type="line"/>
      <point x="840" y="0" type="line"/>
      <point x="777" y="0" type="line"/>
    </contour>
    <contour>
      <point x="810" y="155" type="line"/>
      <point x="844" y="316" type="line"/>
      <point x="688" y="155" type="line"/>
    </contour>
  </outline>
</glyph>
<glyph name="questiondown" format="1">
  <advance width="611"/>
  <unicode hex="00BF"/>
  <outline>
    <contour>
      <point x="344" y="325" type="line"/>
      <point x="434" y="325" type="line"/>
      <point x="422" y="270" type="line" smooth="yes"/>
      <point x="408" y="209"/>
      <point x="390" y="187"/>
      <point x="285" y="107" type="curve"/>
      <point x="213" y="50"/>
      <point x="181" y="1"/>
      <point x="181" y="-53" type="curve" smooth="yes"/>
      <point x="181" y="-106"/>
      <point x="223" y="-140"/>
      <point x="288" y="-140" type="curve" smooth="yes"/>
      <point x="376" y="-140"/>
      <point x="424" y="-92"/>
      <point x="446" y="17" type="curve"/>
      <point x="531" y="17" type="line"/>
      <point x="500" y="-138"/>
      <point x="410" y="-217"/>
      <point x="266" y="-217" type="curve" smooth="yes"/>
      <point x="199" y="-217"/>
      <point x="154" y="-200"/>
      <point x="121" y="-162" type="curve" smooth="yes"/>
      <point x="99" y="-137"/>
      <point x="86" y="-104"/>
      <point x="86" y="-72" type="curve" smooth="yes"/>
      <point x="86" y="-26"/>
      <point x="105" y="26"/>
      <point x="137" y="68" type="curve" smooth="yes"/>
      <point x="157" y="94"/>
      <point x="182" y="117"/>
      <point x="230" y="154" type="curve"/>
      <point x="304" y="209"/>
      <point x="320" y="228"/>
      <point x="334" y="278" type="curve"/>
    </contour>
    <contour>
      <point x="364" y="421" type="line"/>
      <point x="386" y="524" type="line"/>
      <point x="476" y="524" type="line"/>
      <point x="454" y="421" type="line"/>
    </contour>
  </outline>
</glyph>
<glyph name="Agrave" format="1">
  <advance width="667"/>
  <unicode hex="00C0"/>
  <outline>
    <contour>
      <point x="524" y="219" type="line"/>
      <point x="239" y="219" type="line"/>
      <point x="116" y="0" type="line"/>
      <point x="17" y="0" type="line"/>
      <point x="432" y="729" type="line"/>
      <point x="552" y="729" type="line"/>
      <point x="653" y="0" type="line"/>
      <point x="551" y="0" type="line"/>
    </contour>
    <contour>
      <point x="514" y="297" type="line"/>
      <point x="474" y="630" type="line"/>
      <point x="283" y="297" type="line"/>
    </contour>
    <contour>
      <point x="483" y="939" type="line"/>
      <point x="555" y="791" type="line"/>
      <point x="502" y="791" type="line"/>
      <point x="377" y="939" type="line"/>
    </contour>
  </outline>
</glyph>
<glyph name="Atilde" format="1">
  <advance width="667"/>
  <unicode hex="00C3"/>
  <outline>
    <contour>
      <point x="524" y="219" type="line"/>
      <point x="239" y="219" type="line"/>
      <point x="116" y="0" type="line"/>
      <point x="17" y="0" type="line"/>
      <point x="432" y="729" type="line"/>
      <point x="552" y="729" type="line"/>
      <point x="653" y="0" type="line"/>
      <point x="551" y="0" type="line"/>
    </contour>
    <contour>
      <point x="514" y="297" type="line"/>
      <point x="474" y="630" type="line"/>
      <point x="283" y="297" type="line"/>
    </contour>
    <contour>
      <point x="627" y="918" type="curve"/>
      <point x="680" y="918" type="line"/>
      <point x="659" y="853"/>
      <point x="617" y="811"/>
      <point x="572" y="811" type="curve" smooth="yes"/>
      <point x="550" y="811"/>
      <point x="533" y="815"/>
      <point x="469" y="837" type="curve" smooth="yes"/>
      <point x="458" y="841"/>
      <point x="448" y="843"/>
      <point x="442" y="843" type="curve" smooth="yes"/>
      <point x="423" y="843"/>
      <point x="411" y="837"/>
      <point x="399" y="819" type="curve" smooth="yes"/>
      <point x="397" y="817"/>
      <point x="395" y="814"/>
      <point x="392" y="810" type="curve"/>
      <point x="339" y="810" type="line"/>
      <point x="351" y="845"/>
      <point x="359" y="862"/>
      <point x="371" y="877" type="curve" smooth="yes"/>
      <point x="387" y="898"/>
      <point x="418" y="913"/>
      <point x="443" y="913" type="curve" smooth="yes"/>
      <point x="460" y="913"/>
      <point x="477" y="909"/>
      <point x="516" y="896" type="curve" smooth="yes"/>
      <point x="542" y="887"/>
      <point x="569" y="881"/>
      <point x="579" y="881" type="curve" smooth="yes"/>
      <point x="599" y="881"/>
      <point x="609" y="889"/>
    </contour>
  </outline>
</glyph>
<glyph name="Adieresis" format="1">
  <advance width="667"/>
  <unicode hex="00C4"/>
  <outline>
    <contour>
      <point x="524" y="219" type="line"/>
      <point x="239" y="219" type="line"/>
      <point x="116" y="0" type="line"/>
      <point x="17" y="0" type="line"/>
      <point x="432" y="729" type="line"/>
      <point x="552" y="729" type="line"/>
      <point x="653" y="0" type="line"/>
      <point x="551" y="0" type="line"/>
    </contour>
    <contour>
      <point x="514" y="297" type="line"/>
      <point x="474" y="630" type="line"/>
      <point x="283" y="297" type="line"/>
    </contour>
    <contour>
      <point x="501" y="914" type="line"/>
      <point x="479" y="811" type="line"/>
      <point x="375" y="811" type="line"/>
      <point x="397" y="914" type="line"/>
    </contour>
    <contour>
      <point x="662" y="914" type="line"/>
      <point x="640" y="811" type="line"/>
      <point x="536" y="811" type="line"/>
      <point x="558" y="914" type="line"/>
    </contour>
  </outline>
</glyph>
<glyph name="Aring" format="1">
  <advance width="667"/>
  <unicode hex="00C5"/>
  <outline>
    <contour>
      <point x="524" y="219" type="line"/>
      <point x="239" y="219" type="line"/>
      <point x="116" y="0" type="line"/>
      <point x="17" y="0" type="line"/>
      <point x="432" y="729" type="line"/>
      <point x="552" y="729" type="line"/>
      <point x="653" y="0" type="line"/>
      <point x="551" y="0" type="line"/>
    </contour>
    <contour>
      <point x="514" y="297" type="line"/>
      <point x="474" y="630" type="line"/>
      <point x="283" y="297" type="line"/>
    </contour>
    <contour>
      <point x="533" y="953" type="curve" smooth="yes"/>
      <point x="574" y="953"/>
      <point x="605" y="924"/>
      <point x="605" y="886" type="curve" smooth="yes"/>
      <point x="605" y="830"/>
      <point x="553" y="778"/>
      <point x="496" y="778" type="curve" smooth="yes"/>
      <point x="456" y="778"/>
      <point x="425" y="809"/>
      <point x="425" y="848" type="curve" smooth="yes"/>
      <point x="425" y="901"/>
      <point x="479" y="953"/>
    </contour>
    <contour>
      <point x="526" y="909" type="curve" smooth="yes"/>
      <point x="498" y="909"/>
      <point x="471" y="883"/>
      <point x="471" y="857" type="curve" smooth="yes"/>
      <point x="471" y="836"/>
      <point x="486" y="822"/>
      <point x="506" y="822" type="curve" smooth="yes"/>
      <point x="533" y="822"/>
      <point x="560" y="848"/>
      <point x="560" y="874" type="curve" smooth="yes"/>
      <point x="560" y="894"/>
      <point x="545" y="909"/>
    </contour>
  </outline>
</glyph>
<glyph name="Igrave" format="1">
  <advance width="278"/>
  <unicode hex="00CC"/>
  <outline>
    <contour>
      <point x="349" y="729" type="line"/>
      <point x="194" y="0" type="line"/>
      <point x="100" y="0" type="line"/>
      <point x="255" y="729" type="line"/>
    </contour>
    <contour>
      <point x="306" y="939" type="line"/>
      <point x="378" y="791" type="line"/>
      <point x="325" y="791" type="line"/>
      <point x="200" y="939" type="line"/>
    </contour>
  </outline>
</glyph>
<glyph name="Iacute" format="1">
  <advance width="278"/>
  <unicode hex="00CD"/>
  <outline>
    <contour>
      <point x="349" y="729" type="line"/>
      <point x="194" y="0" type="line"/>
      <point x="100" y="0" type="line"/>
      <point x="255" y="729" type="line"/>
    </contour>
    <contour>
      <point x="367" y="939" type="line"/>
      <point x="479" y="939" type="line"/>
      <point x="299" y="791" type="line"/>
      <point x="239" y="791" type="line"/>
    </contour>
  </outline>
</glyph>
<glyph name="Icircumflex" format="1">
  <advance width="278"/>
  <unicode hex="00CE"/>
  <outline>
    <contour>
      <point x="349" y="729" type="line"/>
      <point x="194" y="0" type="line"/>
      <point x="100" y="0" type="line"/>
      <point x="255" y="729" type="line"/>
    </contour>
    <contour>
      <point x="295" y="940" type="line"/>
      <point x="390" y="940" type="line"/>
      <point x="454" y="790" type="line"/>
      <point x="391" y="790" type="line"/>
      <point x="335" y="889" type="line"/>
      <point x="231" y="790" type="line"/>
      <point x="167" y="790" type="line"/>
    </contour>
  </outline>
</glyph>
<glyph name="Idieresis" format="1">
  <advance width="278"/>
  <unicode hex="00CF"/>
  <outline>
    <contour>
      <point x="349" y="729" type="line"/>
      <point x="194" y="0" type="line"/>
      <point x="100" y="0" type="line"/>
      <point x="255" y="729" type="line"/>
    </contour>
    <contour>
      <point x="306" y="907" type="line"/>
      <point x="284" y="804" type="line"/>
      <point x="180" y="804" type="line"/>
      <point x="202" y="907" type="line"/>
    </contour>
    <contour>
      <point x="467" y="907" type="line"/>
      <point x="445" y="804" type="line"/>
      <point x="341" y="804" type="line"/>
      <point x="363" y="907" type="line"/>
    </contour>
  </outline>
</glyph>
<glyph name="Oslash" format="1">
  <advance width="778"/>
  <unicode hex="00D8"/>
  <outline>
    <contour>
      <point x="32" y="15" type="line"/>
      <point x="126" y="100" type="line"/>
      <point x="102" y="141"/>
      <point x="88" y="205"/>
      <point x="88" y="268" type="curve" smooth="yes"/>
      <point x="88" y="390"/>
      <point x="142" y="522"/>
      <point x="229" y="614" type="curve" smooth="yes"/>
      <point x="309" y="698"/>
      <point x="407" y="741"/>
      <point x="519" y="741" type="curve" smooth="yes"/>
      <point x="616" y="741"/>
      <point x="701" y="709"/>
      <point x="745" y="657" type="curve"/>
      <point x="832" y="735" type="line"/>
      <point x="867" y="696" type="line"/>
      <point x="775" y="613" type="line"/>
      <point x="800" y="570"/>
      <point x="812" y="519"/>
      <point x="812" y="463" type="curve" smooth="yes"/>
      <point x="812" y="305"/>
      <point x="734" y="140"/>
      <point x="618" y="54" type="curve" smooth="yes"/>
      <point x="550" y="4"/>
      <point x="467" y="-23"/>
      <point x="378" y="-23" type="curve" smooth="yes"/>
      <point x="285" y="-23"/>
      <point x="209" y="5"/>
      <point x="158" y="57" type="curve"/>
      <point x="67" y="-24" type="line"/>
    </contour>
    <contour>
      <point x="202" y="168" type="curve"/>
      <point x="672" y="592" type="line"/>
      <point x="636" y="635"/>
      <point x="575" y="660"/>
      <point x="508" y="660" type="curve" smooth="yes"/>
      <point x="327" y="660"/>
      <point x="184" y="486"/>
      <point x="184" y="265" type="curve" smooth="yes"/>
      <point x="184" y="225"/>
      <point x="189" y="198"/>
    </contour>
    <contour>
      <point x="700" y="546" type="curve"/>
      <point x="230" y="123" type="line"/>
      <point x="264" y="83"/>
      <point x="325" y="58"/>
      <point x="391" y="58" type="curve" smooth="yes"/>
      <point x="484" y="58"/>
      <point x="574" y="106"/>
      <point x="632" y="185" type="curve" smooth="yes"/>
      <point x="684" y="256"/>
      <point x="716" y="355"/>
      <point x="716" y="443" type="curve" smooth="yes"/>
      <point x="716" y="485"/>
      <point x="710" y="521"/>
    </contour>
  </outline>
</glyph>
<glyph name="Uacute" format="1">
  <advance width="722"/>
  <unicode hex="00DA"/>
  <outline>
    <contour>
      <point x="591" y="939" type="line"/>
      <point x="703" y="939" type="line"/>
      <point x="523" y="791" type="line"/>
      <point x="463" y="791" type="line"/>
    </contour>
    <contour>
      <point x="706" y="729" type="line"/>
      <point x="800" y="729" type="line"/>
      <point x="691" y="217" type="line" smooth="yes"/>
      <point x="660" y="71"/>
      <point x="531" y="-23"/>
      <point x="363" y="-23" type="curve" smooth="yes"/>
      <point x="286" y="-23"/>
      <point x="220" y="-2"/>
      <point x="179" y="35" type="curve" smooth="yes"/>
      <point x="147" y="64"/>
      <point x="124" y="114"/>
      <point x="124" y="155" type="curve" smooth="yes"/>
      <point x="124" y="171"/>
      <point x="131" y="217"/>
      <point x="138" y="251" type="curve" smooth="yes"/>
      <point x="240" y="729" type="line"/>
      <point x="334" y="729" type="line"/>
      <point x="225" y="217" type="line" smooth="yes"/>
      <point x="222" y="202"/>
      <point x="220" y="187"/>
      <point x="220" y="174" type="curve" smooth="yes"/>
      <point x="220" y="104"/>
      <point x="285" y="58"/>
      <point x="381" y="58" type="curve" smooth="yes"/>
      <point x="494" y="58"/>
      <point x="576" y="118"/>
      <point x="597" y="217" type="curve" smooth="yes"/>
    </contour>
  </outline>
</glyph>
<glyph name="acircumflex" format="1">
  <advance width="556"/>
  <unicode hex="00E2"/>
  <outline>
    <contour>
      <point x="552" y="51" type="curve"/>
      <point x="539" y="-14" type="line"/>
      <point x="533" y="-15"/>
      <point x="527" y="-16"/>
      <point x="525" y="-17" type="curve" smooth="yes"/>
      <point x="500" y="-23"/>
      <point x="497" y="-23"/>
      <point x="486" y="-23" type="curve" smooth="yes"/>
      <point x="438" y="-23"/>
      <point x="410" y="2"/>
      <point x="410" y="43" type="curve" smooth="yes"/>
      <point x="410" y="47" type="line"/>
      <point x="410" y="54" type="line"/>
      <point x="369" y="18"/>
      <point x="354" y="8"/>
      <point x="322" y="-3" type="curve" smooth="yes"/>
      <point x="286" y="-16"/>
      <point x="244" y="-23"/>
      <point x="209" y="-23" type="curve" smooth="yes"/>
      <point x="119" y="-23"/>
      <point x="65" y="25"/>
      <point x="65" y="105" type="curve" smooth="yes"/>
      <point x="65" y="163"/>
      <point x="95" y="216"/>
      <point x="147" y="249" type="curve" smooth="yes"/>
      <point x="196" y="280"/>
      <point x="238" y="290"/>
      <point x="372" y="302" type="curve" smooth="yes"/>
      <point x="445" y="309"/>
      <point x="464" y="320"/>
      <point x="473" y="361" type="curve"/>
      <point x="476" y="379" type="line" smooth="yes"/>
      <point x="477" y="387"/>
      <point x="478" y="394"/>
      <point x="478" y="398" type="curve" smooth="yes"/>
      <point x="478" y="435"/>
      <point x="432" y="462"/>
      <point x="372" y="462" type="curve" smooth="yes"/>
      <point x="329" y="462"/>
      <point x="287" y="447"/>
      <point x="265" y="425" type="curve" smooth="yes"/>
      <point x="251" y="411"/>
      <point x="244" y="397"/>
      <point x="235" y="369" type="curve"/>
      <point x="151" y="369" type="line"/>
      <point x="170" y="480"/>
      <point x="255" y="539"/>
      <point x="394" y="539" type="curve" smooth="yes"/>
      <point x="499" y="539"/>
      <point x="568" y="494"/>
      <point x="568" y="426" type="curve" smooth="yes"/>
      <point x="568" y="416"/>
      <point x="568" y="416"/>
      <point x="562" y="389" type="curve" smooth="yes"/>
      <point x="498" y="88" type="line" smooth="yes"/>
      <point x="497" y="85"/>
      <point x="497" y="82"/>
      <point x="497" y="78" type="curve" smooth="yes"/>
      <point x="497" y="58"/>
      <point x="509" y="49"/>
      <point x="535" y="49" type="curve" smooth="yes"/>
      <point x="539" y="49"/>
      <point x="543" y="49"/>
    </contour>
    <contour>
      <point x="431" y="164" type="curve" smooth="yes"/>
      <point x="451" y="258" type="line"/>
      <point x="407" y="243"/>
      <point x="399" y="242"/>
      <point x="305" y="229" type="curve" smooth="yes"/>
      <point x="256" y="222"/>
      <point x="226" y="214"/>
      <point x="202" y="199" type="curve" smooth="yes"/>
      <point x="172" y="181"/>
      <point x="153" y="148"/>
      <point x="153" y="115" type="curve" smooth="yes"/>
      <point x="153" y="73"/>
      <point x="185" y="49"/>
      <point x="242" y="49" type="curve" smooth="yes"/>
      <point x="330" y="49"/>
      <point x="418" y="102"/>
    </contour>
    <contour>
      <point x="393" y="741" type="line"/>
      <point x="488" y="741" type="line"/>
      <point x="552" y="591" type="line"/>
      <point x="489" y="591" type="line"/>
      <point x="433" y="690" type="line"/>
      <point x="329" y="591" type="line"/>
      <point x="265" y="591" type="line"/>
    </contour>
  </outline>
</glyph>
<glyph name="ccedilla" format="1">
  <advance width="500"/>
  <unicode hex="00E7"/>
  <outline>
    <contour>
      <point x="271" y="-23" type="curve"/>
      <point x="253" y="-56" type="line"/>
      <point x="266" y="-54"/>
      <point x="270" y="-54"/>
      <point x="274" y="-54" type="curve" smooth="yes"/>
      <point x="311" y="-54"/>
      <point x="341" y="-77"/>
      <point x="341" y="-105" type="curve" smooth="yes"/>
      <point x="341" y="-168"/>
      <point x="280" y="-214"/>
      <point x="196" y="-214" type="curve" smooth="yes"/>
      <point x="158" y="-214"/>
      <point x="129" y="-206"/>
      <point x="78" y="-180" type="curve"/>
      <point x="106" y="-142" type="line"/>
      <point x="147" y="-163"/>
      <point x="172" y="-171"/>
      <point x="200" y="-171" type="curve" smooth="yes"/>
      <point x="237" y="-171"/>
      <point x="263" y="-148"/>
      <point x="263" y="-116" type="curve" smooth="yes"/>
      <point x="263" y="-104"/>
      <point x="248" y="-94"/>
      <point x="232" y="-94" type="curve" smooth="yes"/>
      <point x="227" y="-94"/>
      <point x="227" y="-94"/>
      <point x="212" y="-97" type="curve" smooth="yes"/>
      <point x="205" y="-98" type="line"/>
      <point x="192" y="-92" type="line"/>
      <point x="230" y="-22" type="line"/>
      <point x="183" y="-13"/>
      <point x="163" y="-4"/>
      <point x="139" y="19" type="curve" smooth="yes"/>
      <point x="100" y="55"/>
      <point x="76" y="112"/>
      <point x="76" y="170" type="curve" smooth="yes"/>
      <point x="76" y="262"/>
      <point x="110" y="371"/>
      <point x="157" y="432" type="curve" smooth="yes"/>
      <point x="210" y="501"/>
      <point x="291" y="539"/>
      <point x="381" y="539" type="curve" smooth="yes"/>
      <point x="438" y="539"/>
      <point x="479" y="524"/>
      <point x="510" y="492" type="curve" smooth="yes"/>
      <point x="536" y="465"/>
      <point x="554" y="425"/>
      <point x="554" y="393" type="curve" smooth="yes"/>
      <point x="554" y="390"/>
      <point x="553" y="379"/>
      <point x="552" y="363" type="curve" smooth="yes"/>
      <point x="551" y="348" type="line"/>
      <point x="467" y="348" type="line"/>
      <point x="468" y="357"/>
      <point x="468" y="364"/>
      <point x="468" y="370" type="curve" smooth="yes"/>
      <point x="468" y="427"/>
      <point x="429" y="462"/>
      <point x="366" y="462" type="curve" smooth="yes"/>
      <point x="305" y="462"/>
      <point x="255" y="432"/>
      <point x="218" y="373" type="curve" smooth="yes"/>
      <point x="185" y="321"/>
      <point x="164" y="245"/>
      <point x="164" y="181" type="curve" smooth="yes"/>
      <point x="164" y="103"/>
      <point x="208" y="54"/>
      <point x="277" y="54" type="curve" smooth="yes"/>
      <point x="349" y="54"/>
      <point x="404" y="98"/>
      <point x="434" y="180" type="curve"/>
      <point x="518" y="180" type="line"/>
      <point x="486" y="51"/>
      <point x="400" y="-19"/>
    </contour>
  </outline>
</glyph>
<glyph name="igrave" format="1">
  <advance width="278"/>
  <unicode hex="00EC"/>
  <outline>
    <contour>
      <point x="290" y="527" type="line"/>
      <point x="178" y="0" type="line"/>
      <point x="94" y="0" type="line"/>
      <point x="206" y="527" type="line"/>
    </contour>
    <contour>
      <point x="258" y="740" type="line"/>
      <point x="330" y="592" type="line"/>
      <point x="277" y="592" type="line"/>
      <point x="152" y="740" type="line"/>
    </contour>
  </outline>
</glyph>
<glyph name="iacute" format="1">
  <advance width="278"/>
  <unicode hex="00ED"/>
  <outline>
    <contour>
      <point x="290" y="527" type="line"/>
      <point x="178" y="0" type="line"/>
      <point x="94" y="0" type="line"/>
      <point x="206" y="527" type="line"/>
    </contour>
    <contour>
      <point x="319" y="740" type="line"/>
      <point x="431" y="740" type="line"/>
      <point x="251" y="592" type="line"/>
      <point x="191" y="592" type="line"/>
    </contour>
  </outline>
</glyph>
<glyph name="icircumflex" format="1">
  <advance width="278"/>
  <unicode hex="00EE"/>
  <outline>
    <contour>
      <point x="290" y="527" type="line"/>
      <point x="178" y="0" type="line"/>
      <point x="94" y="0" type="line"/>
      <point x="206" y="527" type="line"/>
    </contour>
    <contour>
      <point x="247" y="741" type="line"/>
      <point x="342" y="741" type="line"/>
      <point x="406" y="591" type="line"/>
      <point x="343" y="591" type="line"/>
      <point x="287" y="690" type="line"/>
      <point x="183" y="591" type="line"/>
      <point x="119" y="591" type="line"/>
    </contour>
  </outline>
</glyph>
<glyph name="ntilde" format="1">
  <advance width="556"/>
  <unicode hex="00F1"/>
  <outline>
    <contour>
      <point x="181" y="524" type="line"/>
      <point x="257" y="524" type="line"/>
      <point x="244" y="459" type="line"/>
      <point x="296" y="512"/>
      <point x="362" y="539"/>
      <point x="438" y="539" type="curve" smooth="yes"/>
      <point x="521" y="539"/>
      <point x="574" y="490"/>
      <point x="574" y="414" type="curve" smooth="yes"/>
      <point x="574" y="401"/>
      <point x="573" y="389"/>
      <point x="570" y="376" type="curve" smooth="yes"/>
      <point x="490" y="0" type="line"/>
      <point x="406" y="0" type="line"/>
      <point x="480" y="349" type="line" smooth="yes"/>
      <point x="484" y="365"/>
      <point x="486" y="380"/>
      <point x="486" y="386" type="curve" smooth="yes"/>
      <point x="486" y="432"/>
      <point x="449" y="467"/>
      <point x="399" y="467" type="curve" smooth="yes"/>
      <point x="309" y="467"/>
      <point x="239" y="399"/>
      <point x="215" y="289" type="curve" smooth="yes"/>
      <point x="154" y="0" type="line"/>
      <point x="70" y="0" type="line"/>
    </contour>
    <contour>
      <point x="536" y="719" type="curve"/>
      <point x="589" y="719" type="line"/>
      <point x="568" y="654"/>
      <point x="526" y="612"/>
      <point x="481" y="612" type="curve" smooth="yes"/>
      <point x="459" y="612"/>
      <point x="442" y="616"/>
      <point x="378" y="638" type="curve" smooth="yes"/>
      <point x="367" y="642"/>
      <point x="357" y="644"/>
      <point x="351" y="644" type="curve" smooth="yes"/>
      <point x="332" y="644"/>
      <point x="320" y="638"/>
      <point x="308" y="620" type="curve" smooth="yes"/>
      <point x="306" y="618"/>
      <point x="304" y="615"/>
      <point x="301" y="611" type="curve"/>
      <point x="248" y="611" type="line"/>
      <point x="260" y="646"/>
      <point x="268" y="663"/>
      <point x="280" y="678" type="curve" smooth="yes"/>
      <point x="296" y="699"/>
      <point x="327" y="714"/>
      <point x="352" y="714" type="curve" smooth="yes"/>
      <point x="369" y="714"/>
      <point x="386" y="710"/>
      <point x="425" y="697" type="curve" smooth="yes"/>
      <point x="451" y="688"/>
      <point x="478" y="682"/>
      <point x="488" y="682" type="curve" smooth="yes"/>
      <point x="508" y="682"/>
      <point x="518" y="690"/>
    </contour>
  </outline>
</glyph>
<glyph name="otilde" format="1">
  <advance width="556"/>
  <unicode hex="00F5"/>
  <outline>
    <contour>
      <point x="384" y="539" type="curve" smooth="yes"/>
      <point x="442" y="539"/>
      <point x="487" y="523"/>
      <point x="521" y="490" type="curve" smooth="yes"/>
      <point x="556" y="456"/>
      <point x="576" y="405"/>
      <point x="576" y="352" type="curve" smooth="yes"/>
      <point x="576" y="265"/>
      <point x="543" y="156"/>
      <point x="497" y="93" type="curve" smooth="yes"/>
      <point x="441" y="16"/>
      <point x="365" y="-23"/>
      <point x="269" y="-23" type="curve" smooth="yes"/>
      <point x="157" y="-23"/>
      <point x="80" y="53"/>
      <point x="80" y="164" type="curve" smooth="yes"/>
      <point x="80" y="249"/>
      <point x="113" y="359"/>
      <point x="158" y="423" type="curve" smooth="yes"/>
      <point x="209" y="497"/>
      <point x="291" y="539"/>
    </contour>
    <contour>
      <point x="371" y="462" type="curve" smooth="yes"/>
      <point x="305" y="462"/>
      <point x="249" y="425"/>
      <point x="212" y="357" type="curve" smooth="yes"/>
      <point x="185" y="307"/>
      <point x="168" y="241"/>
      <point x="168" y="184" type="curve" smooth="yes"/>
      <point x="168" y="104"/>
      <point x="212" y="54"/>
      <point x="283" y="54" type="curve" smooth="yes"/>
      <point x="352" y="54"/>
      <point x="406" y="90"/>
      <point x="444" y="159" type="curve" smooth="yes"/>
      <point x="471" y="209"/>
      <point x="488" y="274"/>
      <point x="488" y="333" type="curve" smooth="yes"/>
      <point x="488" y="414"/>
      <point x="445" y="462"/>
    </contour>
    <contour>
      <point x="530" y="719" type="curve"/>
      <point x="583" y="719" type="line"/>
      <point x="562" y="654"/>
      <point x="520" y="612"/>
      <point x="475" y="612" type="curve" smooth="yes"/>
      <point x="453" y="612"/>
      <point x="436" y="616"/>
      <point x="372" y="638" type="curve" smooth="yes"/>
      <point x="361" y="642"/>
      <point x="351" y="644"/>
      <point x="345" y="644" type="curve" smooth="yes"/>
      <point x="326" y="644"/>
      <point x="314" y="638"/>
      <point x="302" y="620" type="curve" smooth="yes"/>
      <point x="300" y="618"/>
      <point x="298" y="615"/>
      <point x="295" y="611" type="curve"/>
      <point x="242" y="611" type="line"/>
      <point x="254" y="646"/>
      <point x="262" y="663"/>
      <point x="274" y="678" type="curve" smooth="yes"/>
      <point x="290" y="699"/>
      <point x="321" y="714"/>
      <point x="346" y="714" type="curve" smooth="yes"/>
      <point x="363" y="714"/>
      <point x="380" y="710"/>
      <point x="419" y="697" type="curve" smooth="yes"/>
      <point x="445" y="688"/>
      <point x="472" y="682"/>
      <point x="482" y="682" type="curve" smooth="yes"/>
      <point x="502" y="682"/>
      <point x="512" y="690"/>
    </contour>
  </outline>
</glyph>
<glyph name="divide" format="1">
  <advance width="584"/>
  <unicode hex="00F7"/>
  <outline>
    <contour>
      <point x="591" y="269" type="line"/>
      <point x="576" y="197" type="line"/>
      <point x="92" y="197" type="line"/>
      <point x="107" y="269" type="line"/>
    </contour>
    <contour>
      <point x="305" y="104" type="curve" smooth="yes"/>
      <point x="334" y="104"/>
      <point x="357" y="81"/>
      <point x="357" y="51" type="curve" smooth="yes"/>
      <point x="357" y="24"/>
      <point x="333" y="0"/>
      <point x="305" y="0" type="curve" smooth="yes"/>
      <point x="277" y="0"/>
      <point x="253" y="24"/>
      <point x="253" y="52" type="curve" smooth="yes"/>
      <point x="253" y="80"/>
      <point x="277" y="104"/>
    </contour>
    <contour>
      <point x="379" y="462" type="curve" smooth="yes"/>
      <point x="408" y="462"/>
      <point x="431" y="439"/>
      <point x="431" y="409" type="curve" smooth="yes"/>
      <point x="431" y="382"/>
      <point x="407" y="358"/>
      <point x="379" y="358" type="curve" smooth="yes"/>
      <point x="351" y="358"/>
      <point x="327" y="382"/>
      <point x="327" y="410" type="curve" smooth="yes"/>
      <point x="327" y="439"/>
      <point x="350" y="462"/>
    </contour>
  </outline>
</glyph>
<glyph name="oslash" format="1">
  <advance width="611"/>
  <unicode hex="00F8"/>
  <outline>
    <contour>
      <point x="19" y="-2" type="line"/>
      <point x="102" y="74" type="line"/>
      <point x="87" y="106"/>
      <point x="81" y="133"/>
      <point x="81" y="164" type="curve" smooth="yes"/>
      <point x="81" y="248"/>
      <point x="114" y="359"/>
      <point x="159" y="423" type="curve" smooth="yes"/>
      <point x="211" y="498"/>
      <point x="291" y="539"/>
      <point x="383" y="539" type="curve" smooth="yes"/>
      <point x="454" y="539"/>
      <point x="504" y="517"/>
      <point x="537" y="472" type="curve"/>
      <point x="613" y="541" type="line"/>
      <point x="639" y="511" type="line"/>
      <point x="558" y="437" type="line"/>
      <point x="571" y="408"/>
      <point x="577" y="383"/>
      <point x="577" y="354" type="curve" smooth="yes"/>
      <point x="577" y="265"/>
      <point x="544" y="157"/>
      <point x="498" y="93" type="curve" smooth="yes"/>
      <point x="443" y="17"/>
      <point x="365" y="-23"/>
      <point x="274" y="-23" type="curve" smooth="yes"/>
      <point x="206" y="-23"/>
      <point x="153" y="-1"/>
      <point x="123" y="41" type="curve"/>
      <point x="45" y="-30" type="line"/>
    </contour>
    <contour>
      <point x="175" y="141" type="curve"/>
      <point x="470" y="410" type="line"/>
      <point x="451" y="444"/>
      <point x="415" y="462"/>
      <point x="369" y="462" type="curve" smooth="yes"/>
      <point x="305" y="462"/>
      <point x="249" y="425"/>
      <point x="213" y="357" type="curve" smooth="yes"/>
      <point x="185" y="306"/>
      <point x="169" y="242"/>
      <point x="169" y="180" type="curve" smooth="yes"/>
      <point x="169" y="163"/>
      <point x="170" y="156"/>
    </contour>
    <contour>
      <point x="484" y="370" type="curve"/>
      <point x="190" y="102" type="line"/>
      <point x="209" y="71"/>
      <point x="245" y="54"/>
      <point x="289" y="54" type="curve" smooth="yes"/>
      <point x="353" y="54"/>
      <point x="410" y="93"/>
      <point x="446" y="159" type="curve" smooth="yes"/>
      <point x="470" y="204"/>
      <point x="489" y="280"/>
      <point x="489" y="328" type="curve" smooth="yes"/>
      <point x="489" y="339"/>
      <point x="488" y="350"/>
    </contour>
  </outline>
</glyph>
<glyph name="thorn" format="1">
  <advance width="556"/>
  <unicode hex="00FE"/>
  <outline>
    <contour>
      <point x="7" y="-213" type="line"/>
      <point x="207" y="729" type="line"/>
      <point x="291" y="729" type="line"/>
      <point x="230" y="440" type="line"/>
      <point x="260" y="498"/>
      <point x="336" y="539"/>
      <point x="412" y="539" type="curve" smooth="yes"/>
      <point x="519" y="539"/>
      <point x="586" y="464"/>
      <point x="586" y="344" type="curve" smooth="yes"/>
      <point x="586" y="246"/>
      <point x="552" y="142"/>
      <point x="498" y="76" type="curve" smooth="yes"/>
      <point x="447" y="13"/>
      <point x="372" y="-23"/>
      <point x="294" y="-23" type="curve" smooth="yes"/>
      <point x="223" y="-23"/>
      <point x="182" y="3"/>
      <point x="151" y="68" type="curve"/>
      <point x="91" y="-213" type="line"/>
    </contour>
    <contour>
      <point x="379" y="462" type="curve" smooth="yes"/>
      <point x="317" y="462"/>
      <point x="267" y="428"/>
      <point x="230" y="361" type="curve"/>
      <point x="200" y="309"/>
      <point x="183" y="244"/>
      <point x="183" y="184" type="curve" smooth="yes"/>
      <point x="183" y="104"/>
      <point x="229" y="54"/>
      <point x="302" y="54" type="curve" smooth="yes"/>
      <point x="367" y="54"/>
      <point x="417" y="87"/>
      <point x="454" y="155" type="curve" smooth="yes"/>
      <point x="481" y="205"/>
      <point x="498" y="270"/>
      <point x="498" y="324" type="curve" smooth="yes"/>
      <point x="498" y="410"/>
      <point x="454" y="462"/>
    </contour>
  </outline>
</glyph>
<glyph name="Abreve" format="1">
  <advance width="667"/>
  <unicode hex="0102"/>
  <outline>
    <contour>
      <point x="524" y="219" type="line"/>
      <point x="239" y="219" type="line"/>
      <point x="116" y="0" type="line"/>
      <point x="17" y="0" type="line"/>
      <point x="432" y="729" type="line"/>
      <point x="552" y="729" type="line"/>
      <point x="653" y="0" type="line"/>
      <point x="551" y="0" type="line"/>
    </contour>
    <contour>
      <point x="514" y="297" type="line"/>
      <point x="474" y="630" type="line"/>
      <point x="283" y="297" type="line"/>
    </contour>
    <contour>
      <point x="382" y="928" type="curve"/>
      <point x="435" y="928" type="line"/>
      <point x="435" y="920" type="line"/>
      <point x="435" y="915" type="line" smooth="yes"/>
      <point x="435" y="885"/>
      <point x="468" y="865"/>
      <point x="517" y="865" type="curve" smooth="yes"/>
      <point x="576" y="865"/>
      <point x="617" y="888"/>
      <point x="627" y="928" type="curve"/>
      <point x="683" y="928" type="line"/>
      <point x="672" y="884"/>
      <point x="661" y="863"/>
      <point x="637" y="842" type="curve" smooth="yes"/>
      <point x="604" y="812"/>
      <point x="553" y="793"/>
      <point x="504" y="793" type="curve" smooth="yes"/>
      <point x="429" y="793"/>
      <point x="377" y="833"/>
      <point x="377" y="892" type="curve" smooth="yes"/>
      <point x="377" y="901"/>
      <point x="378" y="909"/>
    </contour>
  </outline>
</glyph>
<glyph name="Aogonek" format="1">
  <advance width="667"/>
  <unicode hex="0104"/>
  <outline>
    <contour>
      <point x="524" y="219" type="line"/>
      <point x="226" y="219" type="line"/>
      <point x="116" y="0" type="line"/>
      <point x="17" y="0" type="line"/>
      <point x="432" y="729" type="line"/>
      <point x="552" y="729" type="line"/>
      <point x="653" y="0" type="line"/>
      <point x="564" y="-39"/>
      <point x="527" y="-73"/>
      <point x="527" y="-116" type="curve" smooth="yes"/>
      <point x="527" y="-143"/>
      <point x="554" y="-160"/>
      <point x="595" y="-160" type="curve" smooth="yes"/>
      <point x="619" y="-160"/>
      <point x="643" y="-157"/>
      <point x="663" y="-150" type="curve"/>
      <point x="654" y="-195" type="line"/>
      <point x="612" y="-204"/>
      <point x="605" y="-205"/>
      <point x="582" y="-205" type="curve" smooth="yes"/>
      <point x="502" y="-205"/>
      <point x="452" y="-176"/>
      <point x="452" y="-130" type="curve" smooth="yes"/>
      <point x="452" y="-96"/>
      <point x="474" y="-59"/>
      <point x="509" y="-35" type="curve" smooth="yes"/>
      <point x="529" y="-21"/>
      <point x="545" y="-13"/>
      <point x="582" y="0" type="curve"/>
      <point x="551" y="0" type="line"/>
    </contour>
    <contour>
      <point x="514" y="297" type="line"/>
      <point x="474" y="630" type="line"/>
      <point x="283" y="297" type="line"/>
    </contour>
  </outline>
</glyph>
<glyph name="cdotaccent" format="1">
  <advance width="500"/>
  <unicode hex="010B"/>
  <outline>
    <contour>
      <point x="467" y="727" type="line"/>
      <point x="445" y="624" type="line"/>
      <point x="341" y="624" type="line"/>
      <point x="363" y="727" type="line"/>
    </contour>
    <contour>
      <point x="551" y="348" type="line"/>
      <point x="467" y="348" type="line"/>
      <point x="468" y="357"/>
      <point x="468" y="364"/>
      <point x="468" y="370" type="curve" smooth="yes"/>
      <point x="468" y="427"/>
      <point x="429" y="462"/>
      <point x="366" y="462" type="curve" smooth="yes"/>
      <point x="305" y="462"/>
      <point x="255" y="432"/>
      <point x="218" y="373" type="curve" smooth="yes"/>
      <point x="185" y="321"/>
      <point x="164" y="245"/>
      <point x="164" y="181" type="curve" smooth="yes"/>
      <point x="164" y="103"/>
      <point x="208" y="54"/>
      <point x="277" y="54" type="curve" smooth="yes"/>
      <point x="349" y="54"/>
      <point x="404" y="98"/>
      <point x="434" y="180" type="curve"/>
      <point x="518" y="180" type="line"/>
      <point x="502" y="124"/>
      <point x="486" y="90"/>
      <point x="460" y="60" type="curve" smooth="yes"/>
      <point x="414" y="6"/>
      <point x="345" y="-23"/>
      <point x="263" y="-23" type="curve" smooth="yes"/>
      <point x="199" y="-23"/>
      <point x="154" y="-4"/>
      <point x="120" y="39" type="curve" smooth="yes"/>
      <point x="92" y="74"/>
      <point x="76" y="123"/>
      <point x="76" y="170" type="curve" smooth="yes"/>
      <point x="76" y="262"/>
      <point x="110" y="371"/>
      <point x="157" y="432" type="curve" smooth="yes"/>
      <point x="210" y="501"/>
      <point x="291" y="539"/>
      <point x="381" y="539" type="curve" smooth="yes"/>
      <point x="438" y="539"/>
      <point x="479" y="524"/>
      <point x="510" y="492" type="curve" smooth="yes"/>
      <point x="536" y="465"/>
      <point x="554" y="425"/>
      <point x="554" y="392" type="curve" smooth="yes"/>
      <point x="554" y="389"/>
      <point x="553" y="378"/>
      <point x="552" y="363" type="curve" smooth="yes"/>
    </contour>
  </outline>
</glyph>
<glyph name="Ebreve" format="1">
  <advance width="667"/>
  <unicode hex="0114"/>
  <outline>
    <contour>
      <point x="406" y="964" type="curve"/>
      <point x="459" y="964" type="line"/>
      <point x="459" y="956" type="line"/>
      <point x="459" y="951" type="line" smooth="yes"/>
      <point x="459" y="921"/>
      <point x="492" y="901"/>
      <point x="541" y="901" type="curve" smooth="yes"/>
      <point x="600" y="901"/>
      <point x="641" y="924"/>
      <point x="651" y="964" type="curve"/>
      <point x="707" y="964" type="line"/>
      <point x="696" y="920"/>
      <point x="685" y="899"/>
      <point x="661" y="878" type="curve" smooth="yes"/>
      <point x="628" y="848"/>
      <point x="577" y="829"/>
      <point x="528" y="829" type="curve" smooth="yes"/>
      <point x="453" y="829"/>
      <point x="401" y="869"/>
      <point x="401" y="928" type="curve" smooth="yes"/>
      <point x="401" y="937"/>
      <point x="402" y="945"/>
    </contour>
    <contour>
      <point x="255" y="332" type="line"/>
      <point x="201" y="82" type="line"/>
      <point x="630" y="82" type="line"/>
      <point x="613" y="0" type="line"/>
      <point x="90" y="0" type="line"/>
      <point x="245" y="729" type="line"/>
      <point x="751" y="729" type="line"/>
      <point x="734" y="647" type="line"/>
      <point x="322" y="647" type="line"/>
      <point x="272" y="414" type="line"/>
      <point x="668" y="414" type="line"/>
      <point x="650" y="332" type="line"/>
    </contour>
  </outline>
</glyph>
<glyph name="ebreve" format="1">
  <advance width="556"/>
  <unicode hex="0115"/>
  <outline>
    <contour>
      <point x="291" y="759" type="curve"/>
      <point x="344" y="759" type="line"/>
      <point x="344" y="751" type="line"/>
      <point x="344" y="746" type="line" smooth="yes"/>
      <point x="344" y="716"/>
      <point x="377" y="696"/>
      <point x="426" y="696" type="curve" smooth="yes"/>
      <point x="485" y="696"/>
      <point x="526" y="719"/>
      <point x="536" y="759" type="curve"/>
      <point x="592" y="759" type="line"/>
      <point x="581" y="715"/>
      <point x="570" y="694"/>
      <point x="546" y="673" type="curve" smooth="yes"/>
      <point x="513" y="643"/>
      <point x="462" y="624"/>
      <point x="413" y="624" type="curve" smooth="yes"/>
      <point x="338" y="624"/>
      <point x="286" y="664"/>
      <point x="286" y="723" type="curve" smooth="yes"/>
      <point x="286" y="732"/>
      <point x="287" y="740"/>
    </contour>
    <contour>
      <point x="563" y="234" type="line"/>
      <point x="177" y="234" type="line"/>
      <point x="173" y="219"/>
      <point x="172" y="209"/>
      <point x="172" y="188" type="curve" smooth="yes"/>
      <point x="172" y="103"/>
      <point x="217" y="54"/>
      <point x="296" y="54" type="curve" smooth="yes"/>
      <point x="363" y="54"/>
      <point x="416" y="90"/>
      <point x="452" y="159" type="curve"/>
      <point x="536" y="159" type="line"/>
      <point x="505" y="51"/>
      <point x="402" y="-23"/>
      <point x="282" y="-23" type="curve" smooth="yes"/>
      <point x="225" y="-23"/>
      <point x="181" y="-7"/>
      <point x="146" y="27" type="curve" smooth="yes"/>
      <point x="107" y="64"/>
      <point x="84" y="119"/>
      <point x="84" y="173" type="curve" smooth="yes"/>
      <point x="84" y="254"/>
      <point x="121" y="368"/>
      <point x="168" y="431" type="curve" smooth="yes"/>
      <point x="218" y="498"/>
      <point x="302" y="539"/>
      <point x="389" y="539" type="curve" smooth="yes"/>
      <point x="497" y="539"/>
      <point x="580" y="464"/>
      <point x="580" y="368" type="curve" smooth="yes"/>
      <point x="580" y="341"/>
      <point x="575" y="299"/>
      <point x="566" y="251" type="curve" smooth="yes"/>
    </contour>
    <contour>
      <point x="195" y="306" type="curve"/>
      <point x="489" y="306" type="line"/>
      <point x="491" y="322"/>
      <point x="492" y="329"/>
      <point x="492" y="339" type="curve" smooth="yes"/>
      <point x="492" y="414"/>
      <point x="447" y="462"/>
      <point x="376" y="462" type="curve" smooth="yes"/>
      <point x="295" y="462"/>
      <point x="221" y="398"/>
    </contour>
  </outline>
</glyph>
<glyph name="edotaccent" format="1">
  <advance width="556"/>
  <unicode hex="0117"/>
  <outline>
    <contour>
      <point x="563" y="234" type="line"/>
      <point x="177" y="234" type="line"/>
      <point x="173" y="219"/>
      <point x="172" y="209"/>
      <point x="172" y="188" type="curve" smooth="yes"/>
      <point x="172" y="103"/>
      <point x="217" y="54"/>
      <point x="296" y="54" type="curve" smooth="yes"/>
      <point x="363" y="54"/>
      <point x="416" y="90"/>
      <point x="452" y="159" type="curve"/>
      <point x="536" y="159" type="line"/>
      <point x="505" y="51"/>
      <point x="402" y="-23"/>
      <point x="282" y="-23" type="curve" smooth="yes"/>
      <point x="225" y="-23"/>
      <point x="181" y="-7"/>
      <point x="146" y="27" type="curve" smooth="yes"/>
      <point x="107" y="64"/>
      <point x="84" y="119"/>
      <point x="84" y="173" type="curve" smooth="yes"/>
      <point x="84" y="254"/>
      <point x="121" y="368"/>
      <point x="168" y="431" type="curve" smooth="yes"/>
      <point x="218" y="498"/>
      <point x="302" y="539"/>
      <point x="389" y="539" type="curve" smooth="yes"/>
      <point x="497" y="539"/>
      <point x="580" y="464"/>
      <point x="580" y="368" type="curve" smooth="yes"/>
      <point x="580" y="341"/>
      <point x="575" y="299"/>
      <point x="566" y="251" type="curve" smooth="yes"/>
    </contour>
    <contour>
      <point x="195" y="306" type="curve"/>
      <point x="489" y="306" type="line"/>
      <point x="491" y="322"/>
      <point x="492" y="329"/>
      <point x="492" y="339" type="curve" smooth="yes"/>
      <point x="492" y="414"/>
      <point x="447" y="462"/>
      <point x="376" y="462" type="curve" smooth="yes"/>
      <point x="295" y="462"/>
      <point x="221" y="398"/>
    </contour>
    <contour>
      <point x="482" y="715" type="line"/>
      <point x="460" y="612" type="line"/>
      <point x="356" y="612" type="line"/>
      <point x="378" y="715" type="line"/>
    </contour>
  </outline>
</glyph>
<glyph name="gcommaaccent" format="1">
  <advance width="527"/>
  <unicode hex="0123"/>
  <outline>
    <contour>
      <point x="496" y="524" type="line"/>
      <point x="572" y="524" type="line"/>
      <point x="479" y="85" type="line" smooth="yes"/>
      <point x="452" y="-42"/>
      <point x="425" y="-103"/>
      <point x="375" y="-151" type="curve" smooth="yes"/>
      <point x="330" y="-194"/>
      <point x="259" y="-218"/>
      <point x="180" y="-218" type="curve" smooth="yes"/>
      <point x="73" y="-218"/>
      <point x="3" y="-168"/>
      <point x="3" y="-91" type="curve" smooth="yes"/>
      <point x="3" y="-87"/>
      <point x="3" y="-81"/>
      <point x="4" y="-73" type="curve" smooth="yes"/>
      <point x="5" y="-60" type="line"/>
      <point x="89" y="-60" type="line"/>
      <point x="89" y="-68" type="line"/>
      <point x="89" y="-74" type="line" smooth="yes"/>
      <point x="89" y="-119"/>
      <point x="129" y="-146"/>
      <point x="197" y="-146" type="curve" smooth="yes"/>
      <point x="303" y="-146"/>
      <point x="357" y="-92"/>
      <point x="386" y="44" type="curve" smooth="yes"/>
      <point x="390" y="63" type="line"/>
      <point x="340" y="10"/>
      <point x="281" y="-17"/>
      <point x="218" y="-17" type="curve" smooth="yes"/>
      <point x="116" y="-17"/>
      <point x="45" y="59"/>
      <point x="45" y="168" type="curve" smooth="yes"/>
      <point x="45" y="260"/>
      <point x="83" y="373"/>
      <point x="136" y="439" type="curve" smooth="yes"/>
      <point x="185" y="501"/>
      <point x="263" y="539"/>
      <point x="340" y="539" type="curve" smooth="yes"/>
      <point x="374" y="539"/>
      <point x="406" y="528"/>
      <point x="432" y="509" type="curve" smooth="yes"/>
      <point x="454" y="493"/>
      <point x="464" y="479"/>
      <point x="479" y="446" type="curve"/>
    </contour>
    <contour>
      <point x="334" y="462" type="curve" smooth="yes"/>
      <point x="271" y="462"/>
      <point x="215" y="425"/>
      <point x="179" y="360" type="curve" smooth="yes"/>
      <point x="150" y="308"/>
      <point x="133" y="244"/>
      <point x="133" y="184" type="curve" smooth="yes"/>
      <point x="133" y="105"/>
      <point x="175" y="55"/>
      <point x="242" y="55" type="curve" smooth="yes"/>
      <point x="302" y="55"/>
      <point x="361" y="93"/>
      <point x="394" y="154" type="curve"/>
      <point x="422" y="203"/>
      <point x="440" y="277"/>
      <point x="440" y="339" type="curve" smooth="yes"/>
      <point x="440" y="414"/>
      <point x="398" y="462"/>
    </contour>
    <contour>
      <point x="430" y="589" type="line"/>
      <point x="330" y="589" type="line"/>
      <point x="350" y="682" type="line" smooth="yes"/>
      <point x="368" y="764"/>
      <point x="415" y="813"/>
      <point x="478" y="813" type="curve"/>
      <point x="470" y="775" type="line"/>
      <point x="431" y="775"/>
      <point x="407" y="746"/>
      <point x="396" y="687" type="curve"/>
      <point x="451" y="687" type="line"/>
    </contour>
  </outline>
</glyph>
<glyph name="Hcircumflex" format="1">
  <advance width="722"/>
  <unicode hex="0124"/>
  <outline>
    <contour>
      <point x="524" y="979" type="line"/>
      <point x="619" y="979" type="line"/>
      <point x="683" y="829" type="line"/>
      <point x="620" y="829" type="line"/>
      <point x="564" y="928" type="line"/>
      <point x="460" y="829" type="line"/>
      <point x="396" y="829" type="line"/>
    </contour>
    <contour>
      <point x="621" y="332" type="line"/>
      <point x="248" y="332" type="line"/>
      <point x="177" y="0" type="line"/>
      <point x="83" y="0" type="line"/>
      <point x="238" y="729" type="line"/>
      <point x="332" y="729" type="line"/>
      <point x="265" y="414" type="line"/>
      <point x="638" y="414" type="line"/>
      <point x="705" y="729" type="line"/>
      <point x="799" y="729" type="line"/>
      <point x="644" y="0" type="line"/>
      <point x="550" y="0" type="line"/>
    </contour>
  </outline>
</glyph>
<glyph name="hcircumflex" format="1">
  <advance width="556"/>
  <unicode hex="0125"/>
  <outline>
    <contour>
      <point x="441" y="979" type="line"/>
      <point x="536" y="979" type="line"/>
      <point x="600" y="829" type="line"/>
      <point x="537" y="829" type="line"/>
      <point x="481" y="928" type="line"/>
      <point x="377" y="829" type="line"/>
      <point x="313" y="829" type="line"/>
    </contour>
    <contour>
      <point x="225" y="729" type="line"/>
      <point x="309" y="729" type="line"/>
      <point x="252" y="459" type="line"/>
      <point x="315" y="518"/>
      <point x="364" y="539"/>
      <point x="439" y="539" type="curve" smooth="yes"/>
      <point x="523" y="539"/>
      <point x="574" y="492"/>
      <point x="574" y="413" type="curve" smooth="yes"/>
      <point x="574" y="401"/>
      <point x="573" y="389"/>
      <point x="570" y="376" type="curve" smooth="yes"/>
      <point x="490" y="0" type="line"/>
      <point x="406" y="0" type="line"/>
      <point x="479" y="343" type="line" smooth="yes"/>
      <point x="485" y="370"/>
      <point x="485" y="370"/>
      <point x="485" y="382" type="curve" smooth="yes"/>
      <point x="485" y="433"/>
      <point x="451" y="467"/>
      <point x="400" y="467" type="curve" smooth="yes"/>
      <point x="309" y="467"/>
      <point x="239" y="399"/>
      <point x="215" y="289" type="curve" smooth="yes"/>
      <point x="154" y="0" type="line"/>
      <point x="70" y="0" type="line"/>
    </contour>
  </outline>
</glyph>
<glyph name="Hbar" format="1">
  <advance width="772"/>
  <unicode hex="0126"/>
  <outline>
    <contour>
      <point x="797" y="626" type="line"/>
      <point x="864" y="626" type="line"/>
      <point x="852" y="557" type="line"/>
      <point x="782" y="557" type="line"/>
      <point x="664" y="0" type="line"/>
      <point x="570" y="0" type="line"/>
      <point x="641" y="332" type="line"/>
      <point x="268" y="332" type="line"/>
      <point x="197" y="0" type="line"/>
      <point x="103" y="0" type="line"/>
      <point x="221" y="557" type="line"/>
      <point x="150" y="557" type="line"/>
      <point x="162" y="626" type="line"/>
      <point x="236" y="626" type="line"/>
      <point x="258" y="729" type="line"/>
      <point x="352" y="729" type="line"/>
      <point x="330" y="626" type="line"/>
      <point x="703" y="626" type="line"/>
      <point x="725" y="729" type="line"/>
      <point x="819" y="729" type="line"/>
    </contour>
    <contour>
      <point x="688" y="557" type="line"/>
      <point x="315" y="557" type="line"/>
      <point x="285" y="414" type="line"/>
      <point x="658" y="414" type="line"/>
    </contour>
  </outline>
</glyph>
<glyph name="hbar" format="1">
  <advance width="575"/>
  <unicode hex="0127"/>
  <outline>
    <contour>
      <point x="231" y="666" type="line"/>
      <point x="244" y="729" type="line"/>
      <point x="328" y="729" type="line"/>
      <point x="315" y="666" type="line"/>
      <point x="439" y="666" type="line"/>
      <point x="424" y="597" type="line"/>
      <point x="300" y="597" type="line"/>
      <point x="271" y="459" type="line"/>
      <point x="334" y="518"/>
      <point x="383" y="539"/>
      <point x="458" y="539" type="curve" smooth="yes"/>
      <point x="542" y="539"/>
      <point x="593" y="492"/>
      <point x="593" y="413" type="curve" smooth="yes"/>
      <point x="593" y="401"/>
      <point x="592" y="389"/>
      <point x="589" y="376" type="curve" smooth="yes"/>
      <point x="509" y="0" type="line"/>
      <point x="425" y="0" type="line"/>
      <point x="498" y="343" type="line" smooth="yes"/>
      <point x="504" y="370"/>
      <point x="504" y="370"/>
      <point x="504" y="382" type="curve" smooth="yes"/>
      <point x="504" y="433"/>
      <point x="470" y="467"/>
      <point x="419" y="467" type="curve" smooth="yes"/>
      <point x="328" y="467"/>
      <point x="258" y="399"/>
      <point x="234" y="289" type="curve" smooth="yes"/>
      <point x="173" y="0" type="line"/>
      <point x="89" y="0" type="line"/>
      <point x="216" y="597" type="line"/>
      <point x="149" y="597" type="line"/>
      <point x="164" y="666" type="line"/>
    </contour>
  </outline>
</glyph>
<glyph name="Itilde" format="1">
  <advance width="278"/>
  <unicode hex="0128"/>
  <outline>
    <contour>
      <point x="452" y="937" type="curve"/>
      <point x="505" y="937" type="line"/>
      <point x="484" y="872"/>
      <point x="442" y="830"/>
      <point x="397" y="830" type="curve" smooth="yes"/>
      <point x="375" y="830"/>
      <point x="358" y="834"/>
      <point x="294" y="856" type="curve" smooth="yes"/>
      <point x="283" y="860"/>
      <point x="273" y="862"/>
      <point x="267" y="862" type="curve" smooth="yes"/>
      <point x="248" y="862"/>
      <point x="236" y="856"/>
      <point x="224" y="838" type="curve" smooth="yes"/>
      <point x="222" y="836"/>
      <point x="220" y="833"/>
      <point x="217" y="829" type="curve"/>
      <point x="164" y="829" type="line"/>
      <point x="176" y="864"/>
      <point x="184" y="881"/>
      <point x="196" y="896" type="curve" smooth="yes"/>
      <point x="212" y="917"/>
      <point x="243" y="932"/>
      <point x="268" y="932" type="curve" smooth="yes"/>
      <point x="285" y="932"/>
      <point x="302" y="928"/>
      <point x="341" y="915" type="curve" smooth="yes"/>
      <point x="367" y="906"/>
      <point x="394" y="900"/>
      <point x="404" y="900" type="curve" smooth="yes"/>
      <point x="424" y="900"/>
      <point x="434" y="908"/>
    </contour>
    <contour>
      <point x="349" y="729" type="line"/>
      <point x="194" y="0" type="line"/>
      <point x="100" y="0" type="line"/>
      <point x="255" y="729" type="line"/>
    </contour>
  </outline>
</glyph>
<glyph name="itilde" format="1">
  <advance width="278"/>
  <unicode hex="0129"/>
  <outline>
    <contour>
      <point x="398" y="732" type="curve"/>
      <point x="451" y="732" type="line"/>
      <point x="430" y="667"/>
      <point x="388" y="625"/>
      <point x="343" y="625" type="curve" smooth="yes"/>
      <point x="321" y="625"/>
      <point x="304" y="629"/>
      <point x="240" y="651" type="curve" smooth="yes"/>
      <point x="229" y="655"/>
      <point x="219" y="657"/>
      <point x="213" y="657" type="curve" smooth="yes"/>
      <point x="194" y="657"/>
      <point x="182" y="651"/>
      <point x="170" y="633" type="curve" smooth="yes"/>
      <point x="168" y="631"/>
      <point x="166" y="628"/>
      <point x="163" y="624" type="curve"/>
      <point x="110" y="624" type="line"/>
      <point x="122" y="659"/>
      <point x="130" y="676"/>
      <point x="142" y="691" type="curve" smooth="yes"/>
      <point x="158" y="712"/>
      <point x="189" y="727"/>
      <point x="214" y="727" type="curve" smooth="yes"/>
      <point x="231" y="727"/>
      <point x="248" y="723"/>
      <point x="287" y="710" type="curve" smooth="yes"/>
      <point x="313" y="701"/>
      <point x="340" y="695"/>
      <point x="350" y="695" type="curve" smooth="yes"/>
      <point x="370" y="695"/>
      <point x="380" y="703"/>
    </contour>
    <contour>
      <point x="290" y="527" type="line"/>
      <point x="178" y="0" type="line"/>
      <point x="94" y="0" type="line"/>
      <point x="206" y="527" type="line"/>
    </contour>
  </outline>
</glyph>
<glyph name="Imacron" format="1">
  <advance width="278"/>
  <unicode hex="012A"/>
  <outline>
    <contour>
      <point x="349" y="729" type="line"/>
      <point x="194" y="0" type="line"/>
      <point x="100" y="0" type="line"/>
      <point x="255" y="729" type="line"/>
    </contour>
    <contour>
      <point x="458" y="895" type="line"/>
      <point x="443" y="826" type="line"/>
      <point x="195" y="826" type="line"/>
      <point x="211" y="895" type="line"/>
    </contour>
  </outline>
</glyph>
<glyph name="imacron" format="1">
  <advance width="222"/>
  <unicode hex="012B"/>
  <outline>
    <contour>
      <point x="261" y="524" type="line"/>
      <point x="150" y="0" type="line"/>
      <point x="66" y="0" type="line"/>
      <point x="177" y="524" type="line"/>
    </contour>
    <contour>
      <point x="373" y="696" type="line"/>
      <point x="358" y="627" type="line"/>
      <point x="124" y="627" type="line"/>
      <point x="139" y="696" type="line"/>
    </contour>
  </outline>
</glyph>
<glyph name="Ibreve" format="1">
  <advance width="278"/>
  <unicode hex="012C"/>
  <outline>
    <contour>
      <point x="202" y="964" type="curve"/>
      <point x="255" y="964" type="line"/>
      <point x="255" y="956" type="line"/>
      <point x="255" y="951" type="line" smooth="yes"/>
      <point x="255" y="921"/>
      <point x="288" y="901"/>
      <point x="337" y="901" type="curve" smooth="yes"/>
      <point x="396" y="901"/>
      <point x="437" y="924"/>
      <point x="447" y="964" type="curve"/>
      <point x="503" y="964" type="line"/>
      <point x="492" y="920"/>
      <point x="481" y="899"/>
      <point x="457" y="878" type="curve" smooth="yes"/>
      <point x="424" y="848"/>
      <point x="373" y="829"/>
      <point x="324" y="829" type="curve" smooth="yes"/>
      <point x="249" y="829"/>
      <point x="197" y="869"/>
      <point x="197" y="928" type="curve" smooth="yes"/>
      <point x="197" y="937"/>
      <point x="198" y="945"/>
    </contour>
    <contour>
      <point x="349" y="729" type="line"/>
      <point x="194" y="0" type="line"/>
      <point x="100" y="0" type="line"/>
      <point x="255" y="729" type="line"/>
    </contour>
  </outline>
</glyph>
<glyph name="ibreve" format="1">
  <advance width="278"/>
  <unicode hex="012D"/>
  <outline>
    <contour>
      <point x="147" y="759" type="curve"/>
      <point x="200" y="759" type="line"/>
      <point x="200" y="751" type="line"/>
      <point x="200" y="746" type="line" smooth="yes"/>
      <point x="200" y="716"/>
      <point x="233" y="696"/>
      <point x="282" y="696" type="curve" smooth="yes"/>
      <point x="341" y="696"/>
      <point x="382" y="719"/>
      <point x="392" y="759" type="curve"/>
      <point x="448" y="759" type="line"/>
      <point x="437" y="715"/>
      <point x="426" y="694"/>
      <point x="402" y="673" type="curve" smooth="yes"/>
      <point x="369" y="643"/>
      <point x="318" y="624"/>
      <point x="269" y="624" type="curve" smooth="yes"/>
      <point x="194" y="624"/>
      <point x="142" y="664"/>
      <point x="142" y="723" type="curve" smooth="yes"/>
      <point x="142" y="732"/>
      <point x="143" y="740"/>
    </contour>
    <contour>
      <point x="290" y="527" type="line"/>
      <point x="178" y="0" type="line"/>
      <point x="94" y="0" type="line"/>
      <point x="206" y="527" type="line"/>
    </contour>
  </outline>
</glyph>
<glyph name="Iogonek" format="1">
  <advance width="278"/>
  <unicode hex="012E"/>
  <outline>
    <contour>
      <point x="349" y="729" type="line"/>
      <point x="194" y="0" type="line"/>
      <point x="189" y="-4"/>
      <point x="184" y="-8"/>
      <point x="178" y="-12" type="curve" smooth="yes"/>
      <point x="128" y="-51"/>
      <point x="103" y="-86"/>
      <point x="103" y="-115" type="curve" smooth="yes"/>
      <point x="103" y="-142"/>
      <point x="127" y="-159"/>
      <point x="163" y="-159" type="curve" smooth="yes"/>
      <point x="178" y="-159"/>
      <point x="184" y="-158"/>
      <point x="209" y="-150" type="curve"/>
      <point x="200" y="-195" type="line"/>
      <point x="176" y="-203"/>
      <point x="164" y="-205"/>
      <point x="143" y="-205" type="curve" smooth="yes"/>
      <point x="76" y="-205"/>
      <point x="28" y="-174"/>
      <point x="28" y="-129" type="curve" smooth="yes"/>
      <point x="28" y="-96"/>
      <point x="43" y="-71"/>
      <point x="85" y="-35" type="curve" smooth="yes"/>
      <point x="103" y="-20"/>
      <point x="112" y="-13"/>
      <point x="135" y="0" type="curve"/>
      <point x="100" y="0" type="line"/>
      <point x="255" y="729" type="line"/>
    </contour>
  </outline>
</glyph>
<glyph name="iogonek" format="1">
  <advance width="222"/>
  <unicode hex="012F"/>
  <outline>
    <contour>
      <point x="261" y="524" type="line"/>
      <point x="150" y="0" type="line"/>
      <point x="105" y="-35"/>
      <point x="73" y="-84"/>
      <point x="73" y="-116" type="curve" smooth="yes"/>
      <point x="73" y="-142"/>
      <point x="94" y="-159"/>
      <point x="128" y="-159" type="curve" smooth="yes"/>
      <point x="140" y="-159"/>
      <point x="142" y="-158"/>
      <point x="164" y="-150" type="curve"/>
      <point x="155" y="-195" type="line"/>
      <point x="133" y="-202"/>
      <point x="120" y="-205"/>
      <point x="102" y="-205" type="curve" smooth="yes"/>
      <point x="42" y="-205"/>
      <point x="0" y="-173"/>
      <point x="0" y="-128" type="curve" smooth="yes"/>
      <point x="0" y="-88"/>
      <point x="36" y="-42"/>
      <point x="100" y="0" type="curve"/>
      <point x="66" y="0" type="line"/>
      <point x="177" y="524" type="line"/>
    </contour>
    <contour>
      <point x="305" y="729" type="line"/>
      <point x="282" y="626" type="line"/>
      <point x="198" y="626" type="line"/>
      <point x="221" y="729" type="line"/>
    </contour>
  </outline>
</glyph>
<glyph name="Idotaccent" format="1">
  <advance width="278"/>
  <unicode hex="0130"/>
  <outline>
    <contour>
      <point x="349" y="729" type="line"/>
      <point x="194" y="0" type="line"/>
      <point x="100" y="0" type="line"/>
      <point x="255" y="729" type="line"/>
    </contour>
    <contour>
      <point x="389" y="914" type="line"/>
      <point x="367" y="811" type="line"/>
      <point x="263" y="811" type="line"/>
      <point x="285" y="914" type="line"/>
    </contour>
  </outline>
</glyph>
<glyph name="IJ" format="1">
  <advance width="742"/>
  <unicode hex="0132"/>
  <outline>
    <contour>
      <point x="718" y="729" type="line"/>
      <point x="812" y="729" type="line"/>
      <point x="696" y="182" type="line" smooth="yes"/>
      <point x="668" y="51"/>
      <point x="576" y="-23"/>
      <point x="444" y="-23" type="curve" smooth="yes"/>
      <point x="395" y="-23"/>
      <point x="361" y="-13"/>
      <point x="333" y="9" type="curve" smooth="yes"/>
      <point x="299" y="37"/>
      <point x="278" y="79"/>
      <point x="278" y="122" type="curve" smooth="yes"/>
      <point x="278" y="136"/>
      <point x="280" y="153"/>
      <point x="284" y="170" type="curve" smooth="yes"/>
      <point x="298" y="234" type="line"/>
      <point x="392" y="234" type="line"/>
      <point x="378" y="168" type="line" smooth="yes"/>
      <point x="375" y="156"/>
      <point x="374" y="145"/>
      <point x="374" y="134" type="curve" smooth="yes"/>
      <point x="374" y="89"/>
      <point x="410" y="58"/>
      <point x="464" y="58" type="curve" smooth="yes"/>
      <point x="501" y="58"/>
      <point x="538" y="75"/>
      <point x="562" y="102" type="curve" smooth="yes"/>
      <point x="584" y="127"/>
      <point x="597" y="160"/>
      <point x="609" y="216" type="curve" smooth="yes"/>
    </contour>
    <contour>
      <point x="349" y="729" type="line"/>
      <point x="194" y="0" type="line"/>
      <point x="100" y="0" type="line"/>
      <point x="255" y="729" type="line"/>
    </contour>
  </outline>
</glyph>
<glyph name="ij" format="1">
  <advance width="362"/>
  <unicode hex="0133"/>
  <outline>
    <contour>
      <point x="315" y="524" type="line"/>
      <point x="399" y="524" type="line"/>
      <point x="265" y="-109" type="line" smooth="yes"/>
      <point x="247" y="-191"/>
      <point x="204" y="-218"/>
      <point x="89" y="-218" type="curve" smooth="yes"/>
      <point x="80" y="-218"/>
      <point x="77" y="-217"/>
      <point x="70" y="-215" type="curve"/>
      <point x="85" y="-144" type="line"/>
      <point x="103" y="-146"/>
      <point x="105" y="-146"/>
      <point x="110" y="-146" type="curve" smooth="yes"/>
      <point x="161" y="-146"/>
      <point x="176" y="-132"/>
      <point x="188" y="-76" type="curve" smooth="yes"/>
    </contour>
    <contour>
      <point x="443" y="729" type="line"/>
      <point x="421" y="626" type="line"/>
      <point x="337" y="626" type="line"/>
      <point x="359" y="729" type="line"/>
    </contour>
    <contour>
      <point x="261" y="524" type="line"/>
      <point x="150" y="0" type="line"/>
      <point x="66" y="0" type="line"/>
      <point x="177" y="524" type="line"/>
    </contour>
    <contour>
      <point x="305" y="729" type="line"/>
      <point x="283" y="626" type="line"/>
      <point x="199" y="626" type="line"/>
      <point x="221" y="729" type="line"/>
    </contour>
  </outline>
</glyph>
<glyph name="jcircumflex" format="1">
  <advance width="222"/>
  <unicode hex="0135"/>
  <outline>
    <contour>
      <point x="180" y="524" type="line"/>
      <point x="264" y="524" type="line"/>
      <point x="130" y="-109" type="line" smooth="yes"/>
      <point x="112" y="-191"/>
      <point x="69" y="-218"/>
      <point x="-46" y="-218" type="curve" smooth="yes"/>
      <point x="-55" y="-218"/>
      <point x="-58" y="-217"/>
      <point x="-65" y="-215" type="curve"/>
      <point x="-50" y="-144" type="line"/>
      <point x="-32" y="-146"/>
      <point x="-30" y="-146"/>
      <point x="-25" y="-146" type="curve" smooth="yes"/>
      <point x="26" y="-146"/>
      <point x="41" y="-132"/>
      <point x="53" y="-76" type="curve" smooth="yes"/>
    </contour>
    <contour>
      <point x="228" y="828" type="line"/>
      <point x="323" y="828" type="line"/>
      <point x="387" y="678" type="line"/>
      <point x="324" y="678" type="line"/>
      <point x="268" y="777" type="line"/>
      <point x="164" y="678" type="line"/>
      <point x="100" y="678" type="line"/>
    </contour>
  </outline>
</glyph>
<glyph name="Kcommaaccent" format="1">
  <advance width="667"/>
  <unicode hex="0136"/>
  <outline>
    <contour>
      <point x="226" y="249" type="line"/>
      <point x="173" y="0" type="line"/>
      <point x="79" y="0" type="line"/>
      <point x="234" y="729" type="line"/>
      <point x="328" y="729" type="line"/>
      <point x="249" y="356" type="line"/>
      <point x="693" y="729" type="line"/>
      <point x="813" y="729" type="line"/>
      <point x="452" y="431" type="line"/>
      <point x="658" y="0" type="line"/>
      <point x="548" y="0" type="line"/>
      <point x="380" y="376" type="line"/>
    </contour>
    <contour>
      <point x="286" y="-60" type="line"/>
      <point x="386" y="-60" type="line"/>
      <point x="367" y="-153" type="line"/>
      <point x="349" y="-235"/>
      <point x="301" y="-284"/>
      <point x="238" y="-284" type="curve"/>
      <point x="246" y="-246" type="line"/>
      <point x="285" y="-246"/>
      <point x="309" y="-217"/>
      <point x="320" y="-158" type="curve"/>
      <point x="265" y="-158" type="line"/>
    </contour>
  </outline>
</glyph>
<glyph name="kcommaaccent" format="1">
  <advance width="500"/>
  <unicode hex="0137"/>
  <outline>
    <contour>
      <point x="297" y="729" type="line"/>
      <point x="207" y="306" type="line"/>
      <point x="476" y="524" type="line"/>
      <point x="584" y="524" type="line"/>
      <point x="362" y="343" type="line"/>
      <point x="502" y="0" type="line"/>
      <point x="406" y="0" type="line"/>
      <point x="292" y="291" type="line"/>
      <point x="185" y="203" type="line"/>
      <point x="142" y="0" type="line"/>
      <point x="58" y="0" type="line"/>
      <point x="213" y="729" type="line"/>
    </contour>
    <contour>
      <point x="207" y="-60" type="line"/>
      <point x="307" y="-60" type="line"/>
      <point x="288" y="-153" type="line"/>
      <point x="270" y="-235"/>
      <point x="222" y="-284"/>
      <point x="159" y="-284" type="curve"/>
      <point x="167" y="-246" type="line"/>
      <point x="206" y="-246"/>
      <point x="230" y="-217"/>
      <point x="241" y="-158" type="curve"/>
      <point x="186" y="-158" type="line"/>
    </contour>
  </outline>
</glyph>
<glyph name="kgreenlandic" format="1">
  <advance width="510"/>
  <unicode hex="0138"/>
  <outline>
    <contour>
      <point x="264" y="524" type="line"/>
      <point x="217" y="302" type="line"/>
      <point x="486" y="524" type="line"/>
      <point x="593" y="524" type="line"/>
      <point x="266" y="264" type="line"/>
      <point x="514" y="0" type="line"/>
      <point x="411" y="0" type="line"/>
      <point x="199" y="216" type="line"/>
      <point x="153" y="0" type="line"/>
      <point x="70" y="0" type="line"/>
      <point x="181" y="524" type="line"/>
    </contour>
  </outline>
</glyph>
<glyph name="Lacute" format="1">
  <advance width="556"/>
  <unicode hex="0139"/>
  <outline>
    <contour>
      <point x="329" y="729" type="line"/>
      <point x="191" y="82" type="line"/>
      <point x="551" y="82" type="line"/>
      <point x="534" y="0" type="line"/>
      <point x="80" y="0" type="line"/>
      <point x="235" y="729" type="line"/>
    </contour>
    <contour>
      <point x="368" y="939" type="line"/>
      <point x="480" y="939" type="line"/>
      <point x="300" y="791" type="line"/>
      <point x="240" y="791" type="line"/>
    </contour>
  </outline>
</glyph>
<glyph name="lacute" format="1">
  <advance width="222"/>
  <unicode hex="013A"/>
  <outline>
    <contour>
      <point x="307" y="729" type="line"/>
      <point x="152" y="0" type="line"/>
      <point x="68" y="0" type="line"/>
      <point x="223" y="729" type="line"/>
    </contour>
    <contour>
      <point x="351" y="939" type="line"/>
      <point x="463" y="939" type="line"/>
      <point x="283" y="791" type="line"/>
      <point x="223" y="791" type="line"/>
    </contour>
  </outline>
</glyph>
<glyph name="lcommaaccent" format="1">
  <advance width="222"/>
  <unicode hex="013C"/>
  <outline>
    <contour>
      <point x="307" y="729" type="line"/>
      <point x="152" y="0" type="line"/>
      <point x="68" y="0" type="line"/>
      <point x="223" y="729" type="line"/>
    </contour>
    <contour>
      <point x="47" y="-60" type="line"/>
      <point x="147" y="-60" type="line"/>
      <point x="128" y="-153" type="line"/>
      <point x="110" y="-235"/>
      <point x="62" y="-284"/>
      <point x="-1" y="-284" type="curve"/>
      <point x="7" y="-246" type="line"/>
      <point x="46" y="-246"/>
      <point x="70" y="-217"/>
      <point x="81" y="-158" type="curve"/>
      <point x="26" y="-158" type="line"/>
    </contour>
  </outline>
</glyph>
<glyph name="Lcaron" format="1">
  <advance width="556"/>
  <unicode hex="013D"/>
  <outline>
    <contour>
      <point x="329" y="729" type="line"/>
      <point x="191" y="82" type="line"/>
      <point x="551" y="82" type="line"/>
      <point x="534" y="0" type="line"/>
      <point x="80" y="0" type="line"/>
      <point x="235" y="729" type="line"/>
    </contour>
    <contour>
      <point x="429" y="729" type="line"/>
      <point x="529" y="729" type="line"/>
      <point x="510" y="636" type="line"/>
      <point x="492" y="554"/>
      <point x="444" y="505"/>
      <point x="381" y="505" type="curve"/>
      <point x="389" y="543" type="line"/>
      <point x="428" y="543"/>
      <point x="452" y="572"/>
      <point x="463" y="631" type="curve"/>
      <point x="408" y="631" type="line"/>
    </contour>
  </outline>
</glyph>
<glyph name="lcaron" format="1">
  <advance width="307"/>
  <unicode hex="013E"/>
  <outline>
    <contour>
      <point x="307" y="729" type="line"/>
      <point x="152" y="0" type="line"/>
      <point x="68" y="0" type="line"/>
      <point x="223" y="729" type="line"/>
    </contour>
    <contour>
      <point x="367" y="729" type="line"/>
      <point x="467" y="729" type="line"/>
      <point x="448" y="636" type="line"/>
      <point x="430" y="554"/>
      <point x="382" y="505"/>
      <point x="319" y="505" type="curve"/>
      <point x="327" y="543" type="line"/>
      <point x="366" y="543"/>
      <point x="390" y="572"/>
      <point x="401" y="631" type="curve"/>
      <point x="346" y="631" type="line"/>
    </contour>
  </outline>
</glyph>
<glyph name="Ldot" format="1">
  <advance width="556"/>
  <unicode hex="013F"/>
  <outline>
    <contour>
      <point x="480" y="416" type="line"/>
      <point x="458" y="313" type="line"/>
      <point x="353" y="313" type="line"/>
      <point x="375" y="416" type="line"/>
    </contour>
    <contour>
      <point x="329" y="729" type="line"/>
      <point x="191" y="82" type="line"/>
      <point x="551" y="82" type="line"/>
      <point x="534" y="0" type="line"/>
      <point x="80" y="0" type="line"/>
      <point x="235" y="729" type="line"/>
    </contour>
  </outline>
</glyph>
<glyph name="ldot" format="1">
  <advance width="500"/>
  <unicode hex="0140"/>
  <outline>
    <contour>
      <point x="445" y="393" type="line"/>
      <point x="423" y="290" type="line"/>
      <point x="318" y="290" type="line"/>
      <point x="340" y="393" type="line"/>
    </contour>
    <contour>
      <point x="307" y="729" type="line"/>
      <point x="152" y="0" type="line"/>
      <point x="68" y="0" type="line"/>
      <point x="223" y="729" type="line"/>
    </contour>
  </outline>
</glyph>
<glyph name="nacute" format="1">
  <advance width="556"/>
  <unicode hex="0144"/>
  <outline>
    <contour>
      <point x="181" y="524" type="line"/>
      <point x="257" y="524" type="line"/>
      <point x="244" y="459" type="line"/>
      <point x="296" y="512"/>
      <point x="362" y="539"/>
      <point x="438" y="539" type="curve" smooth="yes"/>
      <point x="521" y="539"/>
      <point x="574" y="490"/>
      <point x="574" y="414" type="curve" smooth="yes"/>
      <point x="574" y="401"/>
      <point x="573" y="389"/>
      <point x="570" y="376" type="curve" smooth="yes"/>
      <point x="490" y="0" type="line"/>
      <point x="406" y="0" type="line"/>
      <point x="480" y="349" type="line" smooth="yes"/>
      <point x="484" y="365"/>
      <point x="486" y="380"/>
      <point x="486" y="386" type="curve" smooth="yes"/>
      <point x="486" y="432"/>
      <point x="449" y="467"/>
      <point x="399" y="467" type="curve" smooth="yes"/>
      <point x="309" y="467"/>
      <point x="239" y="399"/>
      <point x="215" y="289" type="curve" smooth="yes"/>
      <point x="154" y="0" type="line"/>
      <point x="70" y="0" type="line"/>
    </contour>
    <contour>
      <point x="468" y="740" type="line"/>
      <point x="580" y="740" type="line"/>
      <point x="400" y="592" type="line"/>
      <point x="340" y="592" type="line"/>
    </contour>
  </outline>
</glyph>
<glyph name="Ncommaaccent" format="1">
  <advance width="722"/>
  <unicode hex="0145"/>
  <outline>
    <contour>
      <point x="801" y="729" type="line"/>
      <point x="646" y="0" type="line"/>
      <point x="540" y="0" type="line"/>
      <point x="291" y="591" type="line"/>
      <point x="165" y="0" type="line"/>
      <point x="76" y="0" type="line"/>
      <point x="231" y="729" type="line"/>
      <point x="335" y="729" type="line"/>
      <point x="585" y="131" type="line"/>
      <point x="712" y="729" type="line"/>
    </contour>
    <contour>
      <point x="282" y="-60" type="line"/>
      <point x="382" y="-60" type="line"/>
      <point x="363" y="-153" type="line"/>
      <point x="345" y="-235"/>
      <point x="297" y="-284"/>
      <point x="234" y="-284" type="curve"/>
      <point x="242" y="-246" type="line"/>
      <point x="281" y="-246"/>
      <point x="305" y="-217"/>
      <point x="316" y="-158" type="curve"/>
      <point x="261" y="-158" type="line"/>
    </contour>
  </outline>
</glyph>
<glyph name="napostrophe" format="1">
  <advance width="556"/>
  <unicode hex="0149"/>
  <outline>
    <contour>
      <point x="242" y="788" type="line"/>
      <point x="336" y="788" type="line"/>
      <point x="315" y="688" type="line" smooth="yes"/>
      <point x="298" y="609"/>
      <point x="254" y="561"/>
      <point x="193" y="557" type="curve"/>
      <point x="201" y="595" type="line"/>
      <point x="237" y="600"/>
      <point x="258" y="628"/>
      <point x="268" y="685" type="curve"/>
      <point x="220" y="685" type="line"/>
    </contour>
    <contour>
      <point x="181" y="524" type="line"/>
      <point x="257" y="524" type="line"/>
      <point x="244" y="459" type="line"/>
      <point x="296" y="512"/>
      <point x="362" y="539"/>
      <point x="438" y="539" type="curve" smooth="yes"/>
      <point x="521" y="539"/>
      <point x="574" y="490"/>
      <point x="574" y="414" type="curve" smooth="yes"/>
      <point x="574" y="401"/>
      <point x="573" y="389"/>
      <point x="570" y="376" type="curve" smooth="yes"/>
      <point x="490" y="0" type="line"/>
      <point x="406" y="0" type="line"/>
      <point x="480" y="349" type="line" smooth="yes"/>
      <point x="484" y="365"/>
      <point x="486" y="380"/>
      <point x="486" y="386" type="curve" smooth="yes"/>
      <point x="486" y="432"/>
      <point x="449" y="467"/>
      <point x="399" y="467" type="curve" smooth="yes"/>
      <point x="309" y="467"/>
      <point x="239" y="399"/>
      <point x="215" y="289" type="curve" smooth="yes"/>
      <point x="154" y="0" type="line"/>
      <point x="70" y="0" type="line"/>
    </contour>
  </outline>
</glyph>
<glyph name="Eng" format="1">
  <advance width="722"/>
  <unicode hex="014A"/>
  <outline>
    <contour>
      <point x="646" y="0" type="line" smooth="yes"/>
      <point x="628" y="-85"/>
      <point x="566" y="-156"/>
      <point x="439" y="-156" type="curve"/>
      <point x="451" y="-101" type="line"/>
      <point x="495" y="-101"/>
      <point x="542" y="-60"/>
      <point x="542" y="-19" type="curve" smooth="yes"/>
      <point x="542" y="-13"/>
      <point x="541" y="-6"/>
      <point x="538" y="0" type="curve" smooth="yes"/>
      <point x="291" y="591" type="line"/>
      <point x="165" y="0" type="line"/>
      <point x="76" y="0" type="line"/>
      <point x="231" y="729" type="line"/>
      <point x="335" y="729" type="line"/>
      <point x="585" y="131" type="line"/>
      <point x="712" y="729" type="line"/>
      <point x="801" y="729" type="line"/>
    </contour>
  </outline>
</glyph>
<glyph name="eng" format="1">
  <advance width="556"/>
  <unicode hex="014B"/>
  <outline>
    <contour>
      <point x="406" y="0" type="curve" smooth="yes"/>
      <point x="480" y="349" type="line" smooth="yes"/>
      <point x="483" y="365"/>
      <point x="486" y="380"/>
      <point x="486" y="386" type="curve" smooth="yes"/>
      <point x="486" y="432"/>
      <point x="449" y="467"/>
      <point x="399" y="467" type="curve" smooth="yes"/>
      <point x="309" y="467"/>
      <point x="239" y="399"/>
      <point x="215" y="289" type="curve" smooth="yes"/>
      <point x="154" y="0" type="line"/>
      <point x="70" y="0" type="line"/>
      <point x="181" y="524" type="line"/>
      <point x="257" y="524" type="line"/>
      <point x="244" y="459" type="line"/>
      <point x="296" y="512"/>
      <point x="362" y="539"/>
      <point x="438" y="539" type="curve" smooth="yes"/>
      <point x="521" y="539"/>
      <point x="574" y="490"/>
      <point x="574" y="414" type="curve" smooth="yes"/>
      <point x="574" y="401"/>
      <point x="573" y="389"/>
      <point x="570" y="376" type="curve" smooth="yes"/>
      <point x="490" y="0" type="line" smooth="yes"/>
      <point x="472" y="-85"/>
      <point x="440" y="-126"/>
      <point x="313" y="-126" type="curve"/>
      <point x="325" y="-71" type="line"/>
      <point x="376" y="-71"/>
      <point x="396" y="-48"/>
    </contour>
  </outline>
</glyph>
<glyph name="Ohungarumlaut" format="1">
  <advance width="778"/>
  <unicode hex="0150"/>
  <outline>
    <contour>
      <point x="537" y="741" type="curve" smooth="yes"/>
      <point x="628" y="741"/>
      <point x="707" y="713"/>
      <point x="756" y="664" type="curve" smooth="yes"/>
      <point x="800" y="619"/>
      <point x="828" y="543"/>
      <point x="828" y="464" type="curve" smooth="yes"/>
      <point x="828" y="306"/>
      <point x="752" y="144"/>
      <point x="635" y="54" type="curve" smooth="yes"/>
      <point x="570" y="4"/>
      <point x="485" y="-23"/>
      <point x="391" y="-23" type="curve" smooth="yes"/>
      <point x="306" y="-23"/>
      <point x="225" y="6"/>
      <point x="177" y="54" type="curve" smooth="yes"/>
      <point x="131" y="100"/>
      <point x="104" y="177"/>
      <point x="104" y="263" type="curve" smooth="yes"/>
      <point x="104" y="390"/>
      <point x="157" y="522"/>
      <point x="246" y="614" type="curve" smooth="yes"/>
      <point x="327" y="699"/>
      <point x="424" y="741"/>
    </contour>
    <contour>
      <point x="525" y="660" type="curve" smooth="yes"/>
      <point x="431" y="660"/>
      <point x="342" y="613"/>
      <point x="284" y="533" type="curve" smooth="yes"/>
      <point x="231" y="460"/>
      <point x="200" y="363"/>
      <point x="200" y="271" type="curve" smooth="yes"/>
      <point x="200" y="213"/>
      <point x="214" y="164"/>
      <point x="241" y="130" type="curve" smooth="yes"/>
      <point x="276" y="86"/>
      <point x="339" y="58"/>
      <point x="404" y="58" type="curve" smooth="yes"/>
      <point x="501" y="58"/>
      <point x="589" y="104"/>
      <point x="647" y="185" type="curve"/>
      <point x="700" y="257"/>
      <point x="732" y="355"/>
      <point x="732" y="446" type="curve" smooth="yes"/>
      <point x="732" y="505"/>
      <point x="718" y="553"/>
      <point x="691" y="588" type="curve" smooth="yes"/>
      <point x="657" y="632"/>
      <point x="593" y="660"/>
    </contour>
    <contour>
      <point x="555" y="939" type="line"/>
      <point x="667" y="939" type="line"/>
      <point x="487" y="789" type="line"/>
      <point x="427" y="789" type="line"/>
    </contour>
    <contour>
      <point x="729" y="939" type="line"/>
      <point x="841" y="939" type="line"/>
      <point x="661" y="789" type="line"/>
      <point x="601" y="789" type="line"/>
    </contour>
  </outline>
</glyph>
<glyph name="OE" format="1">
  <advance width="1000"/>
  <unicode hex="0152"/>
  <outline>
    <contour>
      <point x="687" y="327" type="line"/>
      <point x="634" y="82" type="line"/>
      <point x="974" y="82" type="line"/>
      <point x="957" y="0" type="line"/>
      <point x="523" y="0" type="line"/>
      <point x="539" y="77" type="line"/>
      <point x="482" y="7"/>
      <point x="419" y="-23"/>
      <point x="332" y="-23" type="curve" smooth="yes"/>
      <point x="193" y="-23"/>
      <point x="101" y="73"/>
      <point x="101" y="219" type="curve" smooth="yes"/>
      <point x="101" y="359"/>
      <point x="158" y="529"/>
      <point x="235" y="616" type="curve" smooth="yes"/>
      <point x="304" y="693"/>
      <point x="404" y="741"/>
      <point x="496" y="741" type="curve" smooth="yes"/>
      <point x="579" y="741"/>
      <point x="631" y="714"/>
      <point x="662" y="653" type="curve"/>
      <point x="678" y="729" type="line"/>
      <point x="1108" y="729" type="line"/>
      <point x="1091" y="647" type="line"/>
      <point x="755" y="647" type="line"/>
      <point x="704" y="409" type="line"/>
      <point x="1031" y="409" type="line"/>
      <point x="1013" y="327" type="line"/>
    </contour>
    <contour>
      <point x="562" y="182" type="curve"/>
      <point x="638" y="539" type="line"/>
      <point x="619" y="621"/>
      <point x="568" y="660"/>
      <point x="480" y="660" type="curve" smooth="yes"/>
      <point x="393" y="660"/>
      <point x="320" y="613"/>
      <point x="269" y="523" type="curve" smooth="yes"/>
      <point x="229" y="454"/>
      <point x="197" y="318"/>
      <point x="197" y="222" type="curve" smooth="yes"/>
      <point x="197" y="120"/>
      <point x="256" y="58"/>
      <point x="352" y="58" type="curve" smooth="yes"/>
      <point x="436" y="58"/>
      <point x="505" y="99"/>
    </contour>
  </outline>
</glyph>
<glyph name="rcaron" format="1">
  <advance width="333"/>
  <unicode hex="0159"/>
  <outline>
    <contour>
      <point x="180" y="524" type="line"/>
      <point x="256" y="524" type="line"/>
      <point x="239" y="442" type="line"/>
      <point x="301" y="513"/>
      <point x="346" y="539"/>
      <point x="404" y="539" type="curve" smooth="yes"/>
      <point x="415" y="539"/>
      <point x="423" y="538"/>
      <point x="436" y="536" type="curve"/>
      <point x="418" y="451" type="line"/>
      <point x="308" y="455"/>
      <point x="237" y="394"/>
      <point x="211" y="272" type="curve" smooth="yes"/>
      <point x="153" y="0" type="line"/>
      <point x="69" y="0" type="line"/>
    </contour>
    <contour>
      <point x="358" y="592" type="line"/>
      <point x="263" y="592" type="line"/>
      <point x="199" y="740" type="line"/>
      <point x="262" y="740" type="line"/>
      <point x="318" y="642" type="line"/>
      <point x="422" y="740" type="line"/>
      <point x="486" y="740" type="line"/>
    </contour>
  </outline>
</glyph>
<glyph name="scircumflex" format="1">
  <advance width="500"/>
  <unicode hex="015D"/>
  <outline>
    <contour>
      <point x="362" y="774" type="line"/>
      <point x="457" y="774" type="line"/>
      <point x="521" y="624" type="line"/>
      <point x="458" y="624" type="line"/>
      <point x="402" y="723" type="line"/>
      <point x="298" y="624" type="line"/>
      <point x="234" y="624" type="line"/>
    </contour>
    <contour>
      <point x="514" y="378" type="curve"/>
      <point x="430" y="378" type="line"/>
      <point x="431" y="386"/>
      <point x="431" y="393"/>
      <point x="431" y="400" type="curve" smooth="yes"/>
      <point x="431" y="439"/>
      <point x="398" y="462"/>
      <point x="339" y="462" type="curve" smooth="yes"/>
      <point x="295" y="462"/>
      <point x="265" y="452"/>
      <point x="241" y="429" type="curve" smooth="yes"/>
      <point x="223" y="412"/>
      <point x="211" y="387"/>
      <point x="211" y="367" type="curve" smooth="yes"/>
      <point x="211" y="341"/>
      <point x="240" y="321"/>
      <point x="296" y="307" type="curve" smooth="yes"/>
      <point x="372" y="288" type="line" smooth="yes"/>
      <point x="460" y="266"/>
      <point x="493" y="234"/>
      <point x="493" y="173" type="curve" smooth="yes"/>
      <point x="493" y="54"/>
      <point x="396" y="-23"/>
      <point x="247" y="-23" type="curve" smooth="yes"/>
      <point x="131" y="-23"/>
      <point x="61" y="25"/>
      <point x="61" y="105" type="curve" smooth="yes"/>
      <point x="61" y="121"/>
      <point x="62" y="133"/>
      <point x="67" y="156" type="curve"/>
      <point x="156" y="156" type="line"/>
      <point x="155" y="146"/>
      <point x="154" y="137"/>
      <point x="154" y="131" type="curve" smooth="yes"/>
      <point x="154" y="81"/>
      <point x="193" y="54"/>
      <point x="262" y="54" type="curve" smooth="yes"/>
      <point x="305" y="54"/>
      <point x="348" y="67"/>
      <point x="373" y="88" type="curve" smooth="yes"/>
      <point x="389" y="101"/>
      <point x="405" y="132"/>
      <point x="405" y="150" type="curve" smooth="yes"/>
      <point x="405" y="159"/>
      <point x="399" y="174"/>
      <point x="392" y="183" type="curve" smooth="yes"/>
      <point x="383" y="194"/>
      <point x="368" y="200"/>
      <point x="335" y="209" type="curve" smooth="yes"/>
      <point x="261" y="228" type="line" smooth="yes"/>
      <point x="158" y="255"/>
      <point x="123" y="284"/>
      <point x="123" y="345" type="curve" smooth="yes"/>
      <point x="123" y="392"/>
      <point x="147" y="444"/>
      <point x="183" y="479" type="curve" smooth="yes"/>
      <point x="224" y="518"/>
      <point x="285" y="539"/>
      <point x="356" y="539" type="curve" smooth="yes"/>
      <point x="453" y="539"/>
      <point x="520" y="491"/>
      <point x="520" y="421" type="curve" smooth="yes"/>
      <point x="520" y="408"/>
      <point x="519" y="399"/>
    </contour>
  </outline>
</glyph>
<glyph name="Scedilla" format="1">
  <advance width="667"/>
  <unicode hex="015E"/>
  <outline>
    <contour>
      <point x="338" y="-22" type="curve"/>
      <point x="320" y="-56" type="line"/>
      <point x="333" y="-54"/>
      <point x="336" y="-54"/>
      <point x="341" y="-54" type="curve" smooth="yes"/>
      <point x="378" y="-54"/>
      <point x="408" y="-77"/>
      <point x="408" y="-105" type="curve" smooth="yes"/>
      <point x="408" y="-168"/>
      <point x="347" y="-214"/>
      <point x="263" y="-214" type="curve" smooth="yes"/>
      <point x="225" y="-214"/>
      <point x="197" y="-206"/>
      <point x="145" y="-180" type="curve"/>
      <point x="173" y="-142" type="line"/>
      <point x="213" y="-163"/>
      <point x="239" y="-171"/>
      <point x="267" y="-171" type="curve" smooth="yes"/>
      <point x="304" y="-171"/>
      <point x="330" y="-148"/>
      <point x="330" y="-116" type="curve" smooth="yes"/>
      <point x="330" y="-104"/>
      <point x="315" y="-94"/>
      <point x="299" y="-94" type="curve" smooth="yes"/>
      <point x="294" y="-94"/>
      <point x="294" y="-94"/>
      <point x="279" y="-97" type="curve" smooth="yes"/>
      <point x="272" y="-98" type="line"/>
      <point x="259" y="-92" type="line"/>
      <point x="296" y="-22" type="line"/>
      <point x="227" y="-13"/>
      <point x="199" y="-4"/>
      <point x="169" y="15" type="curve" smooth="yes"/>
      <point x="118" y="49"/>
      <point x="89" y="105"/>
      <point x="89" y="169" type="curve" smooth="yes"/>
      <point x="89" y="190"/>
      <point x="91" y="206"/>
      <point x="98" y="232" type="curve"/>
      <point x="185" y="232" type="line"/>
      <point x="182" y="213"/>
      <point x="181" y="204"/>
      <point x="181" y="191" type="curve" smooth="yes"/>
      <point x="181" y="100"/>
      <point x="233" y="58"/>
      <point x="346" y="58" type="curve" smooth="yes"/>
      <point x="426" y="58"/>
      <point x="485" y="77"/>
      <point x="526" y="114" type="curve" smooth="yes"/>
      <point x="554" y="140"/>
      <point x="573" y="179"/>
      <point x="573" y="209" type="curve" smooth="yes"/>
      <point x="573" y="257"/>
      <point x="540" y="286"/>
      <point x="460" y="309" type="curve" smooth="yes"/>
      <point x="289" y="357" type="line" smooth="yes"/>
      <point x="222" y="376"/>
      <point x="178" y="429"/>
      <point x="178" y="492" type="curve" smooth="yes"/>
      <point x="178" y="543"/>
      <point x="209" y="614"/>
      <point x="250" y="656" type="curve" smooth="yes"/>
      <point x="304" y="712"/>
      <point x="385" y="741"/>
      <point x="488" y="741" type="curve" smooth="yes"/>
      <point x="566" y="741"/>
      <point x="619" y="725"/>
      <point x="660" y="689" type="curve" smooth="yes"/>
      <point x="693" y="660"/>
      <point x="714" y="614"/>
      <point x="714" y="571" type="curve" smooth="yes"/>
      <point x="714" y="555"/>
      <point x="712" y="543"/>
      <point x="706" y="515" type="curve"/>
      <point x="618" y="515" type="line"/>
      <point x="621" y="535"/>
      <point x="622" y="543"/>
      <point x="622" y="551" type="curve" smooth="yes"/>
      <point x="622" y="579"/>
      <point x="609" y="612"/>
      <point x="590" y="629" type="curve" smooth="yes"/>
      <point x="568" y="649"/>
      <point x="526" y="660"/>
      <point x="470" y="660" type="curve" smooth="yes"/>
      <point x="404" y="660"/>
      <point x="355" y="644"/>
      <point x="318" y="611" type="curve" smooth="yes"/>
      <point x="289" y="584"/>
      <point x="274" y="553"/>
      <point x="274" y="518" type="curve" smooth="yes"/>
      <point x="274" y="474"/>
      <point x="298" y="454"/>
      <point x="375" y="432" type="curve" smooth="yes"/>
      <point x="547" y="383" type="line" smooth="yes"/>
      <point x="594" y="370"/>
      <point x="623" y="350"/>
      <point x="645" y="315" type="curve" smooth="yes"/>
      <point x="660" y="291"/>
      <point x="669" y="263"/>
      <point x="669" y="237" type="curve" smooth="yes"/>
      <point x="669" y="165"/>
      <point x="616" y="78"/>
      <point x="545" y="32" type="curve" smooth="yes"/>
      <point x="489" y="-4"/>
      <point x="422" y="-22"/>
    </contour>
  </outline>
</glyph>
<glyph name="Tcommaaccent" format="1">
  <advance width="611"/>
  <unicode hex="0162"/>
  <outline>
    <contour>
      <point x="493" y="647" type="line"/>
      <point x="355" y="0" type="line"/>
      <point x="261" y="0" type="line"/>
      <point x="399" y="647" type="line"/>
      <point x="158" y="647" type="line"/>
      <point x="175" y="729" type="line"/>
      <point x="748" y="729" type="line"/>
      <point x="731" y="647" type="line"/>
    </contour>
    <contour>
      <point x="244" y="-60" type="line"/>
      <point x="344" y="-60" type="line"/>
      <point x="325" y="-153" type="line"/>
      <point x="307" y="-235"/>
      <point x="259" y="-284"/>
      <point x="196" y="-284" type="curve"/>
      <point x="204" y="-246" type="line"/>
      <point x="243" y="-246"/>
      <point x="267" y="-217"/>
      <point x="278" y="-158" type="curve"/>
      <point x="223" y="-158" type="line"/>
    </contour>
  </outline>
</glyph>
<glyph name="Tcaron" format="1">
  <advance width="611"/>
  <unicode hex="0164"/>
  <outline>
    <contour>
      <point x="493" y="647" type="line"/>
      <point x="355" y="0" type="line"/>
      <point x="261" y="0" type="line"/>
      <point x="399" y="647" type="line"/>
      <point x="158" y="647" type="line"/>
      <point x="175" y="729" type="line"/>
      <point x="748" y="729" type="line"/>
      <point x="731" y="647" type="line"/>
    </contour>
    <contour>
      <point x="524" y="791" type="line"/>
      <point x="429" y="791" type="line"/>
      <point x="365" y="939" type="line"/>
      <point x="428" y="939" type="line"/>
      <point x="484" y="841" type="line"/>
      <point x="588" y="939" type="line"/>
      <point x="652" y="939" type="line"/>
    </contour>
  </outline>
</glyph>
<glyph name="Tbar" format="1">
  <advance width="611"/>
  <unicode hex="0166"/>
  <outline>
    <contour>
      <point x="351" y="424" type="line"/>
      <point x="399" y="647" type="line"/>
      <point x="158" y="647" type="line"/>
      <point x="175" y="729" type="line"/>
      <point x="748" y="729" type="line"/>
      <point x="731" y="647" type="line"/>
      <point x="493" y="647" type="line"/>
      <point x="445" y="424" type="line"/>
      <point x="536" y="424" type="line"/>
      <point x="521" y="355" type="line"/>
      <point x="431" y="355" type="line"/>
      <point x="355" y="0" type="line"/>
      <point x="261" y="0" type="line"/>
      <point x="337" y="355" type="line"/>
      <point x="246" y="355" type="line"/>
      <point x="261" y="424" type="line"/>
    </contour>
  </outline>
</glyph>
<glyph name="Utilde" format="1">
  <advance width="722"/>
  <unicode hex="0168"/>
  <outline>
    <contour>
      <point x="670" y="937" type="curve"/>
      <point x="723" y="937" type="line"/>
      <point x="702" y="872"/>
      <point x="660" y="830"/>
      <point x="615" y="830" type="curve" smooth="yes"/>
      <point x="593" y="830"/>
      <point x="576" y="834"/>
      <point x="512" y="856" type="curve" smooth="yes"/>
      <point x="501" y="860"/>
      <point x="491" y="862"/>
      <point x="485" y="862" type="curve" smooth="yes"/>
      <point x="466" y="862"/>
      <point x="454" y="856"/>
      <point x="442" y="838" type="curve" smooth="yes"/>
      <point x="440" y="836"/>
      <point x="438" y="833"/>
      <point x="435" y="829" type="curve"/>
      <point x="382" y="829" type="line"/>
      <point x="394" y="864"/>
      <point x="402" y="881"/>
      <point x="414" y="896" type="curve" smooth="yes"/>
      <point x="430" y="917"/>
      <point x="461" y="932"/>
      <point x="486" y="932" type="curve" smooth="yes"/>
      <point x="503" y="932"/>
      <point x="520" y="928"/>
      <point x="559" y="915" type="curve" smooth="yes"/>
      <point x="585" y="906"/>
      <point x="612" y="900"/>
      <point x="622" y="900" type="curve" smooth="yes"/>
      <point x="642" y="900"/>
      <point x="652" y="908"/>
    </contour>
    <contour>
      <point x="706" y="729" type="line"/>
      <point x="800" y="729" type="line"/>
      <point x="691" y="217" type="line" smooth="yes"/>
      <point x="660" y="71"/>
      <point x="531" y="-23"/>
      <point x="363" y="-23" type="curve" smooth="yes"/>
      <point x="286" y="-23"/>
      <point x="220" y="-2"/>
      <point x="179" y="35" type="curve" smooth="yes"/>
      <point x="147" y="64"/>
      <point x="124" y="114"/>
      <point x="124" y="155" type="curve" smooth="yes"/>
      <point x="124" y="170"/>
      <point x="131" y="218"/>
      <point x="138" y="251" type="curve" smooth="yes"/>
      <point x="240" y="729" type="line"/>
      <point x="334" y="729" type="line"/>
      <point x="225" y="217" type="line" smooth="yes"/>
      <point x="222" y="201"/>
      <point x="220" y="187"/>
      <point x="220" y="173" type="curve" smooth="yes"/>
      <point x="220" y="104"/>
      <point x="285" y="58"/>
      <point x="381" y="58" type="curve" smooth="yes"/>
      <point x="494" y="58"/>
      <point x="576" y="118"/>
      <point x="597" y="217" type="curve" smooth="yes"/>
    </contour>
  </outline>
</glyph>
<glyph name="utilde" format="1">
  <advance width="556"/>
  <unicode hex="0169"/>
  <outline>
    <contour>
      <point x="536" y="732" type="curve"/>
      <point x="589" y="732" type="line"/>
      <point x="568" y="667"/>
      <point x="526" y="625"/>
      <point x="481" y="625" type="curve" smooth="yes"/>
      <point x="459" y="625"/>
      <point x="442" y="629"/>
      <point x="378" y="651" type="curve" smooth="yes"/>
      <point x="367" y="655"/>
      <point x="357" y="657"/>
      <point x="351" y="657" type="curve" smooth="yes"/>
      <point x="332" y="657"/>
      <point x="320" y="651"/>
      <point x="308" y="633" type="curve" smooth="yes"/>
      <point x="306" y="631"/>
      <point x="304" y="628"/>
      <point x="301" y="624" type="curve"/>
      <point x="248" y="624" type="line"/>
      <point x="260" y="659"/>
      <point x="268" y="676"/>
      <point x="280" y="691" type="curve" smooth="yes"/>
      <point x="296" y="712"/>
      <point x="327" y="727"/>
      <point x="352" y="727" type="curve" smooth="yes"/>
      <point x="369" y="727"/>
      <point x="386" y="723"/>
      <point x="425" y="710" type="curve" smooth="yes"/>
      <point x="451" y="701"/>
      <point x="478" y="695"/>
      <point x="488" y="695" type="curve" smooth="yes"/>
      <point x="508" y="695"/>
      <point x="518" y="703"/>
    </contour>
    <contour>
      <point x="483" y="0" type="line"/>
      <point x="407" y="0" type="line"/>
      <point x="419" y="57" type="line"/>
      <point x="361" y="1"/>
      <point x="304" y="-23"/>
      <point x="226" y="-23" type="curve" smooth="yes"/>
      <point x="140" y="-23"/>
      <point x="88" y="18"/>
      <point x="88" y="86" type="curve" smooth="yes"/>
      <point x="88" y="99"/>
      <point x="89" y="110"/>
      <point x="91" y="120" type="curve" smooth="yes"/>
      <point x="177" y="524" type="line"/>
      <point x="261" y="524" type="line"/>
      <point x="182" y="153" type="line" smooth="yes"/>
      <point x="180" y="143"/>
      <point x="179" y="134"/>
      <point x="179" y="126" type="curve" smooth="yes"/>
      <point x="179" y="79"/>
      <point x="214" y="49"/>
      <point x="268" y="49" type="curve" smooth="yes"/>
      <point x="353" y="49"/>
      <point x="424" y="119"/>
      <point x="447" y="227" type="curve" smooth="yes"/>
      <point x="510" y="524" type="line"/>
      <point x="594" y="524" type="line"/>
    </contour>
  </outline>
</glyph>
<glyph name="Ubreve" format="1">
  <advance width="722"/>
  <unicode hex="016C"/>
  <outline>
    <contour>
      <point x="419" y="964" type="curve"/>
      <point x="472" y="964" type="line"/>
      <point x="472" y="956" type="line"/>
      <point x="472" y="951" type="line" smooth="yes"/>
      <point x="472" y="921"/>
      <point x="505" y="901"/>
      <point x="554" y="901" type="curve" smooth="yes"/>
      <point x="613" y="901"/>
      <point x="654" y="924"/>
      <point x="664" y="964" type="curve"/>
      <point x="720" y="964" type="line"/>
      <point x="709" y="920"/>
      <point x="698" y="899"/>
      <point x="674" y="878" type="curve" smooth="yes"/>
      <point x="641" y="848"/>
      <point x="590" y="829"/>
      <point x="541" y="829" type="curve" smooth="yes"/>
      <point x="466" y="829"/>
      <point x="414" y="869"/>
      <point x="414" y="928" type="curve" smooth="yes"/>
      <point x="414" y="937"/>
      <point x="415" y="945"/>
    </contour>
    <contour>
      <point x="706" y="729" type="line"/>
      <point x="800" y="729" type="line"/>
      <point x="691" y="217" type="line" smooth="yes"/>
      <point x="660" y="71"/>
      <point x="531" y="-23"/>
      <point x="363" y="-23" type="curve" smooth="yes"/>
      <point x="286" y="-23"/>
      <point x="220" y="-2"/>
      <point x="179" y="35" type="curve" smooth="yes"/>
      <point x="147" y="64"/>
      <point x="124" y="114"/>
      <point x="124" y="155" type="curve" smooth="yes"/>
      <point x="124" y="170"/>
      <point x="131" y="218"/>
      <point x="138" y="251" type="curve" smooth="yes"/>
      <point x="240" y="729" type="line"/>
      <point x="334" y="729" type="line"/>
      <point x="225" y="217" type="line" smooth="yes"/>
      <point x="222" y="201"/>
      <point x="220" y="187"/>
      <point x="220" y="173" type="curve" smooth="yes"/>
      <point x="220" y="104"/>
      <point x="285" y="58"/>
      <point x="381" y="58" type="curve" smooth="yes"/>
      <point x="494" y="58"/>
      <point x="576" y="118"/>
      <point x="597" y="217" type="curve" smooth="yes"/>
    </contour>
  </outline>
</glyph>
<glyph name="ubreve" format="1">
  <advance width="556"/>
  <unicode hex="016D"/>
  <outline>
    <contour>
      <point x="285" y="759" type="curve"/>
      <point x="338" y="759" type="line"/>
      <point x="338" y="751" type="line"/>
      <point x="338" y="746" type="line" smooth="yes"/>
      <point x="338" y="716"/>
      <point x="371" y="696"/>
      <point x="420" y="696" type="curve" smooth="yes"/>
      <point x="479" y="696"/>
      <point x="520" y="719"/>
      <point x="530" y="759" type="curve"/>
      <point x="586" y="759" type="line"/>
      <point x="575" y="715"/>
      <point x="564" y="694"/>
      <point x="540" y="673" type="curve" smooth="yes"/>
      <point x="507" y="643"/>
      <point x="456" y="624"/>
      <point x="407" y="624" type="curve" smooth="yes"/>
      <point x="332" y="624"/>
      <point x="280" y="664"/>
      <point x="280" y="723" type="curve" smooth="yes"/>
      <point x="280" y="732"/>
      <point x="281" y="740"/>
    </contour>
    <contour>
      <point x="483" y="0" type="line"/>
      <point x="407" y="0" type="line"/>
      <point x="419" y="57" type="line"/>
      <point x="361" y="1"/>
      <point x="304" y="-23"/>
      <point x="226" y="-23" type="curve" smooth="yes"/>
      <point x="140" y="-23"/>
      <point x="88" y="18"/>
      <point x="88" y="86" type="curve" smooth="yes"/>
      <point x="88" y="99"/>
      <point x="89" y="110"/>
      <point x="91" y="120" type="curve" smooth="yes"/>
      <point x="177" y="524" type="line"/>
      <point x="261" y="524" type="line"/>
      <point x="182" y="153" type="line" smooth="yes"/>
      <point x="180" y="143"/>
      <point x="179" y="134"/>
      <point x="179" y="126" type="curve" smooth="yes"/>
      <point x="179" y="79"/>
      <point x="214" y="49"/>
      <point x="268" y="49" type="curve" smooth="yes"/>
      <point x="353" y="49"/>
      <point x="424" y="119"/>
      <point x="447" y="227" type="curve" smooth="yes"/>
      <point x="510" y="524" type="line"/>
      <point x="594" y="524" type="line"/>
    </contour>
  </outline>
</glyph>
<glyph name="uring" format="1">
  <advance width="556"/>
  <unicode hex="016F"/>
  <outline>
    <contour>
      <point x="483" y="0" type="line"/>
      <point x="407" y="0" type="line"/>
      <point x="419" y="57" type="line"/>
      <point x="361" y="1"/>
      <point x="304" y="-23"/>
      <point x="226" y="-23" type="curve" smooth="yes"/>
      <point x="140" y="-23"/>
      <point x="88" y="18"/>
      <point x="88" y="86" type="curve" smooth="yes"/>
      <point x="88" y="99"/>
      <point x="89" y="110"/>
      <point x="91" y="120" type="curve" smooth="yes"/>
      <point x="177" y="524" type="line"/>
      <point x="261" y="524" type="line"/>
      <point x="182" y="153" type="line" smooth="yes"/>
      <point x="180" y="143"/>
      <point x="179" y="134"/>
      <point x="179" y="126" type="curve" smooth="yes"/>
      <point x="179" y="79"/>
      <point x="214" y="49"/>
      <point x="268" y="49" type="curve" smooth="yes"/>
      <point x="353" y="49"/>
      <point x="424" y="119"/>
      <point x="447" y="227" type="curve" smooth="yes"/>
      <point x="510" y="524" type="line"/>
      <point x="594" y="524" type="line"/>
    </contour>
    <contour>
      <point x="432" y="754" type="curve" smooth="yes"/>
      <point x="473" y="754"/>
      <point x="504" y="725"/>
      <point x="504" y="687" type="curve" smooth="yes"/>
      <point x="504" y="631"/>
      <point x="452" y="579"/>
      <point x="395" y="579" type="curve" smooth="yes"/>
      <point x="355" y="579"/>
      <point x="324" y="610"/>
      <point x="324" y="649" type="curve" smooth="yes"/>
      <point x="324" y="702"/>
      <point x="378" y="754"/>
    </contour>
    <contour>
      <point x="425" y="710" type="curve" smooth="yes"/>
      <point x="397" y="710"/>
      <point x="370" y="684"/>
      <point x="370" y="658" type="curve" smooth="yes"/>
      <point x="370" y="637"/>
      <point x="385" y="623"/>
      <point x="405" y="623" type="curve" smooth="yes"/>
      <point x="432" y="623"/>
      <point x="459" y="649"/>
      <point x="459" y="675" type="curve" smooth="yes"/>
      <point x="459" y="695"/>
      <point x="444" y="710"/>
    </contour>
  </outline>
</glyph>
<glyph name="Wcircumflex" format="1">
  <advance width="944"/>
  <unicode hex="0174"/>
  <outline>
    <contour>
      <point x="636" y="979" type="line"/>
      <point x="731" y="979" type="line"/>
      <point x="795" y="829" type="line"/>
      <point x="732" y="829" type="line"/>
      <point x="676" y="928" type="line"/>
      <point x="572" y="829" type="line"/>
      <point x="508" y="829" type="line"/>
    </contour>
    <contour>
      <point x="744" y="0" type="line"/>
      <point x="642" y="0" type="line"/>
      <point x="601" y="592" type="line"/>
      <point x="311" y="0" type="line"/>
      <point x="209" y="0" type="line"/>
      <point x="177" y="729" type="line"/>
      <point x="277" y="729" type="line"/>
      <point x="292" y="137" type="line"/>
      <point x="580" y="729" type="line"/>
      <point x="676" y="729" type="line"/>
      <point x="717" y="137" type="line"/>
      <point x="980" y="729" type="line"/>
      <point x="1084" y="729" type="line"/>
    </contour>
  </outline>
</glyph>
<glyph name="wcircumflex" format="1">
  <advance width="722"/>
  <unicode hex="0175"/>
  <outline>
    <contour>
      <point x="475" y="774" type="line"/>
      <point x="570" y="774" type="line"/>
      <point x="634" y="624" type="line"/>
      <point x="571" y="624" type="line"/>
      <point x="515" y="723" type="line"/>
      <point x="411" y="624" type="line"/>
      <point x="347" y="624" type="line"/>
    </contour>
    <contour>
      <point x="556" y="0" type="line"/>
      <point x="461" y="0" type="line"/>
      <point x="449" y="418" type="line"/>
      <point x="254" y="0" type="line"/>
      <point x="158" y="0" type="line"/>
      <point x="118" y="524" type="line"/>
      <point x="209" y="524" type="line"/>
      <point x="228" y="116" type="line"/>
      <point x="417" y="524" type="line"/>
      <point x="522" y="524" type="line"/>
      <point x="533" y="116" type="line"/>
      <point x="729" y="524" type="line"/>
      <point x="820" y="524" type="line"/>
    </contour>
  </outline>
</glyph>
<glyph name="Ycircumflex" format="1">
  <advance width="667"/>
  <unicode hex="0176"/>
  <outline>
    <contour>
      <point x="498" y="979" type="line"/>
      <point x="593" y="979" type="line"/>
      <point x="657" y="829" type="line"/>
      <point x="594" y="829" type="line"/>
      <point x="538" y="928" type="line"/>
      <point x="434" y="829" type="line"/>
      <point x="370" y="829" type="line"/>
    </contour>
    <contour>
      <point x="448" y="286" type="line"/>
      <point x="387" y="0" type="line"/>
      <point x="293" y="0" type="line"/>
      <point x="354" y="286" type="line"/>
      <point x="168" y="729" type="line"/>
      <point x="280" y="729" type="line"/>
      <point x="416" y="372" type="line"/>
      <point x="705" y="729" type="line"/>
      <point x="816" y="729" type="line"/>
    </contour>
  </outline>
</glyph>
<glyph name="longs" format="1">
  <advance width="278"/>
  <unicode hex="017F"/>
  <outline>
    <contour>
      <point x="173" y="0" type="line"/>
      <point x="89" y="0" type="line"/>
      <point x="186" y="457" type="line"/>
      <point x="116" y="457" type="line"/>
      <point x="130" y="524" type="line"/>
      <point x="200" y="524" type="line"/>
      <point x="219" y="613" type="line" smooth="yes"/>
      <point x="235" y="687"/>
      <point x="291" y="732"/>
      <point x="368" y="732" type="curve" smooth="yes"/>
      <point x="384" y="732"/>
      <point x="395" y="731"/>
      <point x="413" y="727" type="curve"/>
      <point x="398" y="658" type="line"/>
      <point x="384" y="660"/>
      <point x="378" y="660"/>
      <point x="371" y="660" type="curve" smooth="yes"/>
      <point x="328" y="660"/>
      <point x="310" y="643"/>
      <point x="299" y="593" type="curve" smooth="yes"/>
    </contour>
  </outline>
</glyph>
<glyph name="florin" format="1">
  <advance width="556"/>
  <unicode hex="0192"/>
  <outline>
    <contour>
      <point x="567" y="464" type="line"/>
      <point x="552" y="392" type="line"/>
      <point x="425" y="392" type="line"/>
      <point x="267" y="-5" type="line" smooth="yes"/>
      <point x="211" y="-146"/>
      <point x="133" y="-212"/>
      <point x="20" y="-212" type="curve" smooth="yes"/>
      <point x="-2" y="-212"/>
      <point x="-15" y="-209"/>
      <point x="-32" y="-202" type="curve"/>
      <point x="3" y="-116" type="line"/>
      <point x="20" y="-130"/>
      <point x="33" y="-135"/>
      <point x="53" y="-135" type="curve" smooth="yes"/>
      <point x="103" y="-135"/>
      <point x="141" y="-99"/>
      <point x="172" y="-21" type="curve" smooth="yes"/>
      <point x="337" y="392" type="line"/>
      <point x="225" y="392" type="line"/>
      <point x="240" y="464" type="line"/>
      <point x="365" y="464" type="line"/>
      <point x="408" y="567" type="line" smooth="yes"/>
      <point x="451" y="670"/>
      <point x="535" y="738"/>
      <point x="621" y="738" type="curve" smooth="yes"/>
      <point x="647" y="738"/>
      <point x="671" y="732"/>
      <point x="696" y="719" type="curve"/>
      <point x="650" y="641" type="line"/>
      <point x="631" y="656"/>
      <point x="619" y="661"/>
      <point x="602" y="661" type="curve" smooth="yes"/>
      <point x="555" y="661"/>
      <point x="513" y="617"/>
      <point x="481" y="533" type="curve" smooth="yes"/>
      <point x="454" y="464" type="line"/>
    </contour>
  </outline>
</glyph>
<glyph name="scommaaccent" format="1">
  <advance width="500"/>
  <unicode hex="0219"/>
  <outline>
    <contour>
      <point x="514" y="378" type="curve"/>
      <point x="430" y="378" type="line"/>
      <point x="431" y="386"/>
      <point x="431" y="393"/>
      <point x="431" y="400" type="curve" smooth="yes"/>
      <point x="431" y="439"/>
      <point x="398" y="462"/>
      <point x="339" y="462" type="curve" smooth="yes"/>
      <point x="295" y="462"/>
      <point x="265" y="452"/>
      <point x="241" y="429" type="curve" smooth="yes"/>
      <point x="223" y="412"/>
      <point x="211" y="387"/>
      <point x="211" y="367" type="curve" smooth="yes"/>
      <point x="211" y="341"/>
      <point x="240" y="321"/>
      <point x="296" y="307" type="curve" smooth="yes"/>
      <point x="372" y="288" type="line" smooth="yes"/>
      <point x="460" y="266"/>
      <point x="493" y="234"/>
      <point x="493" y="173" type="curve" smooth="yes"/>
      <point x="493" y="54"/>
      <point x="396" y="-23"/>
      <point x="247" y="-23" type="curve" smooth="yes"/>
      <point x="131" y="-23"/>
      <point x="61" y="25"/>
      <point x="61" y="105" type="curve" smooth="yes"/>
      <point x="61" y="121"/>
      <point x="62" y="133"/>
      <point x="67" y="156" type="curve"/>
      <point x="156" y="156" type="line"/>
      <point x="155" y="146"/>
      <point x="154" y="137"/>
      <point x="154" y="131" type="curve" smooth="yes"/>
      <point x="154" y="81"/>
      <point x="193" y="54"/>
      <point x="262" y="54" type="curve" smooth="yes"/>
      <point x="305" y="54"/>
      <point x="348" y="67"/>
      <point x="373" y="88" type="curve" smooth="yes"/>
      <point x="389" y="101"/>
      <point x="405" y="132"/>
      <point x="405" y="150" type="curve" smooth="yes"/>
      <point x="405" y="159"/>
      <point x="399" y="174"/>
      <point x="392" y="183" type="curve" smooth="yes"/>
      <point x="383" y="194"/>
      <point x="368" y="200"/>
      <point x="335" y="209" type="curve" smooth="yes"/>
      <point x="261" y="228" type="line" smooth="yes"/>
      <point x="158" y="255"/>
      <point x="123" y="284"/>
      <point x="123" y="345" type="curve" smooth="yes"/>
      <point x="123" y="392"/>
      <point x="147" y="444"/>
      <point x="183" y="479" type="curve" smooth="yes"/>
      <point x="224" y="518"/>
      <point x="285" y="539"/>
      <point x="356" y="539" type="curve" smooth="yes"/>
      <point x="453" y="539"/>
      <point x="520" y="491"/>
      <point x="520" y="421" type="curve" smooth="yes"/>
      <point x="520" y="408"/>
      <point x="519" y="399"/>
    </contour>
    <contour>
      <point x="191" y="-60" type="line"/>
      <point x="291" y="-60" type="line"/>
      <point x="272" y="-153" type="line"/>
      <point x="254" y="-235"/>
      <point x="206" y="-284"/>
      <point x="143" y="-284" type="curve"/>
      <point x="151" y="-246" type="line"/>
      <point x="190" y="-246"/>
      <point x="214" y="-217"/>
      <point x="225" y="-158" type="curve"/>
      <point x="170" y="-158" type="line"/>
    </contour>
  </outline>
</glyph>
<glyph name="breve" format="1">
  <advance width="333"/>
  <unicode hex="02D8"/>
  <outline>
    <contour>
      <point x="170" y="729" type="curve"/>
      <point x="223" y="729" type="line"/>
      <point x="223" y="721" type="line"/>
      <point x="223" y="716" type="line" smooth="yes"/>
      <point x="223" y="686"/>
      <point x="256" y="666"/>
      <point x="305" y="666" type="curve" smooth="yes"/>
      <point x="364" y="666"/>
      <point x="405" y="689"/>
      <point x="415" y="729" type="curve"/>
      <point x="471" y="729" type="line"/>
      <point x="460" y="685"/>
      <point x="449" y="664"/>
      <point x="425" y="643" type="curve" smooth="yes"/>
      <point x="392" y="613"/>
      <point x="341" y="594"/>
      <point x="292" y="594" type="curve" smooth="yes"/>
      <point x="217" y="594"/>
      <point x="165" y="634"/>
      <point x="165" y="693" type="curve" smooth="yes"/>
      <point x="165" y="702"/>
      <point x="166" y="710"/>
    </contour>
  </outline>
</glyph>
<glyph name="dotaccent" format="1">
  <advance width="333"/>
  <unicode hex="02D9"/>
  <outline>
    <contour>
      <point x="370" y="715" type="line"/>
      <point x="348" y="612" type="line"/>
      <point x="244" y="612" type="line"/>
      <point x="266" y="715" type="line"/>
    </contour>
  </outline>
</glyph>
<glyph name="ring" format="1">
  <advance width="333"/>
  <unicode hex="02DA"/>
  <outline>
    <contour>
      <point x="324" y="754" type="curve" smooth="yes"/>
      <point x="365" y="754"/>
      <point x="396" y="725"/>
      <point x="396" y="687" type="curve" smooth="yes"/>
      <point x="396" y="631"/>
      <point x="344" y="579"/>
      <point x="287" y="579" type="curve" smooth="yes"/>
      <point x="247" y="579"/>
      <point x="216" y="610"/>
      <point x="216" y="649" type="curve" smooth="yes"/>
      <point x="216" y="702"/>
      <point x="270" y="754"/>
    </contour>
    <contour>
      <point x="317" y="710" type="curve" smooth="yes"/>
      <point x="289" y="710"/>
      <point x="262" y="684"/>
      <point x="262" y="658" type="curve" smooth="yes"/>
      <point x="262" y="637"/>
      <point x="277" y="623"/>
      <point x="297" y="623" type="curve" smooth="yes"/>
      <point x="324" y="623"/>
      <point x="351" y="649"/>
      <point x="351" y="675" type="curve" smooth="yes"/>
      <point x="351" y="695"/>
      <point x="336" y="710"/>
    </contour>
  </outline>
</glyph>
<glyph name="tilde" format="1">
  <advance width="333"/>
  <unicode hex="02DC"/>
  <outline>
    <contour>
      <point x="418" y="719" type="curve"/>
      <point x="471" y="719" type="line"/>
      <point x="450" y="654"/>
      <point x="408" y="612"/>
      <point x="363" y="612" type="curve" smooth="yes"/>
      <point x="341" y="612"/>
      <point x="324" y="616"/>
      <point x="260" y="638" type="curve" smooth="yes"/>
      <point x="249" y="642"/>
      <point x="239" y="644"/>
      <point x="233" y="644" type="curve" smooth="yes"/>
      <point x="214" y="644"/>
      <point x="202" y="638"/>
      <point x="190" y="620" type="curve" smooth="yes"/>
      <point x="188" y="618"/>
      <point x="186" y="615"/>
      <point x="183" y="611" type="curve"/>
      <point x="130" y="611" type="line"/>
      <point x="142" y="646"/>
      <point x="150" y="663"/>
      <point x="162" y="678" type="curve" smooth="yes"/>
      <point x="178" y="699"/>
      <point x="209" y="714"/>
      <point x="234" y="714" type="curve" smooth="yes"/>
      <point x="251" y="714"/>
      <point x="268" y="710"/>
      <point x="307" y="697" type="curve" smooth="yes"/>
      <point x="333" y="688"/>
      <point x="360" y="682"/>
      <point x="370" y="682" type="curve" smooth="yes"/>
      <point x="390" y="682"/>
      <point x="400" y="690"/>
    </contour>
  </outline>
</glyph>
<glyph name="Delta" format="1">
  <advance width="712"/>
  <unicode hex="0394"/>
  <outline>
    <contour>
      <point x="10" y="0" type="line"/>
      <point x="459" y="729" type="line"/>
      <point x="559" y="729" type="line"/>
      <point x="701" y="0" type="line"/>
    </contour>
    <contour>
      <point x="160" y="82" type="line"/>
      <point x="584" y="82" type="line"/>
      <point x="485" y="616" type="line"/>
    </contour>
  </outline>
</glyph>
<glyph name="mu" format="1">
  <advance width="556"/>
  <unicode hex="03BC"/>
  <outline>
    <contour>
      <point x="554" y="49" type="curve"/>
      <point x="540" y="-14" type="line"/>
      <point x="534" y="-15"/>
      <point x="529" y="-16"/>
      <point x="527" y="-17" type="curve" smooth="yes"/>
      <point x="505" y="-22"/>
      <point x="499" y="-23"/>
      <point x="486" y="-23" type="curve" smooth="yes"/>
      <point x="432" y="-23"/>
      <point x="411" y="-5"/>
      <point x="411" y="41" type="curve" smooth="yes"/>
      <point x="411" y="45"/>
      <point x="412" y="52"/>
      <point x="414" y="60" type="curve"/>
      <point x="360" y="4"/>
      <point x="300" y="-23"/>
      <point x="231" y="-23" type="curve" smooth="yes"/>
      <point x="194" y="-23"/>
      <point x="171" y="-15"/>
      <point x="150" y="6" type="curve"/>
      <point x="102" y="-220" type="line"/>
      <point x="18" y="-220" type="line"/>
      <point x="176" y="524" type="line"/>
      <point x="260" y="524" type="line"/>
      <point x="183" y="160" type="line" smooth="yes"/>
      <point x="181" y="150"/>
      <point x="180" y="141"/>
      <point x="180" y="130" type="curve" smooth="yes"/>
      <point x="180" y="80"/>
      <point x="213" y="50"/>
      <point x="266" y="50" type="curve" smooth="yes"/>
      <point x="352" y="50"/>
      <point x="423" y="120"/>
      <point x="446" y="227" type="curve" smooth="yes"/>
      <point x="509" y="524" type="line"/>
      <point x="593" y="524" type="line"/>
      <point x="500" y="88" type="line" smooth="yes"/>
      <point x="499" y="85"/>
      <point x="499" y="81"/>
      <point x="499" y="77" type="curve" smooth="yes"/>
      <point x="499" y="57"/>
      <point x="512" y="46"/>
      <point x="537" y="46" type="curve" smooth="yes"/>
      <point x="543" y="46"/>
      <point x="546" y="47"/>
    </contour>
  </outline>
</glyph>
<glyph name="uni0400" format="1">
  <advance width="667"/>
  <unicode hex="0400"/>
  <outline>
    <contour>
      <point x="468" y="949" type="line"/>
      <point x="540" y="801" type="line"/>
      <point x="487" y="801" type="line"/>
      <point x="362" y="949" type="line"/>
    </contour>
    <contour>
      <point x="255" y="332" type="line"/>
      <point x="201" y="82" type="line"/>
      <point x="630" y="82" type="line"/>
      <point x="613" y="0" type="line"/>
      <point x="90" y="0" type="line"/>
      <point x="245" y="729" type="line"/>
      <point x="751" y="729" type="line"/>
      <point x="734" y="647" type="line"/>
      <point x="322" y="647" type="line"/>
      <point x="272" y="414" type="line"/>
      <point x="668" y="414" type="line"/>
      <point x="650" y="332" type="line"/>
    </contour>
  </outline>
</glyph>
<glyph name="afii10051" format="1">
  <advance width="686"/>
  <unicode hex="0402"/>
  <outline>
    <contour>
      <point x="388" y="-140" type="line"/>
      <point x="411" y="-58" type="line"/>
      <point x="453" y="-58" type="line" smooth="yes"/>
      <point x="518" y="-58"/>
      <point x="533" y="-28"/>
      <point x="542" y="10" type="curve" smooth="yes"/>
      <point x="599" y="267" type="line" smooth="yes"/>
      <point x="602" y="278"/>
      <point x="603" y="288"/>
      <point x="603" y="298" type="curve" smooth="yes"/>
      <point x="603" y="338"/>
      <point x="580" y="365"/>
      <point x="514" y="365" type="curve" smooth="yes"/>
      <point x="315" y="365" type="line"/>
      <point x="237" y="0" type="line"/>
      <point x="144" y="0" type="line"/>
      <point x="281" y="647" type="line"/>
      <point x="81" y="647" type="line"/>
      <point x="98" y="729" type="line"/>
      <point x="590" y="729" type="line"/>
      <point x="573" y="647" type="line"/>
      <point x="374" y="647" type="line"/>
      <point x="332" y="447" type="line"/>
      <point x="532" y="447" type="line" smooth="yes"/>
      <point x="642" y="447"/>
      <point x="696" y="388"/>
      <point x="696" y="307" type="curve" smooth="yes"/>
      <point x="696" y="294"/>
      <point x="695" y="279"/>
      <point x="691" y="264" type="curve" smooth="yes"/>
      <point x="635" y="0" type="line" smooth="yes"/>
      <point x="618" y="-77"/>
      <point x="581" y="-140"/>
      <point x="471" y="-140" type="curve" smooth="yes"/>
    </contour>
  </outline>
</glyph>
<glyph name="afii10052" format="1">
  <advance width="611"/>
  <unicode hex="0403"/>
  <outline>
    <contour>
      <point x="603" y="949" type="line"/>
      <point x="715" y="949" type="line"/>
      <point x="535" y="801" type="line"/>
      <point x="475" y="801" type="line"/>
    </contour>
    <contour>
      <point x="183" y="0" type="line"/>
      <point x="90" y="0" type="line"/>
      <point x="245" y="729" type="line"/>
      <point x="734" y="729" type="line"/>
      <point x="717" y="647" type="line"/>
      <point x="321" y="647" type="line"/>
    </contour>
  </outline>
</glyph>
<glyph name="afii10053" format="1">
  <advance width="717"/>
  <unicode hex="0404"/>
  <outline>
    <contour>
      <point x="215" y="386" type="curve"/>
      <point x="581" y="386" type="line"/>
      <point x="564" y="304" type="line"/>
      <point x="200" y="304" type="line"/>
      <point x="198" y="289"/>
      <point x="198" y="274"/>
      <point x="198" y="259" type="curve" smooth="yes"/>
      <point x="198" y="133"/>
      <point x="261" y="59"/>
      <point x="374" y="59" type="curve" smooth="yes"/>
      <point x="433" y="59"/>
      <point x="492" y="77"/>
      <point x="528" y="105" type="curve" smooth="yes"/>
      <point x="560" y="130"/>
      <point x="581" y="161"/>
      <point x="604" y="215" type="curve"/>
      <point x="699" y="215" type="line"/>
      <point x="636" y="55"/>
      <point x="527" y="-23"/>
      <point x="367" y="-23" type="curve" smooth="yes"/>
      <point x="189" y="-23"/>
      <point x="104" y="85"/>
      <point x="104" y="253" type="curve" smooth="yes"/>
      <point x="104" y="432"/>
      <point x="184" y="571"/>
      <point x="285" y="656" type="curve" smooth="yes"/>
      <point x="353" y="714"/>
      <point x="431" y="741"/>
      <point x="526" y="741" type="curve" smooth="yes"/>
      <point x="687" y="741"/>
      <point x="767" y="662"/>
      <point x="767" y="505" type="curve" smooth="yes"/>
      <point x="767" y="488"/>
      <point x="766" y="471"/>
      <point x="764" y="452" type="curve"/>
      <point x="668" y="452" type="line"/>
      <point x="671" y="502"/>
      <point x="668" y="536"/>
      <point x="659" y="565" type="curve" smooth="yes"/>
      <point x="642" y="625"/>
      <point x="587" y="659"/>
      <point x="509" y="659" type="curve" smooth="yes"/>
      <point x="371" y="659"/>
      <point x="258" y="554"/>
    </contour>
  </outline>
</glyph>
<glyph name="afii10055" format="1">
  <advance width="278"/>
  <unicode hex="0406"/>
  <outline>
    <contour>
      <point x="349" y="729" type="line"/>
      <point x="194" y="0" type="line"/>
      <point x="100" y="0" type="line"/>
      <point x="255" y="729" type="line"/>
    </contour>
  </outline>
</glyph>
<glyph name="afii10056" format="1">
  <advance width="278"/>
  <unicode hex="0407"/>
  <outline>
    <contour>
      <point x="349" y="729" type="line"/>
      <point x="194" y="0" type="line"/>
      <point x="100" y="0" type="line"/>
      <point x="255" y="729" type="line"/>
    </contour>
    <contour>
      <point x="306" y="907" type="line"/>
      <point x="284" y="804" type="line"/>
      <point x="180" y="804" type="line"/>
      <point x="202" y="907" type="line"/>
    </contour>
    <contour>
      <point x="467" y="907" type="line"/>
      <point x="445" y="804" type="line"/>
      <point x="341" y="804" type="line"/>
      <point x="363" y="907" type="line"/>
    </contour>
  </outline>
</glyph>
<glyph name="afii10057" format="1">
  <advance width="500"/>
  <unicode hex="0408"/>
  <outline>
    <contour>
      <point x="487" y="729" type="line"/>
      <point x="581" y="729" type="line"/>
      <point x="465" y="182" type="line" smooth="yes"/>
      <point x="437" y="51"/>
      <point x="345" y="-23"/>
      <point x="213" y="-23" type="curve" smooth="yes"/>
      <point x="164" y="-23"/>
      <point x="130" y="-13"/>
      <point x="102" y="9" type="curve" smooth="yes"/>
      <point x="68" y="37"/>
      <point x="47" y="79"/>
      <point x="47" y="122" type="curve" smooth="yes"/>
      <point x="47" y="136"/>
      <point x="49" y="153"/>
      <point x="53" y="170" type="curve" smooth="yes"/>
      <point x="67" y="234" type="line"/>
      <point x="161" y="234" type="line"/>
      <point x="147" y="168" type="line" smooth="yes"/>
      <point x="144" y="156"/>
      <point x="143" y="145"/>
      <point x="143" y="134" type="curve" smooth="yes"/>
      <point x="143" y="89"/>
      <point x="179" y="58"/>
      <point x="233" y="58" type="curve" smooth="yes"/>
      <point x="270" y="58"/>
      <point x="307" y="75"/>
      <point x="331" y="102" type="curve" smooth="yes"/>
      <point x="353" y="127"/>
      <point x="366" y="160"/>
      <point x="378" y="216" type="curve" smooth="yes"/>
    </contour>
  </outline>
</glyph>
<glyph name="afii10058" format="1">
  <advance width="1087"/>
  <unicode hex="0409"/>
  <outline>
    <contour>
      <point x="271" y="729" type="line"/>
      <point x="720" y="729" type="line"/>
      <point x="654" y="415" type="line"/>
      <point x="834" y="415" type="line" smooth="yes"/>
      <point x="992" y="415"/>
      <point x="1062" y="348"/>
      <point x="1062" y="234" type="curve" smooth="yes"/>
      <point x="1062" y="152"/>
      <point x="1024" y="105"/>
      <point x="973" y="61" type="curve" smooth="yes"/>
      <point x="925" y="19"/>
      <point x="870" y="0"/>
      <point x="801" y="0" type="curve" smooth="yes"/>
      <point x="472" y="0" type="line"/>
      <point x="610" y="647" type="line"/>
      <point x="348" y="647" type="line"/>
      <point x="299" y="420" type="line" smooth="yes"/>
      <point x="254" y="214"/>
      <point x="168" y="0"/>
      <point x="6" y="0" type="curve"/>
      <point x="26" y="94" type="line"/>
      <point x="108" y="94"/>
      <point x="164" y="234"/>
      <point x="204" y="418" type="curve" smooth="yes"/>
    </contour>
    <contour>
      <point x="583" y="82" type="line"/>
      <point x="810" y="82" type="line" smooth="yes"/>
      <point x="855" y="82"/>
      <point x="887" y="93"/>
      <point x="914" y="117" type="curve" smooth="yes"/>
      <point x="948" y="146"/>
      <point x="971" y="185"/>
      <point x="971" y="239" type="curve" smooth="yes"/>
      <point x="971" y="262"/>
      <point x="965" y="282"/>
      <point x="953" y="298" type="curve" smooth="yes"/>
      <point x="936" y="322"/>
      <point x="908" y="333"/>
      <point x="863" y="333" type="curve" smooth="yes"/>
      <point x="636" y="333" type="line"/>
    </contour>
  </outline>
</glyph>
<glyph name="afii10059" format="1">
  <advance width="1164"/>
  <unicode hex="040A"/>
  <outline>
    <contour>
      <point x="550" y="0" type="line"/>
      <point x="620" y="332" type="line"/>
      <point x="247" y="332" type="line"/>
      <point x="177" y="0" type="line"/>
      <point x="83" y="0" type="line"/>
      <point x="237" y="729" type="line"/>
      <point x="330" y="729" type="line"/>
      <point x="264" y="414" type="line"/>
      <point x="638" y="414" type="line"/>
      <point x="704" y="729" type="line"/>
      <point x="797" y="729" type="line"/>
      <point x="731" y="415" type="line"/>
      <point x="911" y="415" type="line" smooth="yes"/>
      <point x="1075" y="415"/>
      <point x="1139" y="349"/>
      <point x="1139" y="236" type="curve" smooth="yes"/>
      <point x="1139" y="96"/>
      <point x="1014" y="0"/>
      <point x="879" y="0" type="curve" smooth="yes"/>
    </contour>
    <contour>
      <point x="660" y="82" type="line"/>
      <point x="887" y="82" type="line" smooth="yes"/>
      <point x="985" y="82"/>
      <point x="1048" y="153"/>
      <point x="1048" y="237" type="curve" smooth="yes"/>
      <point x="1048" y="299"/>
      <point x="1012" y="333"/>
      <point x="940" y="333" type="curve" smooth="yes"/>
      <point x="713" y="333" type="line"/>
    </contour>
  </outline>
</glyph>
<glyph name="afii10060" format="1">
  <advance width="646"/>
  <unicode hex="040B"/>
  <outline>
    <contour>
      <point x="332" y="447" type="line"/>
      <point x="492" y="447" type="line" smooth="yes"/>
      <point x="602" y="447"/>
      <point x="656" y="388"/>
      <point x="656" y="307" type="curve" smooth="yes"/>
      <point x="656" y="294"/>
      <point x="655" y="279"/>
      <point x="651" y="264" type="curve" smooth="yes"/>
      <point x="595" y="0" type="line"/>
      <point x="502" y="0" type="line"/>
      <point x="559" y="267" type="line" smooth="yes"/>
      <point x="562" y="278"/>
      <point x="563" y="288"/>
      <point x="563" y="298" type="curve" smooth="yes"/>
      <point x="563" y="338"/>
      <point x="540" y="365"/>
      <point x="474" y="365" type="curve" smooth="yes"/>
      <point x="315" y="365" type="line"/>
      <point x="237" y="0" type="line"/>
      <point x="144" y="0" type="line"/>
      <point x="281" y="647" type="line"/>
      <point x="81" y="647" type="line"/>
      <point x="98" y="729" type="line"/>
      <point x="590" y="729" type="line"/>
      <point x="573" y="647" type="line"/>
      <point x="374" y="647" type="line"/>
    </contour>
  </outline>
</glyph>
<glyph name="afii10062" format="1">
  <advance width="530"/>
  <unicode hex="040E"/>
  <outline>
    <contour>
      <point x="254" y="936" type="curve"/>
      <point x="307" y="936" type="line"/>
      <point x="307" y="928" type="line"/>
      <point x="307" y="923" type="line" smooth="yes"/>
      <point x="307" y="893"/>
      <point x="340" y="873"/>
      <point x="389" y="873" type="curve" smooth="yes"/>
      <point x="448" y="873"/>
      <point x="489" y="896"/>
      <point x="499" y="936" type="curve"/>
      <point x="555" y="936" type="line"/>
      <point x="544" y="892"/>
      <point x="533" y="871"/>
      <point x="509" y="850" type="curve" smooth="yes"/>
      <point x="476" y="820"/>
      <point x="425" y="801"/>
      <point x="376" y="801" type="curve" smooth="yes"/>
      <point x="301" y="801"/>
      <point x="249" y="841"/>
      <point x="249" y="900" type="curve" smooth="yes"/>
      <point x="249" y="909"/>
      <point x="250" y="917"/>
    </contour>
    <contour>
      <point x="135" y="0" type="line"/>
      <point x="22" y="0" type="line"/>
      <point x="203" y="244" type="line"/>
      <point x="64" y="729" type="line"/>
      <point x="177" y="729" type="line"/>
      <point x="281" y="350" type="line"/>
      <point x="546" y="729" type="line"/>
      <point x="657" y="729" type="line"/>
    </contour>
  </outline>
</glyph>
<glyph name="afii10145" format="1">
  <advance width="722"/>
  <unicode hex="040F"/>
  <outline>
    <contour>
      <point x="332" y="0" type="line"/>
      <point x="83" y="0" type="line"/>
      <point x="238" y="729" type="line"/>
      <point x="332" y="729" type="line"/>
      <point x="194" y="82" type="line"/>
      <point x="567" y="82" type="line"/>
      <point x="705" y="729" type="line"/>
      <point x="799" y="729" type="line"/>
      <point x="644" y="0" type="line"/>
      <point x="412" y="0" type="line"/>
      <point x="383" y="-135" type="line"/>
      <point x="303" y="-135" type="line"/>
    </contour>
  </outline>
</glyph>
